{
.appVersion = "3257";
.formatVersion = 3;
axes = (
{
name = Weight;
tag = wght;
}
);
classes = (
{
automatic = 1;

glyphs = (
{
glyphname = A;
kernLeft = A;
kernRight = A;
lastChange = "2022-05-18 03:32:05 +0000";
layers = (
{
anchors = (
{
name = bottom;
pos = (612,0);
},
{
name = ogonek;
pos = (1018,10);
},
{
name = top;
pos = (2098,1447);
}
);
layerId = master01;
shapes = (
{
closed = 1;
nodes = (
(300,-5,o),
(385,19,o),
(470,73,cs),
(522,105,o),
(592,157,o),
(687,237,c),
(764,213,o),
(853,199,o),
(951,199,cs),
(972,199,o),
(993,200,o),
(1014,201,c),
(1011,194,o),
(1007,188,o),
(1003,182,cs),
(955,123,o),
(906,63,o),
(855,-1,c,{
name = hr03;
}),
(874,1,o),
(890,5,o),
(913,5,cs),
(939,5,o),
(988,1,o),
(1029,-1,c),
(1200,225,l),
(1365,260,o),
(1519,330,o),
(1626,434,cs),
(1706,512,o),
(1770,595,o),
(1778,710,c),
(1778,726,o),
(1766,739,o),
(1762,739,cs,{
name = hr04;
}),
(1758,739,o),
(1753,727,o),
(1746,709,cs),
(1668,503,o),
(1474,339,o),
(1232,267,c),
(1934,1195,o),
(2047,1367,o),
(2098,1383,c),
(2114,1389,o),
(2118,1393,o),
(2118,1395,cs),
(2118,1403,o),
(2113,1404,o),
(2100,1404,cs),
(2066,1404,o),
(2003,1389,o),
(1905,1337,cs),
(1757,1259,o),
(1547,1113,o),
(1054,620,cs),
(1027,593,l),
(953,749,o),
(811,869,o),
(631,869,cs),
(437,869,o),
(330,741,o),
(337,602,cs),
(344,460,o),
(459,321,o),
(652,249,c),
(600,206,o),
(552,168,o),
(503,132,c),
(402,62,o),
(309,22,o),
(220,22,cs),
(90,22,o),
(40,68,o),
(40,132,cs),
(40,139,l),
(53,130,o),
(70,129,o),
(88,129,cs),
(118,129,o),
(144,152,o),
(144,178,cs),
(144,211,o),
(116,223,o),
(94,223,cs),
(53,223,o),
(0,201,o),
(0,141,cs),
(0,60,o),
(71,-5,o),
(212,-5,cs,{
name = hr01;
})
);
},
{
closed = 1;
nodes = (
(491,334,o),
(399,465,o),
(399,604,c),
(398,728,o),
(505,839,o),
(633,839,cs),
(797,839,o),
(936,730,o),
(1004,572,c),
(871,443,o),
(768,347,o),
(676,269,c)
);
},
{
closed = 1;
nodes = (
(863,227,o),
(781,238,o),
(711,258,c),
(794,330,o),
(895,422,o),
(1017,539,c),
(1038,480,o),
(1050,415,o),
(1050,347,cs),
(1050,317,o),
(1043,271,o),
(1027,230,c),
(1004,228,o),
(980,227,o),
(957,227,cs)
);
},
{
closed = 1;
nodes = (
(1078,293,o),
(1082,323,o),
(1082,353,cs),
(1082,424,o),
(1067,495,o),
(1041,562,c),
(1105,624,ls),
(1487,995,o),
(1715,1195,o),
(1877,1294,cs),
(1941,1332,o),
(1983,1349,o),
(2026,1366,c),
(1915,1263,o),
(1634,955,o),
(1070,264,c)
);
}
);
width = 1628;
}
);
unicode = 65;
userData = {
KernOnName = A;
};
},
{
glyphname = AE;
kernLeft = A;
kernRight = E;
lastChange = "2022-05-18 03:32:05 +0000";
layers = (
{
anchors = (
{
name = bottom;
pos = (1232,0);
},
{
name = top;
pos = (2362,1447);
}
);
layerId = master01;
shapes = (
{
closed = 1;
nodes = (
(1597,-290,o),
(1604,-285,o),
(1604,-279,cs),
(1604,-276,o),
(1601,-272,o),
(1593,-266,cs),
(1547,-228,o),
(1515,-158,o),
(1515,-54,cs),
(1515,-39,o),
(1516,-23,o),
(1518,-7,c),
(1533,-8,o),
(1548,-9,o),
(1564,-9,cs,{
name = hr02;
}),
(1839,-9,o),
(2080,187,o),
(2080,381,cs),
(2080,456,o),
(2037,505,o),
(1945,505,cs),
(1775,505,o),
(1626,375,o),
(1540,182,cs),
(1517,131,o),
(1503,76,o),
(1495,24,c),
(1374,45,o),
(1309,118,o),
(1309,223,cs),
(1309,392,o),
(1646,714,o),
(1881,714,cs),
(1888,714,l),
(1920,646,o),
(1979,613,o),
(2037,613,cs),
(2078,613,o),
(2091,629,o),
(2091,645,cs),
(2091,682,o),
(2041,722,o),
(1937,740,c,{
name = hr03;
}),
(1937,760,ls),
(1937,906,o),
(2080,1137,o),
(2312,1285,c),
(2372,1322,o),
(2456,1350,o),
(2522,1350,cs),
(2620,1350,o),
(2668,1304,o),
(2668,1232,cs),
(2668,1040,o),
(2369,807,o),
(2188,807,cs),
(2129,807,o),
(2101,832,o),
(2101,870,cs),
(2101,994,o),
(2314,1197,o),
(2523,1197,cs),
(2541,1197,o),
(2555,1199,o),
(2555,1211,cs),
(2555,1216,o),
(2547,1222,o),
(2532,1222,cs,{
name = hr04;
}),
(2283,1222,o),
(2069,1001,o),
(2069,872,cs),
(2069,819,o),
(2111,779,o),
(2185,779,cs),
(2464,779,o),
(2710,1034,o),
(2710,1230,cs),
(2710,1303,o),
(2658,1378,o),
(2501,1378,cs,{
name = hr05;
}),
(2208,1378,o),
(1864,1085,o),
(1864,832,cs),
(1864,800,o),
(1868,772,o),
(1875,747,c),
(1858,748,o),
(1839,749,o),
(1819,749,cs),
(1714,749,o),
(1613,722,o),
(1525,677,c),
(1965,1248,o),
(2075,1370,o),
(2117,1383,c),
(2133,1389,o),
(2137,1393,o),
(2137,1395,cs),
(2137,1403,o),
(2132,1404,o),
(2119,1404,cs),
(2085,1404,o),
(2022,1389,o),
(1924,1337,cs),
(1776,1259,o),
(1573,1105,o),
(1073,620,cs),
(1037,585,o),
(1003,552,o),
(971,522,c),
(891,677,o),
(740,797,o),
(561,797,cs),
(391,797,o),
(299,669,o),
(299,561,cs),
(299,411,o),
(411,271,o),
(603,194,c),
(576,172,o),
(549,152,o),
(522,132,c),
(421,62,o),
(331,26,o),
(242,26,cs),
(132,26,o),
(61,83,o),
(48,147,c),
(56,143,o),
(65,142,o),
(71,142,cs),
(104,142,o),
(125,161,o),
(125,189,cs),
(125,217,o),
(99,242,o),
(67,242,cs),
(27,242,o),
(0,212,o),
(0,172,cs),
(0,93,o),
(83,-5,o),
(231,-5,cs,{
name = hr01;
}),
(319,-5,o),
(404,19,o),
(489,73,cs),
(528,97,o),
(577,132,o),
(638,181,c),
(728,150,o),
(835,132,o),
(954,132,c),
(918,89,o),
(882,44,o),
(844,-1,c),
(862,1,o),
(878,5,o),
(902,5,cs),
(927,5,o),
(966,1,o),
(1007,-1,c),
(1238,302,l),
(1236,286,o),
(1235,270,o),
(1235,254,cs),
(1235,131,o),
(1330,22,o),
(1491,-3,c),
(1488,-24,o),
(1488,-44,o),
(1488,-63,cs),
(1488,-164,o),
(1518,-231,o),
(1566,-276,cs),
(1580,-288,o),
(1586,-290,o),
(1591,-290,cs)
);
},
{
closed = 1;
nodes = (
(473,290,o),
(369,408,o),
(369,549,cs),
(369,674,o),
(435,763,o),
(572,763,cs),
(719,763,o),
(870,656,o),
(948,499,c),
(825,382,o),
(728,296,o),
(640,223,c)
);
},
{
closed = 1;
nodes = (
(866,163,o),
(762,180,o),
(674,210,c),
(751,274,o),
(845,359,o),
(962,469,c),
(987,409,o),
(1001,344,o),
(1001,275,cs),
(1001,247,o),
(995,203,o),
(981,164,c),
(981,163,o),
(981,163,o),
(980,163,cs)
);
},
{
closed = 1;
nodes = (
(1552,19,o),
(1537,19,o),
(1523,21,c),
(1534,70,o),
(1554,124,o),
(1582,178,cs),
(1675,357,o),
(1851,474,o),
(1951,474,cs),
(2020,474,o),
(2046,453,o),
(2046,406,cs),
(2046,295,o),
(1759,19,o),
(1567,19,cs)
);
},
{
closed = 1;
nodes = (
(1033,239,o),
(1034,257,o),
(1034,275,cs),
(1034,348,o),
(1017,422,o),
(986,491,c),
(1029,532,o),
(1075,576,o),
(1124,624,cs),
(1505,996,o),
(1734,1195,o),
(1896,1294,cs),
(1955,1329,o),
(1995,1341,o),
(2035,1355,c),
(1920,1241,o),
(1617,922,o),
(1030,222,c)
);
},
{
closed = 1;
nodes = (
(1987,642,o),
(1955,662,o),
(1942,709,c),
(2010,699,o),
(2050,672,o),
(2050,654,cs),
(2050,645,o),
(2045,642,o),
(2037,642,cs,{
name = hr06;
})
);
}
);
width = 2158;
}
);
unicode = 198;
},
{
glyphname = B;
kernLeft = B;
kernRight = B;
lastChange = "2022-05-18 03:32:05 +0000";
layers = (
{
anchors = (
{
name = bottom;
pos = (672,0);
},
{
name = top;
pos = (1616,1446);
}
);
layerId = master01;
shapes = (
{
closed = 1;
nodes = (
(286,-2,o),
(358,3,o),
(432,32,c),
(645,120,o),
(882,316,o),
(1133,652,cs),
(1341,931,o),
(1492,1090,o),
(1658,1214,cs),
(1691,1238,o),
(1722,1260,o),
(1752,1277,c),
(1779,1242,o),
(1794,1200,o),
(1794,1153,cs),
(1794,928,o),
(1622,753,o),
(1454,671,c),
(1420,688,o),
(1379,698,o),
(1332,698,cs),
(1247,698,o),
(1168,666,o),
(1168,634,cs),
(1168,613,o),
(1200,588,o),
(1262,588,cs,{
name = hr03;
}),
(1326,588,o),
(1393,601,o),
(1459,623,c),
(1469,607,o),
(1474,585,o),
(1474,559,cs),
(1474,261,o),
(1210,26,o),
(1020,26,cs),
(912,26,o),
(883,68,o),
(883,108,cs),
(883,246,o),
(1149,443,o),
(1358,443,cs),
(1376,443,o),
(1389,447,o),
(1389,457,cs),
(1389,462,o),
(1381,469,o),
(1368,469,cs),
(1117,469,o),
(850,247,o),
(850,109,cs),
(850,59,o),
(888,-2,o),
(1016,-2,cs),
(1303,-2,o),
(1582,212,o),
(1582,439,cs),
(1582,524,o),
(1554,594,o),
(1502,640,c),
(1712,725,o),
(1898,905,o),
(1898,1083,cs),
(1898,1173,o),
(1864,1248,o),
(1804,1305,c),
(1960,1384,o),
(2061,1377,o),
(2061,1390,cs),
(2061,1398,o),
(2049,1400,o),
(2028,1400,cs),
(1968,1400,o),
(1883,1378,o),
(1778,1328,c),
(1683,1401,o),
(1538,1440,o),
(1362,1440,cs),
(868,1440,o),
(374,1066,o),
(374,741,cs),
(374,642,o),
(451,600,o),
(531,600,cs,{
name = hr04;
}),
(844,600,o),
(1209,883,o),
(1209,1270,cs),
(1209,1282,o),
(1205,1292,o),
(1198,1292,cs),
(1190,1292,o),
(1189,1287,o),
(1184,1260,c),
(1137,911,o),
(768,622,o),
(541,622,cs),
(465,622,o),
(404,658,o),
(404,738,cs),
(404,926,o),
(730,1246,o),
(1051,1363,c),
(1144,1398,o),
(1257,1418,o),
(1350,1418,cs),
(1521,1418,o),
(1656,1377,o),
(1730,1303,c),
(1550,1207,o),
(1319,1030,o),
(1064,738,c),
(499,111,o),
(388,24,o),
(220,24,cs),
(109,24,o),
(39,70,o),
(39,135,cs),
(39,141,l),
(52,132,o),
(70,131,o),
(87,131,cs),
(117,131,o),
(143,154,o),
(143,180,cs),
(143,213,o),
(115,226,o),
(93,226,cs),
(52,226,o),
(0,203,o),
(0,142,cs),
(0,63,o),
(95,-2,o),
(212,-2,cs,{
name = hr01;
})
);
},
{
closed = 1;
nodes = (
(1238,620,o),
(1219,632,o),
(1219,642,cs,{
name = hr06;
}),
(1219,658,o),
(1270,675,o),
(1333,675,cs),
(1369,675,o),
(1400,670,o),
(1423,657,c),
(1366,633,o),
(1310,620,o),
(1263,620,cs)
);
}
);
width = 1633;
}
);
unicode = 66;
},
{
color = 0;
glyphname = Bhook;
kernLeft = B;
kernRight = B;
lastChange = "2023-10-28 18:45:46 +0000";
layers = (
{
anchors = (
{
name = bottom;
pos = (672,0);
},
{
name = top;
pos = (1616,1446);
}
);
layerId = master01;
shapes = (
{
closed = 1;
nodes = (
(286,-2,o),
(358,3,o),
(432,32,cs),
(645,120,o),
(882,316,o),
(1133,652,cs),
(1341,931,o),
(1492,1090,o),
(1658,1214,cs),
(1691,1238,o),
(1722,1260,o),
(1752,1277,c),
(1779,1242,o),
(1794,1200,o),
(1794,1153,cs),
(1794,928,o),
(1622,753,o),
(1454,671,c),
(1420,688,o),
(1379,698,o),
(1332,698,cs),
(1247,698,o),
(1168,666,o),
(1168,634,cs),
(1168,613,o),
(1200,588,o),
(1262,588,cs,{
name = hr03;
}),
(1326,588,o),
(1393,601,o),
(1459,623,c),
(1469,607,o),
(1474,585,o),
(1474,559,cs),
(1474,261,o),
(1210,26,o),
(1020,26,cs),
(912,26,o),
(883,68,o),
(883,108,cs),
(883,246,o),
(1149,443,o),
(1358,443,cs),
(1376,443,o),
(1389,447,o),
(1389,457,cs),
(1389,462,o),
(1381,469,o),
(1368,469,cs),
(1117,469,o),
(850,247,o),
(850,109,cs),
(850,59,o),
(888,-2,o),
(1016,-2,cs),
(1303,-2,o),
(1582,212,o),
(1582,439,cs),
(1582,524,o),
(1554,594,o),
(1502,640,c),
(1712,725,o),
(1898,905,o),
(1898,1083,cs),
(1898,1173,o),
(1864,1248,o),
(1804,1305,c),
(1960,1384,o),
(2061,1377,o),
(2061,1390,cs),
(2061,1398,o),
(2049,1400,o),
(2028,1400,cs),
(1968,1400,o),
(1883,1378,o),
(1778,1328,c),
(1683,1401,o),
(1538,1440,o),
(1362,1440,cs),
(984,1440,o),
(669,1312,o),
(669,1090,cs),
(669,960,o),
(781,875,o),
(933,875,cs),
(1010,875,o),
(1055,911,o),
(1064,946,cs),
(1073,978,o),
(1049,1011,o),
(1009,1011,cs),
(988,1011,o),
(940,983,o),
(921,955,c),
(864,936,o),
(702,935,o),
(702,1096,cs),
(702,1301,o),
(1006,1418,o),
(1350,1418,cs),
(1521,1418,o),
(1656,1377,o),
(1730,1303,c),
(1550,1207,o),
(1319,1030,o),
(1064,738,cs),
(499,111,o),
(388,24,o),
(220,24,cs),
(109,24,o),
(39,70,o),
(39,135,cs),
(39,141,l),
(52,132,o),
(70,131,o),
(87,131,cs),
(117,131,o),
(143,154,o),
(143,180,cs),
(143,213,o),
(115,226,o),
(93,226,cs),
(52,226,o),
(0,203,o),
(0,142,cs),
(0,63,o),
(95,-2,o),
(212,-2,cs,{
name = hr01;
})
);
},
{
closed = 1;
nodes = (
(1238,620,o),
(1219,632,o),
(1219,642,cs,{
name = hr06;
}),
(1219,658,o),
(1270,675,o),
(1333,675,cs),
(1369,675,o),
(1400,670,o),
(1423,657,c),
(1366,633,o),
(1310,620,o),
(1263,620,cs)
);
}
);
width = 1633;
}
);
unicode = 385;
},
{
glyphname = C;
kernLeft = C;
kernRight = C;
lastChange = "2022-05-18 03:32:05 +0000";
layers = (
{
anchors = (
{
name = bottom;
pos = (426,39);
},
{
name = top;
pos = (1614,1446);
}
);
layerId = master01;
shapes = (
{
closed = 1;
nodes = (
(616,-262,o),
(620,-260,o),
(620,-257,cs),
(620,-254,o),
(621,-251,o),
(616,-244,cs),
(573,-188,o),
(560,-73,o),
(557,-1,c,{
name = hr03;
}),
(563,-2,o),
(569,-2,o),
(575,-2,cs),
(977,-2,o),
(1294,364,o),
(1294,593,cs),
(1294,677,o),
(1233,733,o),
(1121,733,cs),
(825,733,o),
(529,395,o),
(528,29,c),
(438,47,o),
(382,108,o),
(382,213,cs),
(382,351,o),
(512,552,o),
(691,748,c),
(1122,769,o),
(1716,1099,o),
(1716,1327,cs),
(1716,1381,o),
(1673,1401,o),
(1616,1401,cs),
(1275,1401,o),
(818,1118,o),
(546,782,c),
(415,811,o),
(343,894,o),
(343,979,cs,{
name = hr04;
}),
(343,1225,o),
(722,1446,o),
(988,1446,cs),
(1021,1446,o),
(1046,1442,o),
(1061,1442,cs),
(1069,1442,o),
(1074,1444,o),
(1074,1450,cs),
(1074,1460,o),
(1037,1467,o),
(993,1467,cs),
(628,1467,o),
(300,1219,o),
(300,1020,cs),
(300,897,o),
(375,794,o),
(528,759,c),
(398,592,o),
(315,414,o),
(315,251,cs,{
name = hr01;
}),
(315,102,o),
(407,18,o),
(528,1,c),
(534,-150,o),
(587,-262,o),
(611,-262,cs)
);
},
{
closed = 1;
nodes = (
(576,24,o),
(566,24,o),
(557,25,c),
(557,26,l),
(557,404,o),
(883,706,o),
(1110,706,cs),
(1173,706,o),
(1202,683,o),
(1202,628,cs),
(1202,440,o),
(856,24,o),
(586,24,cs)
);
},
{
closed = 1;
nodes = (
(1008,1086,o),
(1416,1377,o),
(1614,1377,cs),
(1661,1377,o),
(1692,1362,o),
(1692,1324,cs),
(1692,1160,o),
(1083,813,o),
(716,775,c,{
name = hr06;
})
);
}
);
width = 1286;
}
);
unicode = 67;
},
{
glyphname = D;
kernLeft = D;
kernRight = D;
lastChange = "2022-05-18 03:32:05 +0000";
layers = (
{
anchors = (
{
name = bottom;
pos = (580,0);
},
{
name = center;
pos = (1111,694);
},
{
name = top;
pos = (1536,1446);
}
);
layerId = master01;
shapes = (
{
closed = 1;
nodes = (
(314,-6,o),
(432,13,o),
(538,49,c),
(663,13,o),
(745,-2,o),
(845,-2,cs),
(1287,-2,o),
(1702,350,o),
(1702,840,cs),
(1702,951,o),
(1676,1048,o),
(1628,1128,c),
(1743,1227,o),
(1865,1290,o),
(1985,1305,c),
(2015,1310,o),
(2018,1312,o),
(2018,1320,cs),
(2018,1326,o),
(2012,1330,o),
(2003,1330,cs),
(1877,1324,o),
(1725,1260,o),
(1594,1178,c),
(1489,1309,o),
(1313,1384,o),
(1082,1384,cs),
(631,1384,o),
(267,1078,o),
(267,780,cs),
(267,654,o),
(389,569,o),
(512,569,cs),
(855,569,o),
(1179,887,o),
(1179,1175,cs),
(1179,1192,o),
(1173,1196,o),
(1167,1196,cs),
(1161,1196,o),
(1158,1191,o),
(1156,1173,c),
(1138,903,o),
(721,597,o),
(515,597,cs),
(394,597,o),
(325,661,o),
(325,757,cs),
(325,991,o),
(691,1360,o),
(1088,1360,cs),
(1295,1360,o),
(1464,1298,o),
(1557,1154,c),
(1502,1117,o),
(1452,1077,o),
(1410,1037,cs),
(1262,899,o),
(1164,773,o),
(1049,634,cs),
(796,327,o),
(635,171,o),
(496,95,c),
(491,97,o),
(487,97,o),
(483,99,c,{
name = hr03;
}),
(344,140,o),
(275,154,o),
(206,154,cs),
(72,154,o),
(0,107,o),
(0,68,cs,{
name = hr01;
}),
(0,31,o),
(50,-6,o),
(180,-6,cs)
);
},
{
closed = 1;
nodes = (
(80,26,o),
(28,39,o),
(28,68,cs,{
name = hr05;
}),
(28,90,o),
(85,111,o),
(199,111,cs),
(285,111,o),
(363,96,o),
(451,73,c),
(367,36,o),
(287,26,o),
(197,26,cs)
);
},
{
closed = 1;
nodes = (
(733,28,o),
(654,46,o),
(585,67,c),
(923,200,o),
(1138,501,o),
(1369,834,cs),
(1438,934,o),
(1512,1022,o),
(1589,1094,c),
(1621,1024,o),
(1638,938,o),
(1638,836,cs),
(1638,368,o),
(1242,28,o),
(850,28,cs)
);
}
);
width = 1623;
}
);
unicode = 68;
},
{
color = 0;
glyphname = Dhook;
kernLeft = D;
kernRight = D;
lastChange = "2023-10-28 18:45:52 +0000";
layers = (
{
anchors = (
{
name = bottom;
pos = (580,0);
},
{
name = center;
pos = (1111,694);
},
{
name = top;
pos = (1536,1446);
}
);
layerId = master01;
shapes = (
{
closed = 1;
nodes = (
(314,-6,o),
(432,13,o),
(538,49,c),
(663,13,o),
(745,-2,o),
(845,-2,cs),
(1287,-2,o),
(1702,350,o),
(1702,840,cs),
(1702,951,o),
(1676,1048,o),
(1628,1128,c),
(1743,1227,o),
(1865,1290,o),
(1985,1305,cs),
(2015,1310,o),
(2018,1312,o),
(2018,1320,cs),
(2018,1326,o),
(2012,1330,o),
(2003,1330,cs),
(1877,1324,o),
(1725,1260,o),
(1594,1178,c),
(1489,1309,o),
(1313,1384,o),
(1082,1384,cs),
(722,1382,o),
(407,1254,o),
(407,1032,cs),
(407,902,o),
(519,817,o),
(671,817,cs),
(748,817,o),
(793,853,o),
(802,888,cs),
(811,920,o),
(787,953,o),
(747,953,cs),
(726,953,o),
(678,925,o),
(659,897,c),
(602,878,o),
(440,877,o),
(440,1038,cs),
(440,1243,o),
(744,1360,o),
(1088,1360,cs),
(1295,1360,o),
(1464,1298,o),
(1557,1154,c),
(1502,1117,o),
(1452,1077,o),
(1410,1037,cs),
(1262,899,o),
(1164,773,o),
(1049,634,cs),
(796,327,o),
(635,171,o),
(496,95,c),
(491,97,o),
(487,97,o),
(483,99,c,{
name = hr03;
}),
(344,140,o),
(275,154,o),
(206,154,cs),
(72,154,o),
(0,107,o),
(0,68,cs,{
name = hr01;
}),
(0,31,o),
(50,-6,o),
(180,-6,cs)
);
},
{
closed = 1;
nodes = (
(80,26,o),
(28,39,o),
(28,68,cs,{
name = hr05;
}),
(28,90,o),
(85,111,o),
(199,111,cs),
(285,111,o),
(363,96,o),
(451,73,c),
(367,36,o),
(287,26,o),
(197,26,cs)
);
},
{
closed = 1;
nodes = (
(733,28,o),
(654,46,o),
(585,67,c),
(923,200,o),
(1138,501,o),
(1369,834,cs),
(1438,934,o),
(1512,1022,o),
(1589,1094,c),
(1621,1024,o),
(1638,938,o),
(1638,836,cs),
(1638,368,o),
(1242,28,o),
(850,28,cs)
);
}
);
width = 1623;
}
);
unicode = 394;
},
{
glyphname = Eth;
kernLeft = D;
kernRight = D;
lastChange = "2022-05-18 03:32:05 +0000";
layers = (
{
layerId = master01;
shapes = (
{
closed = 1;
nodes = (
(313,-6,o),
(431,14,o),
(537,49,c),
(663,13,o),
(745,-2,o),
(845,-2,cs),
(1287,-2,o),
(1702,350,o),
(1702,840,cs),
(1702,951,o),
(1676,1048,o),
(1628,1128,c),
(1743,1227,o),
(1865,1290,o),
(1985,1305,c,{
name = hr03;
}),
(2015,1310,o),
(2018,1312,o),
(2018,1320,cs),
(2018,1326,o),
(2012,1330,o),
(2003,1330,cs,{
name = hr04;
}),
(1877,1324,o),
(1725,1260,o),
(1594,1178,c),
(1489,1309,o),
(1313,1384,o),
(1082,1384,cs),
(631,1384,o),
(267,1078,o),
(267,780,cs),
(267,654,o),
(389,569,o),
(512,569,cs),
(855,569,o),
(1179,887,o),
(1179,1175,cs),
(1179,1192,o),
(1173,1196,o),
(1167,1196,cs),
(1161,1196,o),
(1158,1191,o),
(1156,1173,c),
(1138,903,o),
(721,597,o),
(515,597,cs),
(394,597,o),
(325,661,o),
(325,757,cs),
(325,991,o),
(691,1360,o),
(1088,1360,cs),
(1295,1360,o),
(1464,1298,o),
(1557,1154,c),
(1502,1117,o),
(1452,1077,o),
(1410,1037,cs),
(1262,899,o),
(1164,773,o),
(1049,634,cs),
(1009,585,o),
(971,541,o),
(936,500,c),
(816,500,l),
(813,492,o),
(798,474,o),
(788,466,c),
(906,466,l),
(731,267,o),
(607,156,o),
(496,95,c),
(491,97,o),
(487,97,o),
(483,99,c),
(344,140,o),
(275,154,o),
(206,154,cs),
(72,154,o),
(0,107,o),
(0,68,cs,{
name = hr01;
}),
(0,31,o),
(50,-6,o),
(180,-6,cs)
);
},
{
closed = 1;
nodes = (
(80,26,o),
(28,39,o),
(28,68,cs,{
name = hr05;
}),
(28,90,o),
(85,111,o),
(199,111,cs),
(285,111,o),
(363,96,o),
(451,73,c),
(367,36,o),
(287,26,o),
(197,26,cs)
);
},
{
closed = 1;
nodes = (
(733,28,o),
(654,46,o),
(585,67,c),
(790,148,o),
(950,291,o),
(1096,466,c),
(1361,466,l),
(1363,474,o),
(1369,492,o),
(1377,500,c),
(1124,500,l),
(1208,603,o),
(1287,716,o),
(1369,834,cs),
(1438,934,o),
(1512,1022,o),
(1589,1094,c),
(1621,1024,o),
(1638,938,o),
(1638,836,cs),
(1638,368,o),
(1242,28,o),
(850,28,cs)
);
}
);
width = 1623;
}
);
unicode = 208;
},
{
glyphname = E;
kernLeft = E;
kernRight = E;
lastChange = "2022-05-18 03:32:05 +0000";
layers = (
{
anchors = (
{
name = bottom;
pos = (188,0);
},
{
name = ogonek;
pos = (319,10);
},
{
name = top;
pos = (1264,1446);
},
{
name = topleft;
pos = (348,1388);
}
);
layerId = master01;
shapes = (
{
closed = 1;
nodes = (
(390,-285,o),
(396,-280,o),
(396,-276,cs),
(396,-271,o),
(393,-269,o),
(386,-261,cs),
(351,-222,o),
(329,-105,o),
(329,-31,cs,{
name = hr04;
}),
(329,-21,o),
(329,-11,o),
(330,-1,c),
(342,-1,o),
(353,-2,o),
(366,-2,cs),
(664,-2,o),
(898,158,o),
(898,367,cs),
(898,441,o),
(825,505,o),
(742,505,cs),
(523,505,o),
(324,267,o),
(302,27,c),
(175,47,o),
(107,123,o),
(105,230,cs,{
name = hr01;
}),
(102,436,o),
(376,687,o),
(637,716,c),
(695,654,o),
(775,617,o),
(834,617,cs,{
name = hr03;
}),
(867,617,o),
(886,626,o),
(886,649,cs),
(885,690,o),
(816,734,o),
(686,748,c),
(671,771,o),
(659,796,o),
(653,823,c),
(704,816,o),
(758,813,o),
(817,813,cs),
(1193,813,o),
(1514,977,o),
(1514,1183,cs),
(1514,1320,o),
(1388,1401,o),
(1172,1401,cs),
(894,1401,o),
(559,1199,o),
(563,887,cs),
(563,879,o),
(563,871,o),
(564,864,c),
(378,902,o),
(254,992,o),
(195,1126,cs),
(188,1143,o),
(181,1150,o),
(174,1150,cs),
(169,1150,o),
(166,1147,o),
(166,1138,cs),
(166,1134,o),
(167,1122,o),
(172,1113,c),
(229,985,o),
(361,882,o),
(569,837,c),
(577,806,o),
(590,777,o),
(608,752,c),
(602,752,ls),
(259,752,o),
(-5,521,o),
(1,262,c),
(3,126,o),
(117,21,o),
(300,1,c),
(300,-28,l),
(303,-105,o),
(321,-228,o),
(360,-271,cs),
(372,-284,o),
(378,-285,o),
(384,-285,cs)
);
},
{
closed = 1;
nodes = (
(358,22,o),
(344,23,o),
(331,24,c,{
name = hr05;
}),
(358,299,o),
(578,480,o),
(744,480,cs),
(805,480,o),
(852,449,o),
(852,394,cs),
(852,254,o),
(583,22,o),
(372,22,cs)
);
},
{
closed = 1;
nodes = (
(803,640,o),
(749,671,o),
(708,718,c),
(796,712,o),
(864,674,o),
(865,652,cs),
(865,644,o),
(859,640,o),
(849,640,cs)
);
},
{
closed = 1;
nodes = (
(746,842,o),
(696,844,o),
(649,850,c),
(649,864,ls),
(649,1067,o),
(932,1376,o),
(1208,1376,cs),
(1375,1376,o),
(1477,1304,o),
(1477,1213,cs),
(1477,983,o),
(1098,842,o),
(799,842,cs)
);
}
);
width = 993;
}
);
unicode = 69;
},
{
color = 1;
glyphname = Eturned;
lastChange = "2024-04-25 14:28:56 +0000";
layers = (
{
anchors = (
{
name = bottom;
pos = (368,0);
},
{
name = ogonek;
pos = (582,133);
},
{
name = top;
pos = (849,1446);
},
{
name = topright;
pos = (392,1388);
}
);
layerId = master01;
shapes = (
{
closed = 1;
nodes = (
(-194,-285,o),
(-187,-284,o),
(-161,-271,cs),
(-74,-228,o),
(79,-105,o),
(167,-28,c),
(199,1,l),
(403,21,o),
(633,126,o),
(785,262,c),
(1075,521,o),
(1065,752,o),
(722,752,cs),
(716,752,l),
(762,777,o),
(807,806,o),
(849,837,c),
(1106,882,o),
(1352,985,o),
(1549,1113,c),
(1564,1122,o),
(1578,1134,o),
(1583,1138,cs),
(1593,1147,o),
(1593,1150,o),
(1588,1150,cs),
(1581,1150,o),
(1566,1143,o),
(1541,1126,cs),
(1334,992,o),
(1111,902,o),
(884,864,c),
(892,871,o),
(901,879,o),
(910,887,cs),
(1257,1199,o),
(1144,1401,o),
(866,1401,cs),
(650,1401,o),
(435,1320,o),
(284,1183,cs),
(58,977,o),
(198,813,o),
(574,813,cs),
(633,813,o),
(691,816,o),
(749,823,c),
(714,796,o),
(674,771,o),
(634,748,c),
(489,734,o),
(371,690,o),
(325,649,cs),
(300,626,o),
(309,617,o),
(342,617,cs,{
name = hr03;
}),
(401,617,o),
(522,654,o),
(648,716,c),
(877,687,o),
(875,436,o),
(645,230,cs,{
name = hr01;
}),
(526,123,o),
(374,47,o),
(225,27,c),
(467,267,o),
(530,505,o),
(311,505,cs),
(228,505,o),
(84,441,o),
(3,367,cs),
(-227,158,o),
(-169,-2,o),
(129,-2,cs),
(142,-2,o),
(154,-1,o),
(166,-1,c),
(156,-11,o),
(145,-21,o),
(134,-31,cs,{
name = hr04;
}),
(53,-105,o),
(-98,-222,o),
(-176,-261,cs),
(-191,-269,o),
(-197,-271,o),
(-202,-276,cs),
(-207,-280,o),
(-206,-285,o),
(-200,-285,cs)
);
},
{
closed = 1;
nodes = (
(-61,22,o),
(-75,254,o),
(79,394,cs),
(139,449,o),
(220,480,o),
(281,480,cs),
(447,480,o),
(468,299,o),
(193,24,c,{
name = hr05;
}),
(179,23,o),
(164,22,o),
(150,22,cs)
);
},
{
closed = 1;
nodes = (
(342,640,o),
(341,644,o),
(349,652,cs),
(375,674,o),
(484,712,o),
(579,718,c),
(486,671,o),
(398,640,o),
(352,640,cs)
);
},
{
closed = 1;
nodes = (
(325,842,o),
(101,983,o),
(354,1213,cs),
(454,1304,o),
(636,1376,o),
(803,1376,cs),
(1079,1376,o),
(1022,1067,o),
(799,864,cs),
(783,850,l),
(730,844,o),
(677,842,o),
(624,842,cs)
);
}
);
width = 993;
}
);
unicode = 398;
},
{
glyphname = Schwa;
kernLeft = Schwa;
kernRight = Schwa;
lastChange = "2023-11-17 03:59:17 +0000";
layers = (
{
anchors = (
{
name = bottom;
pos = (496,15);
},
{
name = top;
pos = (1384,1406);
}
);
layerId = master01;
shapes = (
{
closed = 1;
nodes = (
(786,-1,o),
(1133,154,o),
(1434,573,cs),
(1501,666,o),
(1625,893,o),
(1625,1091,cs),
(1625,1265,o),
(1494,1387,o),
(1265,1387,cs),
(872,1387,o),
(609,1074,o),
(469,907,cs),
(434,865,o),
(417,846,o),
(403,832,c),
(429,818,l),
(438,828,o),
(452,845,o),
(479,878,cs),
(600,1027,o),
(859,1348,o),
(1242,1348,cs),
(1431,1348,o),
(1512,1240,o),
(1512,1110,cs),
(1512,1023,o),
(1514,933,o),
(1431,777,c),
(1423,773,l),
(709,632,o),
(317,374,o),
(320,124,cs),
(321,42,o),
(397,-1,o),
(531,-1,cs)
);
},
{
closed = 1;
nodes = (
(466,28,o),
(421,70,o),
(425,152,cs),
(435,381,o),
(767,609,o),
(1366,719,c),
(1384,705,l),
(1365,675,o),
(1339,639,o),
(1304,594,cs),
(985,177,o),
(719,28,o),
(546,28,cs)
);
}
);
width = 1365;
}
);
unicode = 399;
},
{
glyphname = F;
kernLeft = F;
kernRight = F;
lastChange = "2022-05-18 03:32:05 +0000";
layers = (
{
anchors = (
{
name = bottom;
pos = (996,0);
},
{
name = top;
pos = (1447,1388);
}
);
layerId = master01;
shapes = (
{
closed = 1;
nodes = (
(534,-1,o),
(769,153,o),
(1081,662,cs),
(1085,669,l),
(1173,688,o),
(1263,707,o),
(1316,724,c),
(1283,673,o),
(1259,621,o),
(1229,541,cs),
(1223,523,o),
(1221,516,o),
(1221,511,cs),
(1221,500,o),
(1226,497,o),
(1233,497,cs),
(1240,497,o),
(1243,500,o),
(1250,513,c),
(1299,641,o),
(1419,758,o),
(1511,801,c),
(1486,809,o),
(1383,816,o),
(1359,816,c),
(1349,795,o),
(1337,784,o),
(1325,776,c),
(1276,759,o),
(1196,736,o),
(1114,715,c),
(1282,971,o),
(1475,1149,o),
(1631,1194,cs),
(1666,1204,o),
(1673,1204,o),
(1673,1210,cs),
(1673,1216,o),
(1666,1219,o),
(1650,1219,cs),
(1512,1219,o),
(1200,1057,o),
(957,677,c),
(955,676,o),
(954,676,o),
(952,676,cs),
(647,613,o),
(412,472,o),
(360,353,c),
(354,345,o),
(353,339,o),
(353,336,cs),
(353,329,o),
(356,328,o),
(360,328,cs),
(366,328,o),
(370,332,o),
(379,348,cs),
(439,451,o),
(610,564,o),
(932,636,c),
(930,633,o),
(928,631,o),
(927,628,cs),
(624,115,o),
(418,26,o),
(240,26,cs),
(129,26,o),
(40,72,o),
(40,137,cs),
(40,142,l),
(53,134,o),
(70,132,o),
(87,132,cs),
(117,132,o),
(144,156,o),
(144,182,cs),
(144,214,o),
(115,228,o),
(93,228,cs),
(52,228,o),
(0,204,o),
(0,145,cs),
(0,65,o),
(116,-1,o),
(232,-1,cs)
);
},
{
closed = 1;
nodes = (
(875,814,o),
(1107,1011,o),
(1107,1210,cs),
(1107,1223,o),
(1104,1231,o),
(1097,1231,cs),
(1091,1231,o),
(1091,1224,o),
(1088,1210,c),
(1071,1074,o),
(833,852,o),
(647,852,cs),
(573,852,o),
(541,895,o),
(541,961,cs),
(541,1138,o),
(855,1337,o),
(1160,1337,cs),
(1343,1337,o),
(1530,1290,o),
(1714,1290,cs),
(1966,1290,o),
(2129,1390,o),
(2228,1547,c),
(2237,1557,o),
(2237,1562,o),
(2237,1567,cs),
(2237,1571,o),
(2234,1574,o),
(2228,1574,cs),
(2223,1574,o),
(2217,1573,o),
(2206,1557,c),
(2145,1453,o),
(2029,1379,o),
(1839,1379,cs),
(1701,1379,o),
(1550,1414,o),
(1406,1414,cs),
(1284,1414,o),
(1162,1409,o),
(1045,1382,c),
(720,1304,o),
(512,1119,o),
(512,951,cs),
(512,863,o),
(577,814,o),
(679,814,cs,{
name = hr00;
})
);
}
);
width = 1253;
}
);
unicode = 70;
},
{
glyphname = G;
kernLeft = G;
kernRight = G;
lastChange = "2022-05-18 03:32:05 +0000";
layers = (
{
anchors = (
{
name = bottom;
pos = (242,-3);
},
{
name = top;
pos = (1378,1446);
}
);
layerId = master01;
shapes = (
{
closed = 1;
nodes = (
(534,-3,o),
(794,182,o),
(1028,548,cs),
(1190,800,o),
(1276,898,o),
(1350,933,cs),
(1365,940,o),
(1367,944,o),
(1367,950,cs),
(1367,956,o),
(1354,961,o),
(1343,961,cs),
(1323,961,o),
(1260,923,o),
(1190,868,cs),
(891,637,o),
(724,555,o),
(604,555,cs),
(542,555,o),
(524,583,o),
(524,608,cs),
(524,635,o),
(535,671,o),
(556,712,c),
(664,732,o),
(772,767,o),
(873,812,c),
(1242,984,o),
(1497,1198,o),
(1497,1353,cs),
(1497,1412,o),
(1463,1440,o),
(1376,1440,cs),
(1056,1440,o),
(526,1040,o),
(451,718,c),
(429,716,o),
(408,715,o),
(388,715,cs),
(287,715,o),
(230,732,o),
(162,768,cs),
(154,773,o),
(152,774,o),
(149,774,cs),
(142,774,o),
(138,768,o),
(138,764,cs),
(138,757,o),
(144,754,o),
(165,743,cs),
(213,716,o),
(287,695,o),
(373,695,cs),
(397,695,o),
(422,696,o),
(447,698,c),
(444,680,o),
(442,662,o),
(442,645,cs),
(442,553,o),
(499,529,o),
(589,529,cs),
(696,529,o),
(836,582,o),
(1053,736,c),
(979,656,o),
(877,538,o),
(820,462,cs),
(572,131,o),
(413,23,o),
(250,23,cs),
(121,23,o),
(40,70,o),
(40,133,cs),
(40,139,l),
(53,131,o),
(70,130,o),
(87,130,cs),
(117,130,o),
(144,153,o),
(144,179,cs),
(144,212,o),
(115,225,o),
(93,225,cs),
(52,225,o),
(0,202,o),
(0,141,cs),
(0,62,o),
(111,-3,o),
(242,-3,cs,{
name = hr00;
})
);
},
{
closed = 1;
nodes = (
(712,993,o),
(1146,1417,o),
(1395,1417,cs),
(1441,1417,o),
(1473,1400,o),
(1473,1363,cs),
(1473,1282,o),
(1226,1042,o),
(885,862,c),
(768,803,o),
(665,762,o),
(570,739,c)
);
}
);
width = 1079;
}
);
unicode = 71;
},
{
glyphname = H;
kernLeft = H;
kernRight = H;
lastChange = "2022-05-18 03:32:05 +0000";
layers = (
{
anchors = (
{
name = bottom;
pos = (821,0);
},
{
name = center;
pos = (1314,694);
},
{
name = top;
pos = (1974,1446);
},
{
name = topleft;
pos = (348,1388);
}
);
layerId = master01;
shapes = (
{
closed = 1;
nodes = (
(271,-2,o),
(371,18,o),
(461,70,c),
(619,159,o),
(782,318,o),
(989,568,c),
(1119,601,o),
(1258,633,o),
(1379,667,c),
(1184,419,o),
(1126,254,o),
(1126,127,cs),
(1126,65,o),
(1171,-2,o),
(1255,-2,cs),
(1491,-2,o),
(1729,336,o),
(1714,481,cs),
(1712,499,o),
(1707,510,o),
(1703,510,cs),
(1697,510,o),
(1684,498,o),
(1679,480,cs),
(1596,205,o),
(1410,23,o),
(1263,23,cs),
(1202,23,o),
(1179,50,o),
(1179,115,cs),
(1179,209,o),
(1345,462,o),
(1555,718,c),
(2082,892,o),
(2423,1206,o),
(2423,1339,cs,{
name = hr03;
}),
(2423,1379,o),
(2392,1410,o),
(2333,1410,cs),
(2169,1410,o),
(1752,1108,o),
(1455,759,cs),
(1437,738,o),
(1420,718,o),
(1404,698,c),
(1251,661,o),
(1123,630,o),
(1017,602,c),
(1052,646,o),
(1089,692,o),
(1127,741,c),
(1326,1020,o),
(1476,1220,o),
(1610,1330,c),
(1657,1365,o),
(1672,1373,o),
(1683,1379,cs),
(1699,1389,o),
(1704,1392,o),
(1704,1394,cs),
(1704,1398,o),
(1695,1401,o),
(1690,1401,cs),
(1684,1401,o),
(1672,1395,o),
(1654,1387,c),
(1582,1350,o),
(1503,1288,o),
(1319,1124,c),
(1192,1013,o),
(1054,947,o),
(970,947,cs),
(899,947,o),
(876,977,o),
(876,996,cs),
(876,1015,o),
(883,1024,o),
(926,1051,cs),
(1047,1129,o),
(1080,1198,o),
(1080,1273,cs),
(1080,1343,o),
(1016,1387,o),
(905,1387,cs,{
name = hr04;
}),
(793,1387,o),
(680,1344,o),
(605,1278,c),
(595,1267,o),
(587,1260,o),
(587,1253,cs,{
name = hr05;
}),
(587,1246,o),
(592,1243,o),
(598,1243,cs),
(604,1243,o),
(611,1246,o),
(623,1257,cs),
(701,1329,o),
(806,1366,o),
(905,1366,cs,{
name = hr06;
}),
(995,1366,o),
(1036,1338,o),
(1036,1298,cs),
(1036,1284,o),
(1028,1272,o),
(977,1231,cs),
(867,1145,o),
(839,1085,o),
(839,1019,cs),
(839,953,o),
(889,920,o),
(957,920,cs),
(1022,920,o),
(1107,946,o),
(1241,1029,c),
(1158,944,o),
(1008,778,o),
(844,555,c),
(711,517,o),
(623,485,o),
(563,454,cs),
(484,413,o),
(361,336,o),
(329,269,cs),
(322,256,o),
(323,253,o),
(322,249,cs),
(321,244,o),
(323,241,o),
(327,241,cs),
(330,241,o),
(335,244,o),
(338,250,c),
(411,361,o),
(566,439,o),
(712,490,cs),
(745,501,o),
(781,512,o),
(819,523,c),
(582,226,o),
(462,117,o),
(359,68,cs,{
name = hr01;
}),
(304,41,o),
(254,24,o),
(198,24,cs),
(100,24,o),
(39,66,o),
(39,124,cs),
(39,130,l),
(52,122,o),
(69,121,o),
(86,121,cs),
(116,121,o),
(143,144,o),
(143,170,cs),
(143,203,o),
(115,215,o),
(93,215,cs),
(52,215,o),
(0,193,o),
(0,132,cs),
(0,58,o),
(85,-2,o),
(190,-2,cs)
);
},
{
closed = 1;
nodes = (
(1854,1074,o),
(2186,1389,o),
(2340,1389,cs),
(2372,1389,o),
(2388,1378,o),
(2388,1355,cs),
(2388,1248,o),
(2035,924,o),
(1585,753,c,{
name = hr07;
})
);
}
);
width = 1746;
}
);
unicode = 72;
},
{
glyphname = Hbar;
kernLeft = H;
kernRight = H;
lastChange = "2022-05-18 03:32:05 +0000";
layers = (
{
anchors = (
{
name = bottom;
pos = (821,0);
},
{
name = center;
pos = (1314,694);
},
{
name = top;
pos = (1974,1446);
},
{
name = topleft;
pos = (348,1388);
}
);
layerId = master01;
shapes = (
{
closed = 1;
nodes = (
(271,-2,o),
(371,18,o),
(461,70,c),
(619,159,o),
(782,318,o),
(1035,644,c),
(1165,677,o),
(1258,688,o),
(1425,743,c),
(1184,419,o),
(1126,254,o),
(1126,127,cs),
(1126,65,o),
(1171,-2,o),
(1255,-2,cs),
(1491,-2,o),
(1729,336,o),
(1714,481,cs),
(1712,499,o),
(1707,510,o),
(1703,510,cs),
(1697,510,o),
(1684,498,o),
(1679,480,cs),
(1596,205,o),
(1410,23,o),
(1263,23,cs),
(1202,23,o),
(1179,50,o),
(1179,115,cs),
(1179,209,o),
(1345,462,o),
(1601,794,c),
(2082,892,o),
(2423,1206,o),
(2423,1339,cs,{
name = hr03;
}),
(2423,1379,o),
(2392,1410,o),
(2333,1410,cs),
(2169,1410,o),
(1752,1108,o),
(1502,834,cs),
(1483,814,o),
(1466,794,o),
(1450,774,c),
(1275,714,o),
(1169,706,o),
(1063,678,c),
(1098,722,o),
(1135,768,o),
(1173,817,c),
(1326,1020,o),
(1476,1220,o),
(1610,1330,c),
(1657,1365,o),
(1672,1373,o),
(1683,1379,cs),
(1699,1389,o),
(1704,1392,o),
(1704,1394,cs),
(1704,1398,o),
(1695,1401,o),
(1690,1401,cs),
(1684,1401,o),
(1672,1395,o),
(1654,1387,c),
(1582,1350,o),
(1503,1288,o),
(1319,1124,c),
(1192,1013,o),
(1054,947,o),
(970,947,cs),
(899,947,o),
(876,977,o),
(876,996,cs),
(876,1015,o),
(883,1024,o),
(926,1051,cs),
(1047,1129,o),
(1080,1198,o),
(1080,1273,cs),
(1080,1343,o),
(1016,1387,o),
(905,1387,cs,{
name = hr04;
}),
(793,1387,o),
(680,1344,o),
(605,1278,c),
(595,1267,o),
(587,1260,o),
(587,1253,cs,{
name = hr05;
}),
(587,1246,o),
(592,1243,o),
(598,1243,cs),
(604,1243,o),
(611,1246,o),
(623,1257,cs),
(701,1329,o),
(806,1366,o),
(905,1366,cs,{
name = hr06;
}),
(995,1366,o),
(1036,1338,o),
(1036,1298,cs),
(1036,1284,o),
(1028,1272,o),
(977,1231,cs),
(867,1145,o),
(839,1085,o),
(839,1019,cs),
(839,953,o),
(889,920,o),
(957,920,cs),
(1022,920,o),
(1107,946,o),
(1241,1029,c),
(1158,944,o),
(1054,854,o),
(890,631,c),
(757,593,o),
(669,561,o),
(609,530,cs),
(530,489,o),
(407,412,o),
(374,345,cs),
(368,332,o),
(369,329,o),
(368,325,cs),
(367,320,o),
(369,317,o),
(373,317,cs),
(376,317,o),
(381,320,o),
(384,326,c),
(457,437,o),
(612,515,o),
(758,566,cs),
(791,577,o),
(827,588,o),
(865,599,c),
(582,226,o),
(462,117,o),
(359,68,cs,{
name = hr01;
}),
(304,41,o),
(254,24,o),
(198,24,cs),
(100,24,o),
(39,66,o),
(39,124,cs),
(39,130,l),
(52,122,o),
(69,121,o),
(86,121,cs),
(116,121,o),
(143,144,o),
(143,170,cs),
(143,203,o),
(115,215,o),
(93,215,cs),
(52,215,o),
(0,193,o),
(0,132,cs),
(0,58,o),
(85,-2,o),
(190,-2,cs)
);
},
{
closed = 1;
nodes = (
(1902,689,l),
(1904,707,o),
(1917,710,o),
(1923,724,c),
(616,396,l),
(612,381,o),
(604,380,o),
(593,364,c)
);
},
{
closed = 1;
nodes = (
(1854,1074,o),
(2186,1389,o),
(2340,1389,cs),
(2372,1389,o),
(2388,1378,o),
(2388,1355,cs),
(2388,1248,o),
(2035,924,o),
(1631,829,c,{
name = hr07;
})
);
}
);
width = 1746;
}
);
metricLeft = H;
metricRight = H;
unicode = 294;
},
{
glyphname = I;
kernLeft = I;
kernRight = I;
lastChange = "2024-04-11 14:05:39 +0000";
layers = (
{
anchors = (
{
name = bottom;
pos = (208,10);
},
{
name = ogonek;
pos = (342,28);
},
{
name = top;
pos = (1636,1446);
},
{
name = topleft;
pos = (348,1388);
}
);
layerId = master01;
shapes = (
{
closed = 1;
nodes = (
(406,-2,o),
(636,127,o),
(851,337,c),
(874,337,ls),
(1196,337,o),
(1578,634,o),
(1578,1017,cs),
(1578,1048,o),
(1577,1066,o),
(1566,1066,cs),
(1562,1066,o),
(1555,1067,o),
(1555,1036,cs),
(1555,663,o),
(1168,365,o),
(886,365,cs),
(878,365,l),
(967,455,o),
(1052,559,o),
(1131,673,cs),
(1368,1017,o),
(1579,1229,o),
(1784,1320,c,{
name = hr03;
}),
(1814,1332,o),
(1839,1342,o),
(1878,1351,c),
(1912,1351,o),
(1950,1349,o),
(2001,1352,cs),
(2026,1353,o),
(2034,1362,o),
(2034,1371,cs),
(2034,1379,o),
(2023,1385,o),
(1997,1385,cs),
(1961,1385,o),
(1928,1378,o),
(1895,1378,cs),
(1866,1378,o),
(1838,1383,o),
(1807,1385,c),
(1779,1389,o),
(1751,1392,o),
(1720,1392,cs),
(1113,1392,o),
(606,984,o),
(606,608,cs),
(606,471,o),
(664,398,o),
(739,363,c),
(524,106,o),
(379,24,o),
(225,24,cs),
(114,24,o),
(42,75,o),
(42,139,cs),
(42,145,l),
(55,138,o),
(72,137,o),
(89,140,cs),
(119,145,o),
(143,169,o),
(140,194,cs),
(136,227,o),
(107,237,o),
(85,235,cs),
(44,231,o),
(-5,203,o),
(1,142,cs),
(9,64,o),
(88,-2,o),
(227,-2,cs,{
name = hr01;
})
);
},
{
closed = 1;
nodes = (
(696,410,o),
(654,465,o),
(654,583,cs),
(654,899,o),
(1309,1366,o),
(1722,1366,cs),
(1749,1366,o),
(1793,1363,o),
(1827,1358,c),
(1606,1316,o),
(1298,1117,o),
(916,592,cs),
(859,513,o),
(806,444,o),
(757,384,c)
);
}
);
width = 1333;
}
);
unicode = 73;
},
{
glyphname = IJ;
kernLeft = I;
kernRight = J;
lastChange = "2022-05-18 03:32:05 +0000";
layers = (
{
layerId = master01;
shapes = (
{
closed = 1;
nodes = (
(958,-741,o),
(1236,-557,o),
(1724,49,c),
(1997,124,o),
(2044,145,o),
(2166,196,cs),
(2193,207,o),
(2199,215,o),
(2200,223,cs),
(2200,228,o),
(2191,231,o),
(2191,231,c),
(2186,231,o),
(2178,225,o),
(2150,213,c),
(1979,147,o),
(1953,144,o),
(1758,92,c),
(1813,160,o),
(1870,234,o),
(1929,313,c),
(1939,313,ls),
(2275,313,o),
(2641,692,o),
(2641,1020,cs),
(2641,1044,o),
(2640,1066,o),
(2630,1066,cs),
(2626,1066,o),
(2619,1059,o),
(2619,1035,cs),
(2619,750,o),
(2228,340,o),
(1950,340,c),
(2023,438,o),
(2101,543,o),
(2184,658,c),
(2448,1060,o),
(2712,1304,o),
(2941,1360,c),
(2960,1360,o),
(2982,1359,o),
(3006,1359,cs),
(3042,1359,o),
(3098,1359,o),
(3098,1381,cs),
(3098,1389,o),
(3088,1394,o),
(3060,1394,cs),
(3024,1394,o),
(2991,1387,o),
(2958,1387,cs),
(2904,1387,o),
(2840,1401,o),
(2774,1401,cs),
(2204,1401,o),
(1663,1009,o),
(1663,581,cs),
(1663,473,o),
(1723,391,o),
(1804,347,c),
(1731,245,o),
(1657,143,o),
(1583,46,c),
(1045,-102,o),
(639,-422,o),
(639,-649,cs,{
name = hr00;
}),
(639,-691,o),
(666,-741,o),
(731,-741,cs)
);
},
{
closed = 1;
nodes = (
(697,-716,o),
(671,-690,o),
(671,-656,cs),
(671,-494,o),
(1185,-125,o),
(1549,1,c),
(1243,-398,o),
(945,-716,o),
(734,-716,cs)
);
},
{
closed = 1;
nodes = (
(406,-2,o),
(636,127,o),
(851,337,c),
(874,337,ls),
(1196,337,o),
(1578,634,o),
(1578,1017,cs),
(1578,1048,o),
(1577,1066,o),
(1566,1066,cs),
(1562,1066,o),
(1555,1067,o),
(1555,1036,cs),
(1555,663,o),
(1168,365,o),
(886,365,cs),
(878,365,l),
(967,455,o),
(1052,559,o),
(1131,673,cs),
(1368,1017,o),
(1579,1229,o),
(1784,1320,c),
(1814,1332,o),
(1839,1342,o),
(1878,1351,c),
(1912,1351,o),
(1950,1349,o),
(2001,1352,cs),
(2026,1353,o),
(2034,1362,o),
(2034,1371,cs),
(2034,1379,o),
(2023,1385,o),
(1997,1385,cs),
(1961,1385,o),
(1928,1378,o),
(1895,1378,cs),
(1866,1378,o),
(1838,1383,o),
(1807,1385,c),
(1779,1389,o),
(1751,1392,o),
(1720,1392,cs),
(1113,1392,o),
(606,984,o),
(606,608,cs),
(606,471,o),
(664,398,o),
(739,363,c),
(524,106,o),
(379,24,o),
(225,24,cs),
(114,24,o),
(48,75,o),
(42,139,cs),
(42,145,l),
(55,138,o),
(72,138,o),
(89,140,c),
(119,142,o),
(144,169,o),
(140,194,c),
(137,227,o),
(107,237,o),
(85,235,cs),
(44,231,o),
(-5,203,o),
(1,142,cs),
(9,64,o),
(88,-2,o),
(227,-2,cs)
);
},
{
closed = 1;
nodes = (
(696,410,o),
(654,465,o),
(654,583,cs),
(654,899,o),
(1309,1366,o),
(1722,1366,cs),
(1749,1366,o),
(1793,1363,o),
(1827,1358,c),
(1606,1316,o),
(1298,1117,o),
(916,592,cs),
(859,513,o),
(806,444,o),
(757,384,c)
);
},
{
closed = 1;
nodes = (
(1760,409,o),
(1718,473,o),
(1718,565,cs),
(1718,910,o),
(2376,1375,o),
(2786,1375,cs),
(2812,1375,o),
(2856,1372,o),
(2891,1367,c),
(2683,1320,o),
(2316,1078,o),
(1943,545,cs),
(1822,373,l)
);
}
);
width = 2383;
}
);
metricLeft = I;
metricRight = J;
unicode = 306;
},
{
glyphname = J;
kernLeft = J;
kernRight = J;
lastChange = "2022-05-18 03:32:05 +0000";
layers = (
{
anchors = (
{
name = bottom;
pos = (584,0);
},
{
name = top;
pos = (1505,1446);
}
);
layerId = master01;
shapes = (
{
closed = 1;
nodes = (
(-203,-741,o),
(74,-557,o),
(562,49,c),
(835,124,o),
(882,145,o),
(1004,196,cs),
(1031,207,o),
(1037,215,o),
(1038,223,cs),
(1038,228,o),
(1029,231,o),
(1029,231,c),
(1024,231,o),
(1016,225,o),
(988,213,c),
(817,147,o),
(791,144,o),
(596,92,c),
(651,160,o),
(708,234,o),
(767,313,c),
(777,313,ls),
(1113,313,o),
(1479,692,o),
(1479,1020,cs),
(1479,1044,o),
(1478,1066,o),
(1468,1066,cs,{
name = hr03;
}),
(1464,1066,o),
(1457,1059,o),
(1457,1035,cs),
(1457,750,o),
(1066,340,o),
(788,340,c),
(861,438,o),
(939,543,o),
(1022,658,c),
(1286,1060,o),
(1550,1304,o),
(1779,1360,c),
(1798,1360,o),
(1820,1359,o),
(1844,1359,cs,{
name = hr04;
}),
(1880,1359,o),
(1936,1359,o),
(1936,1381,cs),
(1936,1389,o),
(1926,1394,o),
(1898,1394,cs),
(1862,1394,o),
(1829,1387,o),
(1796,1387,cs),
(1742,1387,o),
(1678,1401,o),
(1612,1401,cs),
(1042,1401,o),
(501,1009,o),
(501,581,cs),
(501,473,o),
(561,391,o),
(642,347,c),
(569,245,o),
(495,143,o),
(421,46,c,{
name = hr01;
}),
(-116,-102,o),
(-523,-422,o),
(-523,-649,cs),
(-523,-691,o),
(-496,-741,o),
(-431,-741,cs)
);
},
{
closed = 1;
nodes = (
(-465,-716,o),
(-491,-690,o),
(-491,-656,cs),
(-491,-494,o),
(24,-125,o),
(387,1,c),
(82,-398,o),
(-217,-716,o),
(-428,-716,cs)
);
},
{
closed = 1;
nodes = (
(598,409,o),
(556,473,o),
(556,565,cs),
(556,910,o),
(1214,1375,o),
(1624,1375,cs),
(1650,1375,o),
(1694,1372,o),
(1729,1367,c),
(1521,1320,o),
(1155,1077,o),
(781,545,cs),
(660,373,l)
);
}
);
width = 1221;
}
);
unicode = 74;
},
{
glyphname = K;
kernLeft = K;
kernRight = K;
lastChange = "2022-05-18 03:32:05 +0000";
layers = (
{
anchors = (
{
name = bottom;
pos = (730,0);
},
{
name = top;
pos = (2086,1446);
}
);
layerId = master01;
shapes = (
{
closed = 1;
nodes = (
(432,-2,o),
(762,192,o),
(1107,651,c),
(1574,1277,o),
(1771,1402,o),
(1857,1426,cs),
(1863,1428,o),
(1867,1433,o),
(1867,1438,cs),
(1867,1444,o),
(1861,1446,o),
(1853,1446,cs),
(1822,1446,o),
(1745,1411,o),
(1551,1255,c),
(1369,1101,o),
(1210,1011,o),
(1063,1011,cs),
(1031,1011,o),
(1008,1025,o),
(1008,1043,cs),
(1008,1065,o),
(1031,1075,o),
(1068,1099,cs),
(1175,1166,o),
(1216,1243,o),
(1216,1311,cs,{
name = hr03;
}),
(1216,1368,o),
(1149,1411,o),
(1057,1411,cs),
(739,1411,o),
(579,1110,o),
(549,996,cs),
(547,990,o),
(547,987,o),
(547,980,cs),
(547,968,o),
(552,962,o),
(558,962,cs),
(564,962,o),
(566,969,o),
(572,988,c),
(606,1142,o),
(798,1383,o),
(1050,1383,cs),
(1117,1383,o),
(1159,1365,o),
(1159,1321,cs),
(1159,1305,o),
(1145,1290,o),
(1112,1267,cs),
(1012,1195,o),
(963,1130,o),
(963,1064,cs),
(963,1010,o),
(1004,983,o),
(1063,983,cs),
(1169,983,o),
(1277,1031,o),
(1403,1115,c),
(1178,907,o),
(974,711,o),
(863,560,cs),
(562,152,o),
(350,24,o),
(198,24,cs),
(100,24,o),
(39,66,o),
(39,124,cs),
(39,130,l),
(52,122,o),
(69,121,o),
(86,121,cs),
(116,121,o),
(143,144,o),
(143,170,cs),
(143,203,o),
(114,215,o),
(93,215,cs),
(52,215,o),
(0,193,o),
(0,132,cs),
(0,58,o),
(74,-2,o),
(199,-2,cs,{
name = hr01;
})
);
},
{
closed = 1;
nodes = (
(1291,710,o),
(1270,724,o),
(1270,736,cs),
(1270,744,o),
(1295,759,o),
(1325,760,cs),
(1362,762,o),
(1404,752,o),
(1428,729,c),
(1400,718,o),
(1373,713,o),
(1345,712,cs)
);
},
{
closed = 1;
nodes = (
(1414,-14,o),
(1704,293,o),
(1704,483,cs),
(1704,505,o),
(1698,521,o),
(1692,521,cs),
(1688,521,o),
(1683,510,o),
(1678,490,cs),
(1605,201,o),
(1356,14,o),
(1230,14,cs),
(1156,14,o),
(1134,32,o),
(1134,67,cs),
(1134,91,o),
(1150,123,o),
(1227,193,cs),
(1454,397,o),
(1495,526,o),
(1495,638,cs),
(1495,669,o),
(1488,694,o),
(1477,715,c),
(1639,774,o),
(1819,912,o),
(2011,1102,c),
(2254,1330,o),
(2349,1389,o),
(2438,1389,cs),
(2551,1389,o),
(2583,1330,o),
(2575,1295,cs),
(2571,1277,l),
(2560,1287,o),
(2545,1292,o),
(2527,1292,cs),
(2494,1292,o),
(2463,1265,o),
(2459,1239,cs),
(2454,1211,o),
(2469,1181,o),
(2509,1181,cs),
(2550,1181,o),
(2596,1219,o),
(2607,1281,cs),
(2620,1355,o),
(2567,1412,o),
(2438,1412,cs),
(2289,1412,o),
(2001,1280,o),
(1730,983,c),
(1621,860,o),
(1537,781,o),
(1457,741,c),
(1426,772,o),
(1378,783,o),
(1323,782,cs),
(1256,780,o),
(1221,757,o),
(1221,735,cs),
(1221,709,o),
(1265,681,o),
(1331,684,cs),
(1367,685,o),
(1405,692,o),
(1444,704,c),
(1446,698,o),
(1447,692,o),
(1447,685,cs),
(1447,654,o),
(1427,589,o),
(1377,540,cs),
(1130,298,o),
(1081,174,o),
(1081,90,cs),
(1081,22,o),
(1126,-14,o),
(1217,-14,cs,{
name = hr05;
})
);
}
);
width = 1726;
}
);
unicode = 75;
},
{
color = 0;
glyphname = Khook;
kernLeft = K;
kernRight = K;
lastChange = "2023-10-28 18:45:58 +0000";
layers = (
{
anchors = (
{
name = bottom;
pos = (730,0);
},
{
name = top;
pos = (2086,1446);
}
);
layerId = master01;
shapes = (
{
closed = 1;
nodes = (
(432,-2,o),
(762,192,o),
(1107,651,c),
(1574,1277,o),
(1771,1402,o),
(1857,1426,cs),
(1863,1428,o),
(1867,1433,o),
(1867,1438,cs),
(1867,1444,o),
(1861,1446,o),
(1853,1446,cs),
(1822,1446,o),
(1745,1411,o),
(1551,1255,c),
(1369,1101,o),
(1210,1011,o),
(1063,1011,cs),
(1031,1011,o),
(1008,1025,o),
(1008,1043,cs),
(1008,1065,o),
(1031,1075,o),
(1068,1099,cs),
(1175,1166,o),
(1216,1243,o),
(1216,1311,cs,{
name = hr03;
}),
(1216,1368,o),
(1149,1411,o),
(1057,1411,cs),
(739,1411,o),
(579,1110,o),
(549,996,cs),
(547,990,o),
(547,987,o),
(547,980,cs),
(547,968,o),
(552,962,o),
(558,962,cs),
(564,962,o),
(566,969,o),
(572,988,c),
(606,1142,o),
(798,1383,o),
(1050,1383,cs),
(1117,1383,o),
(1159,1365,o),
(1159,1321,cs),
(1159,1305,o),
(1145,1290,o),
(1112,1267,cs),
(1012,1195,o),
(963,1130,o),
(963,1064,cs),
(963,1010,o),
(1004,983,o),
(1063,983,cs),
(1169,983,o),
(1277,1031,o),
(1403,1115,c),
(1178,907,o),
(974,711,o),
(863,560,cs),
(562,152,o),
(350,24,o),
(198,24,cs),
(100,24,o),
(39,66,o),
(39,124,cs),
(39,130,l),
(52,122,o),
(69,121,o),
(86,121,cs),
(116,121,o),
(143,144,o),
(143,170,cs),
(143,203,o),
(114,215,o),
(93,215,cs),
(52,215,o),
(0,193,o),
(0,132,cs),
(0,58,o),
(74,-2,o),
(199,-2,cs,{
name = hr01;
})
);
},
{
closed = 1;
nodes = (
(1291,710,o),
(1270,724,o),
(1270,736,cs),
(1270,744,o),
(1295,759,o),
(1325,760,cs),
(1362,762,o),
(1404,752,o),
(1428,729,c),
(1400,718,o),
(1373,713,o),
(1345,712,cs)
);
},
{
closed = 1;
nodes = (
(1414,-14,o),
(1704,293,o),
(1704,483,cs),
(1704,505,o),
(1698,521,o),
(1692,521,cs),
(1688,521,o),
(1683,510,o),
(1678,490,cs),
(1605,201,o),
(1356,14,o),
(1230,14,cs),
(1156,14,o),
(1134,32,o),
(1134,67,cs),
(1134,91,o),
(1150,123,o),
(1227,193,cs),
(1454,397,o),
(1495,526,o),
(1495,638,cs),
(1495,669,o),
(1488,694,o),
(1477,715,c),
(1639,774,o),
(1819,912,o),
(2011,1102,c),
(2254,1330,o),
(2250,1389,o),
(2398,1389,cs),
(2511,1389,o),
(2586,1296,o),
(2556,1181,cs),
(2523,1057,o),
(2479,1055,o),
(2449,1040,c),
(2436,1052,o),
(2419,1058,o),
(2399,1058,cs),
(2361,1058,o),
(2325,1027,o),
(2320,997,cs),
(2315,964,o),
(2342,930,o),
(2388,930,cs),
(2535,930,o),
(2579,1092,o),
(2593,1160,cs),
(2633,1354,o),
(2495,1413,o),
(2398,1412,cs),
(2190,1410,o),
(2001,1280,o),
(1730,983,c),
(1621,860,o),
(1537,781,o),
(1457,741,c),
(1426,772,o),
(1378,783,o),
(1323,782,cs),
(1256,780,o),
(1221,757,o),
(1221,735,cs),
(1221,709,o),
(1265,681,o),
(1331,684,cs),
(1367,685,o),
(1405,692,o),
(1444,704,c),
(1446,698,o),
(1447,692,o),
(1447,685,cs),
(1447,654,o),
(1427,589,o),
(1377,540,cs),
(1130,298,o),
(1081,174,o),
(1081,90,cs),
(1081,22,o),
(1126,-14,o),
(1217,-14,cs,{
name = hr05;
})
);
}
);
width = 1726;
}
);
unicode = 408;
},
{
glyphname = L;
kernLeft = L;
kernRight = L;
lastChange = "2024-04-11 14:31:47 +0000";
layers = (
{
anchors = (
{
name = bottom;
pos = (608,0);
},
{
name = center;
pos = (1152,694);
},
{
name = top;
pos = (1856,1446);
},
{
name = topright;
pos = (2268,1017);
}
);
layerId = master01;
shapes = (
{
closed = 1;
nodes = (
(1156,-25,o),
(1270,-2,o),
(1378,95,cs),
(1389,105,o),
(1398,121,o),
(1394,131,cs),
(1391,137,o),
(1382,135,o),
(1374,127,cs),
(1354,106,o),
(1270,24,o),
(1047,24,cs),
(866,24,o),
(727,48,o),
(612,89,c),
(764,169,o),
(903,301,o),
(1049,496,c),
(1502,566,o),
(2099,999,o),
(2099,1280,cs),
(2099,1353,o),
(2031,1401,o),
(1933,1401,cs),
(1646,1401,o),
(1389,1210,o),
(1056,712,cs),
(1007,639,o),
(962,574,o),
(920,515,c),
(673,518,o),
(515,608,o),
(515,814,cs),
(515,946,o),
(616,1101,o),
(823,1121,cs),
(855,1124,o),
(855,1126,o),
(855,1133,cs),
(855,1137,o),
(855,1145,o),
(833,1145,cs),
(627,1145,o),
(440,961,o),
(440,790,cs),
(440,617,o),
(623,495,o),
(899,486,c),
(759,295,o),
(653,179,o),
(551,112,c),
(424,157,o),
(324,182,o),
(224,182,cs),
(90,182,o),
(0,142,o),
(0,80,cs),
(0,40,o),
(69,-2,o),
(220,-2,cs,{
name = hr01;
}),
(347,-2,o),
(460,20,o),
(566,67,c),
(700,28,o),
(903,-25,o),
(1040,-25,cs,{
name = hr03;
})
);
},
{
closed = 1;
nodes = (
(95,22,o),
(28,59,o),
(28,81,cs),
(28,111,o),
(98,131,o),
(232,131,cs),
(312,131,o),
(416,110,o),
(506,85,c),
(413,35,o),
(321,22,o),
(206,22,cs)
);
},
{
closed = 1;
nodes = (
(1147,629,o),
(1224,746,o),
(1306,880,cs),
(1502,1199,o),
(1712,1378,o),
(1927,1378,cs),
(1987,1378,o),
(2032,1333,o),
(2032,1286,cs),
(2032,1017,o),
(1513,606,o),
(1073,528,c)
);
}
);
width = 1537;
}
);
unicode = 76;
},
{
glyphname = Lslash;
kernLeft = L;
kernRight = L;
lastChange = "2022-05-18 03:32:05 +0000";
layers = (
{
background = {
shapes = (
{
closed = 1;
nodes = (
(1156,-25,o),
(1270,-2,o),
(1378,95,cs),
(1389,105,o),
(1398,121,o),
(1394,131,cs),
(1391,137,o),
(1382,135,o),
(1374,127,cs),
(1354,106,o),
(1270,24,o),
(1047,24,cs),
(866,24,o),
(727,48,o),
(612,89,c),
(768,170,o),
(909,308,o),
(1059,510,c),
(1399,594,l),
(1401,612,o),
(1414,621,o),
(1420,635,c),
(1090,552,l),
(1134,612,o),
(1178,678,o),
(1224,749,c),
(1647,803,o),
(2099,1053,o),
(2099,1280,cs),
(2099,1353,o),
(2031,1401,o),
(1933,1401,cs),
(1657,1401,o),
(1408,1224,o),
(1093,767,c),
(1068,767,ls),
(814,767,o),
(649,857,o),
(649,1066,cs),
(649,1198,o),
(751,1353,o),
(957,1373,c),
(989,1373,o),
(989,1373,o),
(989,1385,c),
(967,1396,l),
(761,1396,o),
(574,1213,o),
(574,1042,cs),
(574,863,o),
(771,738,o),
(1064,738,cs),
(1073,738,l),
(1067,729,o),
(1062,720,o),
(1056,712,cs),
(1005,635,o),
(958,568,o),
(914,507,c),
(596,427,l),
(592,412,o),
(584,405,o),
(573,389,c),
(884,466,l),
(752,287,o),
(649,177,o),
(551,112,c),
(424,157,o),
(324,182,o),
(224,182,cs),
(90,182,o),
(0,142,o),
(0,80,cs),
(0,40,o),
(69,-2,o),
(220,-2,cs,{
name = hr01;
}),
(347,-2,o),
(460,20,o),
(566,67,c),
(700,28,o),
(903,-25,o),
(1040,-25,cs,{
name = hr02;
})
);
},
{
closed = 1;
nodes = (
(95,22,o),
(28,59,o),
(28,81,cs),
(28,111,o),
(98,131,o),
(232,131,cs),
(312,131,o),
(416,110,o),
(506,85,c),
(413,35,o),
(321,22,o),
(206,22,cs)
);
},
{
closed = 1;
nodes = (
(1264,811,o),
(1284,845,o),
(1306,880,cs),
(1502,1199,o),
(1712,1378,o),
(1927,1378,cs),
(1987,1378,o),
(2032,1333,o),
(2032,1286,cs),
(2032,1070,o),
(1648,835,o),
(1243,779,c)
);
}
);
};
layerId = master01;
shapes = (
{
closed = 1;
nodes = (
(1156,-25,o),
(1270,-2,o),
(1378,95,cs),
(1389,105,o),
(1398,121,o),
(1394,131,cs),
(1391,137,o),
(1382,135,o),
(1374,127,cs),
(1354,106,o),
(1270,24,o),
(1047,24,cs),
(866,24,o),
(727,48,o),
(612,89,c),
(768,170,o),
(909,308,o),
(1059,510,c),
(1122,595,o),
(1166,659,o),
(1224,749,c),
(1647,803,o),
(2099,1053,o),
(2099,1280,cs),
(2099,1353,o),
(2031,1401,o),
(1933,1401,cs),
(1657,1401,o),
(1408,1224,o),
(1093,767,c),
(1068,767,ls),
(814,767,o),
(649,857,o),
(649,1066,cs),
(649,1198,o),
(751,1353,o),
(957,1373,c),
(989,1373,o),
(989,1373,o),
(989,1385,c),
(967,1396,l),
(761,1396,o),
(574,1213,o),
(574,1042,cs),
(574,863,o),
(771,738,o),
(1064,738,cs),
(1073,738,l),
(1067,729,o),
(1062,720,o),
(1056,712,cs),
(1006,637,o),
(960,571,o),
(884,466,c),
(752,287,o),
(649,177,o),
(551,112,c),
(424,157,o),
(324,182,o),
(224,182,cs),
(90,182,o),
(0,142,o),
(0,80,cs),
(0,40,o),
(69,-2,o),
(220,-2,cs,{
name = hr01;
}),
(347,-2,o),
(460,20,o),
(566,67,c),
(700,28,o),
(903,-25,o),
(1040,-25,cs,{
name = hr02;
})
);
},
{
closed = 1;
nodes = (
(95,22,o),
(28,59,o),
(28,81,cs),
(28,111,o),
(98,131,o),
(232,131,cs),
(312,131,o),
(416,110,o),
(506,85,c),
(413,35,o),
(321,22,o),
(206,22,cs)
);
},
{
closed = 1;
nodes = (
(1177,423,o),
(1244,432,o),
(1298,452,c),
(1353,470,o),
(1380,486,o),
(1382,498,cs),
(1381,500,o),
(1375,504,o),
(1364,504,cs),
(1355,505,o),
(1347,501,o),
(1336,496,c),
(1303,470,o),
(1252,459,o),
(1195,461,cs),
(1159,462,o),
(1110,468,o),
(1036,486,cs),
(961,506,o),
(921,510,o),
(882,511,cs,{
name = hr04;
}),
(835,512,o),
(770,503,o),
(713,485,cs),
(659,467,o),
(632,450,o),
(631,438,cs),
(631,435,o),
(637,433,o),
(646,433,cs,{
name = hr01;
}),
(658,433,o),
(666,435,o),
(678,440,c),
(709,465,o),
(758,477,o),
(820,476,cs),
(861,475,o),
(893,469,o),
(960,452,cs),
(1050,431,o),
(1082,425,o),
(1128,424,cs,{
name = hr03;
})
);
},
{
closed = 1;
nodes = (
(1264,811,o),
(1284,845,o),
(1306,880,cs),
(1502,1199,o),
(1712,1378,o),
(1927,1378,cs),
(1987,1378,o),
(2032,1333,o),
(2032,1286,cs),
(2032,1070,o),
(1648,835,o),
(1243,779,c)
);
}
);
width = 1537;
}
);
metricLeft = L;
metricRight = L;
unicode = 321;
},
{
glyphname = M;
kernLeft = M;
kernRight = M;
lastChange = "2023-11-17 04:35:21 +0000";
layers = (
{
anchors = (
{
name = bottom;
pos = (942,0);
},
{
name = top;
pos = (2231,1523);
}
);
layerId = master01;
shapes = (
{
closed = 1;
nodes = (
(1555,-2,o),
(1694,39,o),
(1781,112,c),
(1783,115,o),
(1786,122,o),
(1786,135,cs),
(1786,141,o),
(1783,147,o),
(1781,148,c),
(1700,70,o),
(1563,25,o),
(1505,25,cs),
(1468,25,o),
(1447,42,o),
(1447,67,cs),
(1447,90,o),
(1456,111,o),
(1551,250,c),
(1829,645,o),
(2199,1178,o),
(2463,1410,c),
(2503,1444,o),
(2545,1469,o),
(2545,1479,cs),
(2545,1485,o),
(2540,1487,o),
(2535,1487,cs),
(2473,1487,o),
(2307,1382,o),
(1962,1060,c),
(1527,649,o),
(1371,484,o),
(1008,65,c),
(1104,266,o),
(1733,1269,o),
(1854,1399,c),
(1882,1427,o),
(1901,1443,o),
(1914,1455,cs),
(1926,1465,o),
(1929,1467,o),
(1929,1474,cs),
(1929,1480,o),
(1911,1484,o),
(1902,1484,cs),
(1884,1484,o),
(1707,1360,o),
(1310,926,cs),
(679,235,o),
(383,26,o),
(187,26,cs),
(89,26,o),
(38,63,o),
(38,121,cs),
(38,124,o),
(39,128,o),
(39,133,c),
(52,124,o),
(70,122,o),
(87,122,cs),
(117,122,o),
(144,146,o),
(144,172,cs),
(144,204,o),
(114,218,o),
(93,218,cs),
(52,218,o),
(0,188,o),
(0,127,cs),
(0,52,o),
(63,-1,o),
(188,-1,cs),
(252,-1,o),
(316,17,o),
(400,59,cs,{
name = hr00;
}),
(586,154,o),
(828,353,o),
(1132,687,cs),
(1482,1072,o),
(1673,1267,o),
(1748,1335,c),
(1280,807,o),
(952,274,o),
(952,49,cs),
(952,19,o),
(965,7,o),
(974,7,cs),
(988,7,o),
(1006,15,o),
(1076,96,cs),
(1363,431,o),
(1582,650,o),
(1694,757,cs),
(2143,1185,o),
(2292,1322,o),
(2411,1407,c),
(2171,1170,o),
(1758,752,o),
(1501,372,c),
(1391,206,o),
(1367,132,o),
(1367,93,cs),
(1367,39,o),
(1406,-2,o),
(1488,-2,cs)
);
}
);
width = 1915;
}
);
unicode = 77;
},
{
glyphname = N;
kernLeft = N;
kernRight = N;
lastChange = "2023-11-17 04:35:07 +0000";
layers = (
{
anchors = (
{
name = bottom;
pos = (607,0);
},
{
name = top;
pos = (1894,1388);
}
);
layerId = master01;
shapes = (
{
closed = 1;
nodes = (
(962,-19,o),
(975,-13,o),
(1010,28,cs),
(1124,158,o),
(1367,466,o),
(1700,830,cs),
(2118,1288,o),
(2388,1467,o),
(2612,1467,cs),
(2714,1467,o),
(2774,1406,o),
(2774,1301,cs),
(2774,1146,o),
(2596,980,o),
(2435,918,c,{
name = hr03;
}),
(2422,912,o),
(2418,907,o),
(2418,902,cs),
(2418,898,o),
(2421,895,o),
(2429,895,cs),
(2440,895,o),
(2463,902,o),
(2485,912,cs),
(2695,1013,o),
(2839,1194,o),
(2837,1318,cs),
(2836,1431,o),
(2763,1496,o),
(2623,1496,c),
(2397,1493,o),
(2162,1353,o),
(1808,986,cs),
(1544,714,o),
(1225,331,o),
(1099,178,c),
(1246,437,o),
(1317,554,o),
(1398,774,cs),
(1472,975,o),
(1493,1076,o),
(1523,1181,cs),
(1539,1237,o),
(1555,1286,o),
(1588,1342,c),
(1602,1368,ls),
(1605,1373,o),
(1606,1375,o),
(1606,1381,cs),
(1606,1386,o),
(1602,1390,o),
(1597,1390,cs),
(1590,1390,o),
(1585,1384,o),
(1572,1368,c),
(1551,1336,o),
(1329,1050,o),
(911,578,cs),
(540,161,o),
(323,25,o),
(199,25,cs),
(90,25,o),
(40,67,o),
(40,125,cs),
(40,131,l),
(53,123,o),
(70,121,o),
(88,121,cs),
(117,121,o),
(144,145,o),
(144,171,cs),
(144,203,o),
(115,217,o),
(93,217,cs),
(52,217,o),
(0,193,o),
(0,133,cs),
(0,59,o),
(65,-2,o),
(201,-2,cs,{
name = hr01;
}),
(367,-2,o),
(590,182,o),
(902,522,c),
(1162,809,o),
(1278,956,o),
(1481,1209,c),
(1319,931,o),
(1179,624,o),
(1108,388,cs),
(1045,176,o),
(1017,87,o),
(967,26,cs),
(962,19,o),
(953,13,o),
(948,8,c),
(943,5,o),
(940,0,o),
(940,-5,cs),
(940,-13,o),
(947,-19,o),
(954,-19,cs)
);
},
{
closed = 1;
nodes = (
(665,815,o),
(823,923,o),
(823,1085,cs),
(823,1166,o),
(775,1219,o),
(726,1219,cs,{
name = hr05;
}),
(694,1219,o),
(677,1196,o),
(677,1174,cs),
(677,1147,o),
(701,1129,o),
(726,1129,cs),
(743,1129,o),
(756,1139,o),
(765,1150,c),
(781,1133,o),
(792,1109,o),
(792,1081,cs),
(792,931,o),
(641,839,o),
(504,839,cs),
(346,839,o),
(244,943,o),
(244,1085,cs),
(244,1257,o),
(413,1385,o),
(612,1385,cs),
(695,1385,o),
(764,1371,o),
(922,1280,cs),
(1005,1231,o),
(1125,1198,o),
(1208,1198,cs,{
name = hr06;
}),
(1270,1198,o),
(1387,1236,o),
(1441,1288,c),
(1452,1300,o),
(1455,1305,o),
(1455,1311,cs),
(1455,1313,o),
(1451,1319,o),
(1447,1319,cs),
(1441,1319,o),
(1436,1314,o),
(1424,1303,cs),
(1387,1271,o),
(1329,1249,o),
(1280,1249,cs),
(1236,1249,o),
(1186,1262,o),
(1141,1281,c),
(1065,1316,o),
(1011,1343,o),
(943,1371,cs),
(839,1414,o),
(759,1424,o),
(662,1424,cs),
(395,1424,o),
(212,1279,o),
(212,1091,cs),
(212,905,o),
(353,815,o),
(508,815,cs)
);
}
);
width = 1483;
}
);
unicode = 78;
userData = {
KernOnName = N;
};
},
{
glyphname = Eng;
kernLeft = N;
kernRight = N;
lastChange = "2022-05-18 03:32:05 +0000";
layers = (
{
anchors = (
{
name = bottom;
pos = (668,0);
},
{
name = top;
pos = (1894,1388);
}
);
layerId = master01;
shapes = (
{
closed = 1;
nodes = (
(962,-19,o),
(975,-13,o),
(1010,28,cs),
(1124,158,o),
(1367,466,o),
(1700,830,cs),
(2118,1288,o),
(2388,1467,o),
(2612,1467,cs),
(2714,1467,o),
(2774,1406,o),
(2774,1301,cs),
(2774,1146,o),
(2596,980,o),
(2435,918,c,{
name = hr03;
}),
(2422,912,o),
(2418,907,o),
(2418,902,cs),
(2418,898,o),
(2421,895,o),
(2429,895,cs),
(2440,895,o),
(2463,902,o),
(2485,912,cs),
(2695,1013,o),
(2839,1194,o),
(2837,1318,cs),
(2836,1431,o),
(2763,1496,o),
(2623,1496,c),
(2397,1493,o),
(2162,1353,o),
(1808,986,cs),
(1544,714,o),
(1225,331,o),
(1099,178,c),
(1246,437,o),
(1317,554,o),
(1398,774,cs),
(1472,975,o),
(1493,1076,o),
(1523,1181,cs),
(1539,1237,o),
(1555,1286,o),
(1588,1342,c),
(1602,1368,ls),
(1605,1373,o),
(1606,1375,o),
(1606,1381,cs),
(1606,1386,o),
(1602,1390,o),
(1597,1390,cs),
(1590,1390,o),
(1585,1384,o),
(1572,1368,c),
(1551,1336,o),
(1329,1050,o),
(911,578,cs),
(540,161,o),
(323,25,o),
(199,25,cs),
(90,25,o),
(40,67,o),
(40,125,cs),
(40,131,l),
(53,123,o),
(70,121,o),
(88,121,cs),
(117,121,o),
(144,145,o),
(144,171,cs),
(144,203,o),
(115,217,o),
(93,217,cs),
(52,217,o),
(0,193,o),
(0,133,cs),
(0,59,o),
(65,-2,o),
(201,-2,cs,{
name = hr01;
}),
(367,-2,o),
(590,182,o),
(902,522,c),
(1162,809,o),
(1278,956,o),
(1481,1209,c),
(1319,931,o),
(1179,624,o),
(1108,388,cs),
(1030,125,o),
(1004,72,o),
(940,-5,c),
(940,-13,o),
(947,-19,o),
(954,-19,cs)
);
},
{
closed = 1;
nodes = (
(466,-546,o),
(655,-421,o),
(1010,28,c),
(940,-5,l),
(580,-438,o),
(435,-520,o),
(281,-520,cs),
(170,-520,o),
(98,-469,o),
(98,-405,cs),
(98,-399,l),
(111,-406,o),
(128,-406,o),
(145,-404,c),
(175,-402,o),
(200,-375,o),
(196,-350,c),
(193,-317,o),
(163,-307,o),
(141,-309,cs),
(100,-313,o),
(51,-341,o),
(57,-402,cs),
(65,-480,o),
(144,-546,o),
(283,-546,cs,{
name = hr01;
})
);
},
{
closed = 1;
nodes = (
(665,815,o),
(823,923,o),
(823,1085,cs),
(823,1166,o),
(775,1219,o),
(726,1219,cs,{
name = hr05;
}),
(694,1219,o),
(677,1196,o),
(677,1174,cs),
(677,1147,o),
(701,1129,o),
(726,1129,cs),
(743,1129,o),
(756,1139,o),
(765,1150,c),
(781,1133,o),
(792,1109,o),
(792,1081,cs),
(792,931,o),
(641,839,o),
(504,839,cs),
(346,839,o),
(244,943,o),
(244,1085,cs),
(244,1257,o),
(413,1385,o),
(612,1385,cs),
(695,1385,o),
(764,1371,o),
(922,1280,cs),
(1005,1231,o),
(1125,1198,o),
(1208,1198,cs,{
name = hr06;
}),
(1270,1198,o),
(1387,1236,o),
(1441,1288,c),
(1452,1300,o),
(1455,1305,o),
(1455,1311,cs),
(1455,1313,o),
(1451,1319,o),
(1447,1319,cs),
(1441,1319,o),
(1436,1314,o),
(1424,1303,cs),
(1387,1271,o),
(1329,1249,o),
(1280,1249,cs),
(1236,1249,o),
(1186,1262,o),
(1141,1281,c),
(1065,1316,o),
(1011,1343,o),
(943,1371,cs),
(839,1414,o),
(759,1424,o),
(662,1424,cs),
(395,1424,o),
(212,1279,o),
(212,1091,cs),
(212,905,o),
(353,815,o),
(508,815,cs)
);
}
);
width = 1483;
}
);
metricLeft = N;
metricRight = N;
unicode = 330;
},
{
glyphname = O;
kernLeft = O;
kernRight = O;
lastChange = "2022-05-18 03:32:05 +0000";
layers = (
{
anchors = (
{
name = bottom;
pos = (249,0);
},
{
name = center;
pos = (872,694);
},
{
name = ogonek;
pos = (433,10);
},
{
name = top;
pos = (1162,1446);
},
{
name = topleft;
pos = (386,1388);
},
{
name = topright;
pos = (1338,1388);
}
);
layerId = master01;
shapes = (
{
closed = 1;
nodes = (
(777,-2,o),
(1274,520,o),
(1274,899,cs),
(1274,1053,o),
(1172,1121,o),
(1065,1121,cs),
(759,1121,o),
(439,789,o),
(439,408,cs),
(439,328,o),
(467,247,o),
(492,215,cs),
(501,203,o),
(509,194,o),
(515,197,cs),
(524,202,o),
(517,211,o),
(515,215,cs),
(479,268,o),
(469,344,o),
(469,396,cs),
(469,767,o),
(801,1093,o),
(1055,1093,cs),
(1160,1093,o),
(1225,1040,o),
(1225,925,cs),
(1225,538,o),
(692,23,o),
(332,23,cs),
(184,23,o),
(111,112,o),
(111,237,cs,{
name = hr00;
}),
(111,644,o),
(786,1373,o),
(1219,1373,cs),
(1397,1373,o),
(1473,1297,o),
(1473,1188,cs),
(1473,1129,o),
(1449,1052,o),
(1432,1031,cs),
(1424,1020,o),
(1422,1017,o),
(1422,1013,cs),
(1422,1005,o),
(1424,1003,o),
(1430,1003,cs),
(1437,1003,o),
(1445,1013,o),
(1456,1027,c),
(1477,1058,o),
(1501,1140,o),
(1501,1190,cs),
(1501,1312,o),
(1417,1401,o),
(1230,1401,cs),
(678,1401,o),
(38,799,o),
(38,301,cs),
(38,95,o),
(165,-2,o),
(320,-2,cs)
);
}
);
width = 1122;
}
);
unicode = 79;
},
{
glyphname = Oslash;
kernLeft = O;
kernRight = O;
lastChange = "2022-05-18 03:32:05 +0000";
layers = (
{
anchors = (
{
name = bottom;
pos = (609,0);
},
{
name = top;
pos = (980,1446);
}
);
layerId = master01;
shapes = (
{
closed = 1;
nodes = (
(73,-176,o),
(92,-176,o),
(99,-176,cs),
(105,-176,o),
(113,-176,o),
(121,-177,c),
(252,-1,l),
(262,-2,o),
(272,-2,o),
(282,-2,cs),
(739,-2,o),
(1236,520,o),
(1236,899,cs),
(1236,1025,o),
(1168,1093,o),
(1084,1114,c),
(1271,1365,l),
(1385,1343,o),
(1435,1276,o),
(1435,1188,cs),
(1435,1133,o),
(1411,1068,o),
(1394,1048,cs),
(1386,1037,o),
(1384,1034,o),
(1384,1031,cs),
(1384,1023,o),
(1386,1020,o),
(1392,1020,cs),
(1399,1020,o),
(1407,1031,o),
(1418,1044,c),
(1439,1073,o),
(1463,1143,o),
(1463,1190,cs),
(1463,1287,o),
(1403,1363,o),
(1290,1390,c),
(1438,1588,l),
(1433,1587,o),
(1428,1586,o),
(1423,1586,cs),
(1414,1586,o),
(1392,1587,o),
(1386,1589,c),
(1244,1398,l),
(1227,1400,o),
(1210,1401,o),
(1192,1401,cs),
(640,1401,o),
(0,793,o),
(0,301,cs),
(0,129,o),
(88,34,o),
(206,6,c),
(70,-177,l,{
name = hr00;
})
);
},
{
closed = 1;
nodes = (
(1065,1088,l),
(1141,1073,o),
(1187,1021,o),
(1187,925,cs),
(1187,538,o),
(654,23,o),
(294,23,cs),
(271,23,l)
);
},
{
closed = 1;
nodes = (
(123,54,o),
(73,133,o),
(73,237,cs),
(73,640,o),
(748,1373,o),
(1181,1373,cs),
(1196,1373,o),
(1210,1372,o),
(1224,1371,c),
(1037,1121,l),
(1027,1121,ls),
(749,1121,o),
(440,824,o),
(385,508,cs),
(383,496,o),
(383,486,o),
(391,486,cs),
(402,486,o),
(408,492,o),
(412,507,c),
(472,821,o),
(788,1092,o),
(1016,1093,c),
(224,30,l)
);
}
);
width = 1463;
}
);
unicode = 216;
},
{
glyphname = OE;
kernLeft = O;
kernRight = E;
lastChange = "2022-05-18 03:32:05 +0000";
layers = (
{
anchors = (
{
name = bottom;
pos = (1118,0);
},
{
name = top;
pos = (1569,1388);
}
);
layerId = master01;
shapes = (
{
closed = 1;
nodes = (
(1331,-283,o),
(1337,-279,o),
(1337,-274,cs),
(1337,-269,o),
(1335,-267,o),
(1327,-259,c),
(1281,-221,o),
(1249,-153,o),
(1249,-47,cs),
(1249,-32,o),
(1250,-16,o),
(1252,0,c),
(1267,-1,o),
(1281,-2,o),
(1297,-2,cs),
(1573,-2,o),
(1815,193,o),
(1815,388,cs),
(1815,462,o),
(1771,511,o),
(1678,511,cs),
(1509,511,o),
(1357,381,o),
(1274,188,c),
(1251,137,o),
(1236,82,o),
(1228,31,c),
(1108,51,o),
(1042,124,o),
(1042,230,cs),
(1042,393,o),
(1359,700,o),
(1592,718,c),
(1637,652,o),
(1713,620,o),
(1770,620,cs,{
name = hr04;
}),
(1804,620,o),
(1825,629,o),
(1825,652,cs),
(1825,693,o),
(1761,739,o),
(1638,752,c),
(1638,767,ls),
(1638,889,o),
(1786,1137,o),
(2013,1281,c),
(2069,1318,o),
(2168,1355,o),
(2255,1355,cs),
(2353,1355,o),
(2402,1311,o),
(2402,1239,cs),
(2402,1045,o),
(2101,812,o),
(1922,812,cs,{
name = hr05;
}),
(1862,812,o),
(1835,839,o),
(1835,876,cs),
(1835,1001,o),
(2047,1203,o),
(2256,1203,cs),
(2274,1203,o),
(2288,1206,o),
(2288,1218,cs),
(2288,1222,o),
(2281,1229,o),
(2265,1229,cs),
(2015,1229,o),
(1803,1007,o),
(1803,877,cs),
(1803,824,o),
(1842,785,o),
(1918,785,cs),
(2198,785,o),
(2444,1041,o),
(2444,1237,cs),
(2444,1310,o),
(2391,1384,o),
(2233,1384,cs),
(2191,1384,o),
(2100,1373,o),
(2028,1350,cs),
(1761,1267,o),
(1557,1016,o),
(1557,839,cs,{
name = hr06;
}),
(1557,808,o),
(1562,780,o),
(1572,756,c),
(1568,756,ls),
(1428,756,o),
(1296,713,o),
(1192,642,c),
(1237,731,o),
(1264,818,o),
(1264,896,cs),
(1264,1050,o),
(1175,1121,o),
(1067,1121,cs),
(766,1121,o),
(447,684,o),
(447,359,cs),
(447,249,o),
(477,174,o),
(499,174,cs),
(504,174,o),
(507,178,o),
(507,184,cs),
(507,186,o),
(506,189,o),
(504,194,cs),
(488,226,o),
(476,294,o),
(476,344,cs),
(476,683,o),
(810,1093,o),
(1060,1093,cs),
(1165,1093,o),
(1221,1042,o),
(1221,927,cs),
(1221,592,o),
(687,26,o),
(337,26,cs),
(211,26,o),
(105,91,o),
(105,217,cs,{
name = hr01;
}),
(105,613,o),
(827,1355,o),
(1213,1355,cs),
(1371,1355,o),
(1463,1279,o),
(1463,1156,cs),
(1463,1094,o),
(1442,1051,o),
(1425,1031,cs),
(1417,1020,o),
(1414,1017,o),
(1414,1013,cs),
(1414,1005,o),
(1418,1003,o),
(1422,1003,cs),
(1430,1003,o),
(1438,1013,o),
(1450,1027,c),
(1470,1056,o),
(1492,1106,o),
(1492,1158,cs),
(1492,1296,o),
(1390,1384,o),
(1224,1384,cs),
(732,1384,o),
(38,805,o),
(38,312,cs),
(38,82,o),
(158,-2,o),
(313,-2,cs),
(533,-2,o),
(788,153,o),
(978,351,c),
(971,321,o),
(968,291,o),
(968,261,cs),
(968,138,o),
(1064,29,o),
(1224,3,c),
(1222,-17,o),
(1221,-37,o),
(1221,-56,cs,{
name = hr03;
}),
(1221,-157,o),
(1253,-226,o),
(1299,-269,cs),
(1313,-282,o),
(1319,-283,o),
(1326,-283,cs)
);
},
{
closed = 1;
nodes = (
(1285,26,o),
(1271,27,o),
(1257,28,c),
(1268,76,o),
(1287,130,o),
(1314,184,c,{
name = hr09;
}),
(1408,364,o),
(1584,480,o),
(1685,480,cs,{
name = hr10;
}),
(1754,480,o),
(1779,459,o),
(1779,412,cs),
(1779,301,o),
(1493,26,o),
(1300,26,cs)
);
},
{
closed = 1;
nodes = (
(1719,648,o),
(1668,669,o),
(1647,718,c),
(1732,711,o),
(1784,681,o),
(1784,660,cs,{
name = hr08;
}),
(1784,652,o),
(1779,648,o),
(1770,648,cs)
);
}
);
width = 1923;
}
);
metricLeft = O;
metricRight = E;
unicode = 338;
},
{
glyphname = P;
kernLeft = P;
kernRight = P;
lastChange = "2023-11-17 03:57:10 +0000";
layers = (
{
anchors = (
{
name = bottom;
pos = (180,4);
},
{
name = top;
pos = (1294,1406);
}
);
layerId = master01;
shapes = (
{
closed = 1;
nodes = (
(402,-2,o),
(642,142,o),
(970,582,c),
(1013,573,o),
(1062,568,o),
(1116,568,cs),
(1444,568,o),
(1762,805,o),
(1762,1054,cs),
(1762,1158,o),
(1709,1250,o),
(1601,1314,c),
(1648,1344,o),
(1695,1365,o),
(1740,1374,c),
(1762,1377,o),
(1766,1382,o),
(1766,1390,cs),
(1765,1400,o),
(1756,1400,o),
(1746,1400,cs),
(1714,1400,o),
(1648,1380,o),
(1565,1333,c),
(1469,1379,o),
(1339,1406,o),
(1172,1406,cs),
(709,1406,o),
(198,1115,o),
(209,789,cs),
(212,689,o),
(298,622,o),
(373,622,cs,{
name = hr03;
}),
(720,622,o),
(936,978,o),
(927,1210,c),
(927,1231,o),
(927,1241,o),
(917,1241,cs),
(910,1241,o),
(905,1233,o),
(903,1207,c),
(887,1070,o),
(616,649,o),
(376,649,cs),
(319,649,o),
(244,686,o),
(240,795,cs),
(231,1059,o),
(664,1384,o),
(1174,1384,cs),
(1337,1384,o),
(1455,1359,o),
(1531,1313,c),
(1490,1286,l),
(1276,1139,o),
(1104,962,o),
(886,669,cs),
(872,650,l),
(851,664,o),
(839,680,o),
(839,695,cs),
(839,747,o),
(871,789,o),
(933,799,cs),
(944,801,o),
(945,805,o),
(945,807,cs),
(945,807,o),
(945,817,o),
(920,817,cs),
(862,817,o),
(799,774,o),
(799,714,cs),
(799,680,o),
(819,650,o),
(855,626,c),
(480,109,o),
(370,26,o),
(199,26,cs),
(101,26,o),
(40,68,o),
(40,127,cs),
(40,132,l),
(53,124,o),
(70,122,o),
(87,122,cs),
(117,122,o),
(144,146,o),
(144,172,cs),
(144,204,o),
(114,218,o),
(94,218,cs),
(53,218,o),
(0,194,o),
(0,135,cs),
(0,59,o),
(66,-2,o),
(212,-2,cs,{
name = hr01;
})
);
},
{
closed = 1;
nodes = (
(1069,594,o),
(1027,599,o),
(989,607,c),
(1019,648,o),
(1050,691,o),
(1082,738,c),
(1261,988,o),
(1419,1183,o),
(1565,1289,c),
(1617,1246,o),
(1642,1188,o),
(1642,1119,cs),
(1642,774,o),
(1326,594,o),
(1112,594,cs)
);
}
);
width = 1289;
}
);
unicode = 80;
},
{
glyphname = Thorn;
kernLeft = Thorn;
kernRight = Thorn;
lastChange = "2022-05-18 03:32:05 +0000";
layers = (
{
layerId = master01;
shapes = (
{
closed = 1;
nodes = (
(-326,-787,o),
(3,-555,o),
(728,416,c,{
name = hr03;
}),
(928,610,o),
(1169,744,o),
(1308,744,cs),
(1393,744,o),
(1431,683,o),
(1431,611,cs),
(1431,327,o),
(1093,26,o),
(872,26,cs),
(781,26,o),
(754,74,o),
(754,108,cs),
(754,234,o),
(1015,442,o),
(1223,442,cs),
(1242,442,o),
(1255,447,o),
(1255,457,cs),
(1255,462,o),
(1247,469,o),
(1234,469,cs),
(982,469,o),
(722,239,o),
(722,105,cs),
(722,60,o),
(757,-2,o),
(870,-2,cs),
(1197,-2,o),
(1517,268,o),
(1517,561,cs),
(1517,654,o),
(1472,773,o),
(1319,773,cs),
(1163,773,o),
(987,682,o),
(813,531,c),
(870,608,ls),
(934,696,o),
(996,778,o),
(1055,852,c),
(1374,945,o),
(1646,1146,o),
(1646,1324,cs),
(1646,1357,o),
(1619,1384,o),
(1573,1384,cs),
(1478,1384,o),
(1318,1286,o),
(953,862,c,{
name = hr04;
}),
(867,838,o),
(782,825,o),
(705,825,cs),
(504,825,o),
(335,911,o),
(335,1032,cs),
(335,1244,o),
(735,1446,o),
(1002,1446,cs),
(1034,1446,o),
(1059,1442,o),
(1074,1442,cs),
(1084,1442,o),
(1087,1444,o),
(1087,1450,cs),
(1087,1460,o),
(1051,1467,o),
(1006,1467,cs),
(643,1467,o),
(292,1305,o),
(292,1077,cs),
(292,905,o),
(448,800,o),
(707,800,cs),
(776,800,o),
(847,807,o),
(917,820,c),
(806,690,o),
(679,532,o),
(530,340,cs),
(443,228,o),
(356,111,o),
(270,-2,c,{
name = hr01;
}),
(-433,-306,o),
(-644,-555,o),
(-644,-710,cs),
(-644,-752,o),
(-620,-787,o),
(-562,-787,cs)
);
},
{
closed = 1;
nodes = (
(-604,-762,o),
(-613,-742,o),
(-613,-717,cs),
(-613,-535,o),
(-130,-239,o),
(241,-39,c),
(-50,-422,o),
(-333,-762,o),
(-561,-762,cs)
);
},
{
closed = 1;
nodes = (
(1332,1196,o),
(1506,1362,o),
(1578,1362,cs),
(1595,1362,o),
(1614,1355,o),
(1614,1335,cs),
(1614,1203,o),
(1373,1019,o),
(1103,912,c)
);
}
);
width = 1520;
}
);
unicode = 222;
},
{
glyphname = Q;
kernLeft = Q;
kernRight = O;
lastChange = "2022-05-18 03:32:05 +0000";
layers = (
{
layerId = master01;
shapes = (
{
closed = 1;
nodes = (
(1519,-290,o),
(1588,-277,o),
(1641,-257,c),
(1715,-232,o),
(1779,-179,o),
(1779,-165,cs),
(1779,-159,o),
(1774,-153,o),
(1767,-153,cs),
(1762,-153,o),
(1759,-156,o),
(1754,-159,c),
(1717,-190,l),
(1672,-223,o),
(1593,-250,o),
(1509,-250,cs),
(1380,-250,o),
(1184,-187,o),
(816,47,cs),
(793,62,o),
(767,68,o),
(742,78,c),
(1201,241,o),
(1591,639,o),
(1591,1073,cs),
(1591,1308,o),
(1441,1401,o),
(1263,1401,cs),
(1129,1401,o),
(955,1357,o),
(830,1280,cs),
(537,1098,o),
(399,872,o),
(399,702,cs),
(399,573,o),
(477,477,o),
(623,477,cs),
(913,477,o),
(1253,828,o),
(1253,1134,cs),
(1253,1162,o),
(1245,1165,o),
(1237,1165,cs),
(1233,1165,o),
(1231,1162,o),
(1226,1135,cs),
(1176,868,o),
(828,500,o),
(628,500,cs),
(493,500,o),
(457,581,o),
(457,655,cs),
(457,799,o),
(713,1138,o),
(953,1281,cs),
(1048,1338,o),
(1152,1377,o),
(1253,1377,cs),
(1449,1377,o),
(1538,1280,o),
(1538,1121,cs),
(1538,811,o),
(1153,372,o),
(835,188,cs),
(781,157,o),
(726,128,o),
(671,104,c),
(515,158,o),
(342,193,o),
(212,193,cs),
(93,193,o),
(0,146,o),
(0,104,cs),
(0,55,o),
(87,1,o),
(311,1,cs,{
name = hr00;
}),
(411,1,o),
(513,14,o),
(612,39,c),
(669,14,o),
(739,-5,o),
(808,-52,cs),
(1101,-253,o),
(1282,-290,o),
(1465,-290,cs)
);
},
{
closed = 1;
nodes = (
(167,26,o),
(66,56,o),
(66,113,cs),
(66,141,o),
(107,165,o),
(201,165,cs),
(286,165,o),
(376,142,o),
(558,63,c),
(480,39,o),
(398,26,o),
(307,26,cs)
);
}
);
width = 1437;
}
);
unicode = 81;
},
{
glyphname = R;
kernLeft = R;
kernRight = R;
lastChange = "2022-05-18 03:32:05 +0000";
layers = (
{
anchors = (
{
name = bottom;
pos = (803,0);
},
{
name = top;
pos = (1543,1446);
}
);
layerId = master01;
shapes = (
{
closed = 1;
nodes = (
(467,-2,o),
(744,172,o),
(1133,716,c),
(1302,963,o),
(1482,1155,o),
(1641,1263,c),
(1680,1226,o),
(1702,1181,o),
(1704,1126,cs),
(1709,963,o),
(1535,723,o),
(1351,646,c,{
name = hr03;
}),
(1318,664,o),
(1274,671,o),
(1230,671,cs),
(1179,671,o),
(1152,652,o),
(1154,636,c),
(1155,616,o),
(1185,598,o),
(1242,598,cs,{
name = hr04;
}),
(1268,598,o),
(1300,601,o),
(1333,609,c),
(1337,601,o),
(1339,593,o),
(1339,583,cs),
(1340,546,o),
(1328,512,o),
(1257,453,c),
(1174,368,o),
(1079,268,o),
(1084,121,cs,{
name = hr05;
}),
(1087,49,o),
(1147,-2,o),
(1255,-2,cs),
(1448,-2,o),
(1745,250,o),
(1743,481,cs),
(1743,499,o),
(1736,510,o),
(1725,510,cs),
(1720,510,o),
(1716,498,o),
(1711,480,c),
(1623,219,o),
(1419,26,o),
(1260,26,cs),
(1179,26,o),
(1155,59,o),
(1155,99,c),
(1154,125,o),
(1166,158,o),
(1212,197,c),
(1392,377,o),
(1418,454,o),
(1413,544,c),
(1412,577,o),
(1401,603,o),
(1383,622,c),
(1637,697,o),
(1800,873,o),
(1793,1042,cs),
(1789,1141,o),
(1746,1222,o),
(1671,1283,c),
(1733,1321,o),
(1791,1347,o),
(1844,1358,c),
(1865,1361,o),
(1872,1366,o),
(1872,1374,cs),
(1871,1384,o),
(1861,1384,o),
(1852,1384,cs),
(1815,1384,o),
(1737,1361,o),
(1635,1309,c),
(1543,1368,o),
(1415,1401,o),
(1262,1401,cs),
(845,1401,o),
(348,1110,o),
(359,779,cs),
(362,678,o),
(460,612,o),
(547,612,cs),
(894,612,o),
(1110,969,o),
(1101,1205,c),
(1101,1227,o),
(1101,1237,o),
(1091,1237,cs),
(1083,1237,o),
(1079,1229,o),
(1076,1203,cs),
(1061,1064,o),
(789,638,o),
(549,638,cs),
(485,638,o),
(397,675,o),
(393,784,cs),
(384,1034,o),
(782,1373,o),
(1247,1373,cs),
(1398,1373,o),
(1523,1346,o),
(1604,1292,c),
(1591,1285,o),
(1578,1278,o),
(1565,1270,cs),
(1339,1121,o),
(1127,946,o),
(914,648,c),
(524,113,o),
(416,26,o),
(239,26,cs),
(140,26,o),
(80,68,o),
(80,127,cs),
(80,133,l),
(93,124,o),
(110,122,o),
(128,122,cs),
(157,122,o),
(183,146,o),
(183,172,cs),
(183,204,o),
(155,218,o),
(133,218,cs),
(92,218,o),
(40,194,o),
(40,135,cs),
(40,59,o),
(107,-2,o),
(252,-2,cs,{
name = hr01;
})
);
},
{
closed = 1;
nodes = (
(1206,621,o),
(1190,632,o),
(1190,638,cs,{
name = hr07;
}),
(1190,644,o),
(1205,648,o),
(1230,648,cs),
(1264,648,o),
(1291,643,o),
(1310,632,c,{
name = hr08;
}),
(1286,625,o),
(1261,621,o),
(1237,621,cs)
);
}
);
width = 1756;
}
);
unicode = 82;
},
{
glyphname = S;
kernLeft = S;
kernRight = S;
lastChange = "2024-04-11 14:00:38 +0000";
layers = (
{
anchors = (
{
name = bottom;
pos = (275,0);
},
{
name = top;
pos = (1710,1446);
}
);
layerId = master01;
shapes = (
{
closed = 1;
nodes = (
(561,-2,o),
(793,317,o),
(1021,667,c),
(1455,723,o),
(1805,1072,o),
(1817,1277,cs),
(1821,1357,o),
(1770,1401,o),
(1690,1401,cs),
(1450,1401,o),
(1189,1186,o),
(871,685,c),
(531,696,o),
(374,848,o),
(382,969,c),
(394,1213,o),
(711,1378,o),
(1020,1378,cs),
(1082,1378,o),
(1123,1369,o),
(1166,1359,c),
(1177,1358,o),
(1185,1355,o),
(1194,1355,cs),
(1206,1355,o),
(1206,1355,o),
(1206,1359,cs),
(1206,1377,o),
(1119,1401,o),
(1021,1401,cs),
(656,1401,o),
(329,1225,o),
(315,988,cs),
(303,797,o),
(538,671,o),
(855,660,c),
(835,627,ls),
(661,340,o),
(499,22,o),
(214,22,cs,{
name = hr00;
}),
(116,22,o),
(40,68,o),
(40,127,cs),
(40,132,l),
(53,124,o),
(69,122,o),
(86,122,cs),
(117,122,o),
(143,146,o),
(143,172,cs),
(143,204,o),
(115,218,o),
(93,218,cs),
(52,218,o),
(0,194,o),
(0,135,cs),
(0,59,o),
(84,-2,o),
(230,-2,cs)
);
},
{
closed = 1;
nodes = (
(1063,732,o),
(1087,768,o),
(1111,805,cs),
(1344,1172,o),
(1524,1370,o),
(1689,1376,cs),
(1725,1377,o),
(1769,1353,o),
(1763,1281,c),
(1752,1082,o),
(1425,758,o),
(1040,695,c)
);
}
);
width = 1053;
}
);
unicode = 83;
userData = {
KernOnName = S;
};
},
{
glyphname = Germandbls;
kernLeft = Germandbls;
kernRight = Germandbls;
lastChange = "2022-05-18 03:32:05 +0000";
layers = (
{
layerId = master01;
shapes = (
{
closed = 1;
nodes = (
(655,1154,o),
(822,1392,o),
(1085,1392,cs),
(1178,1392,o),
(1210,1335,o),
(1210,1283,cs),
(1210,1010,o),
(779,1047,o),
(802,755,cs),
(846,209,o),
(671,24,o),
(481,24,cs),
(404,24,o),
(329,71,o),
(325,138,cs),
(323,164,o),
(330,182,o),
(339,195,c),
(347,191,o),
(366,186,o),
(383,186,cs),
(414,186,o),
(452,209,o),
(449,244,cs),
(448,267,o),
(431,282,o),
(397,283,cs),
(336,284,o),
(292,229,o),
(296,141,cs,{
name = hr00;
}),
(301,50,o),
(379,-2,o),
(487,-2,cs),
(740,-2,o),
(879,166,o),
(906,429,cs),
(924,602,o),
(862,729,o),
(862,797,cs),
(862,1041,o),
(1322,1042,o),
(1308,1295,cs),
(1304,1363,o),
(1248,1422,o),
(1092,1422,cs),
(847,1422,o),
(669,1332,o),
(-175,0,c),
(-68,0,l)
);
}
);
width = 968;
}
);
unicode = 7838;
},
{
glyphname = T;
kernLeft = T;
kernRight = T;
lastChange = "2024-04-11 14:03:55 +0000";
layers = (
{
anchors = (
{
name = bottom;
pos = (192,0);
},
{
name = center;
pos = (990,523);
},
{
name = top;
pos = (1703,1446);
}
);
layerId = master01;
shapes = (
{
closed = 1;
nodes = (
(549,-2,o),
(875,187,o),
(1223,726,cs),
(1415,1024,o),
(1447,1062,o),
(1589,1155,cs),
(1604,1164,o),
(1609,1167,o),
(1609,1178,cs),
(1609,1183,o),
(1604,1187,o),
(1595,1187,cs),
(1554,1187,o),
(1340,1027,o),
(1111,763,c),
(1022,658,o),
(946,563,o),
(888,472,cs),
(697,172,o),
(468,26,o),
(267,26,cs),
(139,26,o),
(40,68,o),
(40,157,cs),
(40,163,l),
(53,155,o),
(70,153,o),
(88,153,cs),
(118,153,o),
(144,177,o),
(144,203,cs),
(144,235,o),
(115,249,o),
(94,249,cs),
(53,249,o),
(0,225,o),
(0,165,cs),
(0,60,o),
(123,-2,o),
(259,-2,cs)
);
},
{
closed = 1;
nodes = (
(990,775,o),
(1241,999,o),
(1241,1221,cs),
(1241,1241,o),
(1236,1246,o),
(1230,1246,cs),
(1226,1246,o),
(1223,1245,o),
(1218,1221,c),
(1186,1091,o),
(942,807,o),
(789,807,cs),
(705,807,o),
(664,860,o),
(664,923,cs),
(664,1096,o),
(965,1319,o),
(1204,1319,cs),
(1266,1319,o),
(1362,1310,o),
(1471,1289,c),
(1597,1262,o),
(1673,1254,o),
(1739,1254,cs),
(1963,1254,o),
(2183,1342,o),
(2284,1460,c),
(2306,1488,o),
(2317,1508,o),
(2317,1516,cs),
(2317,1523,o),
(2314,1526,o),
(2306,1526,cs),
(2302,1526,o),
(2296,1525,o),
(2287,1509,c),
(2231,1420,o),
(2074,1335,o),
(1927,1335,cs),
(1888,1335,o),
(1791,1342,o),
(1716,1355,c),
(1654,1368,o),
(1540,1384,o),
(1440,1384,cs),
(1329,1384,o),
(1169,1369,o),
(1074,1337,cs),
(820,1251,o),
(636,1064,o),
(636,930,cs),
(636,836,o),
(696,775,o),
(799,775,cs,{
name = hr00;
})
);
}
);
width = 1127;
}
);
unicode = 84;
userData = {
KernOnName = T;
};
},
{
glyphname = Tcedilla;
kernLeft = T;
kernRight = T;
lastChange = "2024-04-11 14:03:55 +0000";
layers = (
{
background = {
anchors = (
{
name = bottom;
pos = (270,0);
},
{
name = center;
pos = (990,523);
},
{
name = top;
pos = (1703,1446);
}
);
shapes = (
{
closed = 1;
nodes = (
(549,-2,o),
(875,187,o),
(1223,726,cs),
(1415,1024,o),
(1447,1062,o),
(1589,1155,cs),
(1604,1164,o),
(1609,1167,o),
(1609,1178,cs),
(1609,1183,o),
(1604,1187,o),
(1595,1187,cs),
(1554,1187,o),
(1340,1027,o),
(1111,763,c),
(1022,658,o),
(946,563,o),
(888,472,cs),
(697,172,o),
(468,26,o),
(267,26,cs),
(139,26,o),
(40,68,o),
(40,157,cs),
(40,163,l),
(53,155,o),
(70,153,o),
(88,153,cs),
(118,153,o),
(144,177,o),
(144,203,cs),
(144,235,o),
(115,249,o),
(94,249,cs),
(53,249,o),
(0,225,o),
(0,165,cs),
(0,60,o),
(123,-2,o),
(259,-2,cs)
);
},
{
closed = 1;
nodes = (
(990,775,o),
(1241,999,o),
(1241,1221,cs),
(1241,1241,o),
(1236,1246,o),
(1230,1246,cs),
(1226,1246,o),
(1223,1245,o),
(1218,1221,c),
(1186,1091,o),
(942,807,o),
(789,807,cs),
(705,807,o),
(664,860,o),
(664,923,cs),
(664,1096,o),
(965,1319,o),
(1204,1319,cs),
(1266,1319,o),
(1362,1310,o),
(1471,1289,c),
(1597,1262,o),
(1673,1254,o),
(1739,1254,cs),
(1963,1254,o),
(2183,1342,o),
(2284,1460,c),
(2306,1488,o),
(2317,1508,o),
(2317,1516,cs),
(2317,1523,o),
(2314,1526,o),
(2306,1526,cs),
(2302,1526,o),
(2296,1525,o),
(2287,1509,c),
(2231,1420,o),
(2074,1335,o),
(1927,1335,cs),
(1888,1335,o),
(1791,1342,o),
(1716,1355,c),
(1654,1368,o),
(1540,1384,o),
(1440,1384,cs),
(1329,1384,o),
(1169,1369,o),
(1074,1337,cs),
(820,1251,o),
(636,1064,o),
(636,930,cs),
(636,836,o),
(696,775,o),
(799,775,cs,{
name = hr00;
})
);
},
{
closed = 1;
nodes = (
(41,-359,o),
(122,-329,o),
(193,-279,cs),
(243,-243,o),
(290,-196,o),
(290,-140,cs),
(290,-96,o),
(254,-60,o),
(198,-60,cs),
(185,-60,o),
(173,-62,o),
(163,-65,c),
(225,20,l),
(197,28,l,{
name = hr00;
}),
(87,-132,l),
(103,-127,o),
(114,-125,o),
(130,-125,cs),
(178,-125,o),
(198,-143,o),
(198,-169,cs),
(198,-242,o),
(136,-291,o),
(21,-328,cs),
(3,-334,o),
(0,-340,o),
(0,-345,cs),
(0,-357,o),
(7,-359,o),
(17,-359,cs)
);
}
);
};
layerId = master01;
shapes = (
{
ref = T;
},
{
pos = (187,0);
ref = cedillacomb;
}
);
width = 1127;
}
);
metricRight = T;
unicode = 354;
},
{
glyphname = U;
kernLeft = U;
kernRight = U;
lastChange = "2024-04-12 09:31:46 +0000";
layers = (
{
anchors = (
{
name = bottom;
pos = (264,0);
},
{
name = ogonek;
pos = (785,10);
},
{
name = top;
pos = (1228,1336);
},
{
name = topright;
pos = (1532,1247);
}
);
layerId = master01;
shapes = (
{
closed = 1;
nodes = (
(217,-2,o),
(406,75,o),
(697,322,c),
(660,262,o),
(624,185,o),
(628,96,c),
(630,31,o),
(684,-2,o),
(743,-2,cs),
(840,-2,o),
(970,83,o),
(1038,145,c),
(1040,148,o),
(1043,155,o),
(1043,164,cs),
(1042,173,o),
(1040,179,o),
(1036,181,c),
(961,104,o),
(832,24,o),
(750,24,cs),
(706,24,o),
(670,42,o),
(668,90,cs),
(664,193,o),
(772,342,o),
(956,538,c),
(1083,669,o),
(1545,1211,o),
(1574,1249,c),
(1429,1249,l),
(1148,928,o),
(875,604,o),
(797,505,c),
(535,179,o),
(245,23,o),
(123,23,cs),
(77,23,o),
(58,42,o),
(57,72,cs),
(55,121,o),
(99,187,o),
(393,488,c),
(822,934,o),
(905,1130,o),
(902,1254,c),
(897,1349,o),
(814,1401,o),
(694,1401,cs),
(353,1401,o),
(-8,1110,o),
(1,899,cs,{
name = hr03;
}),
(4,824,o),
(60,779,o),
(157,779,cs),
(342,779,o),
(555,936,o),
(668,1173,c),
(695,1232,o),
(706,1288,o),
(704,1310,c),
(704,1322,o),
(702,1328,o),
(696,1328,cs),
(691,1328,o),
(687,1321,o),
(677,1298,cs),
(585,1086,o),
(287,809,o),
(132,809,cs),
(74,809,o),
(32,844,o),
(30,910,c),
(22,1089,o),
(359,1371,o),
(669,1371,cs),
(793,1371,o),
(866,1336,o),
(871,1247,c),
(873,1172,o),
(807,1070,o),
(530,809,c),
(155,449,o),
(17,221,o),
(22,82,cs,{
name = hr01;
}),
(24,33,o),
(57,-2,o),
(121,-2,cs)
);
}
);
width = 1032;
}
);
unicode = 85;
},
{
glyphname = V;
kernLeft = V;
kernRight = V;
lastChange = "2024-04-25 14:23:21 +0000";
layers = (
{
anchors = (
{
name = bottom;
pos = (-38,-57);
},
{
name = top;
pos = (1337,1446);
}
);
layerId = master01;
shapes = (
{
closed = 1;
nodes = (
(21,-43,o),
(49,-33,o),
(92,-6,cs,{
name = hr00;
}),
(673,367,o),
(1127,686,o),
(1423,940,c),
(1456,865,o),
(1524,813,o),
(1607,813,cs),
(1626,813,o),
(1648,817,o),
(1658,822,cs),
(1672,828,o),
(1678,834,o),
(1678,840,cs),
(1678,846,o),
(1672,847,o),
(1664,847,cs),
(1658,847,o),
(1653,845,o),
(1642,841,cs),
(1634,838,o),
(1623,836,o),
(1609,836,cs),
(1554,836,o),
(1485,878,o),
(1456,968,c),
(1694,1176,o),
(1822,1340,o),
(1822,1453,cs),
(1822,1510,o),
(1789,1534,o),
(1746,1534,cs),
(1593,1534,o),
(1402,1282,o),
(1402,1044,cs),
(1402,1035,o),
(1402,1027,o),
(1403,1018,c),
(1046,702,o),
(525,312,o),
(212,102,c),
(401,282,o),
(544,431,o),
(768,777,c),
(972,1089,o),
(989,1191,o),
(1066,1267,c),
(1102,1301,o),
(1123,1316,o),
(1135,1324,cs),
(1149,1333,o),
(1162,1337,o),
(1161,1347,cs),
(1161,1353,o),
(1153,1357,o),
(1148,1357,cs),
(1126,1357,o),
(1062,1302,o),
(1034,1277,c),
(759,1021,o),
(603,968,o),
(522,968,cs),
(489,968,o),
(473,982,o),
(473,1003,c),
(472,1023,o),
(494,1047,o),
(556,1109,cs),
(621,1176,o),
(671,1267,o),
(669,1322,cs),
(665,1398,o),
(589,1436,o),
(483,1436,cs),
(384,1436,o),
(273,1394,o),
(204,1338,c),
(190,1328,o),
(179,1318,o),
(180,1306,cs),
(180,1300,o),
(183,1295,o),
(191,1295,cs),
(198,1295,o),
(206,1302,o),
(216,1311,cs),
(285,1368,o),
(375,1415,o),
(481,1415,cs),
(541,1415,o),
(598,1399,o),
(600,1349,cs),
(602,1310,o),
(538,1244,o),
(498,1202,cs),
(433,1135,o),
(402,1086,o),
(404,1034,cs),
(407,975,o),
(459,942,o),
(519,942,cs),
(602,942,o),
(716,995,o),
(837,1081,c),
(729,962,o),
(587,771,o),
(460,563,c),
(274,263,o),
(148,67,o),
(49,0,cs),
(37,-9,o),
(22,-14,o),
(16,-18,c),
(4,-23,o),
(0,-27,o),
(0,-32,cs),
(0,-38,o),
(6,-43,o),
(13,-43,cs)
);
},
{
closed = 1;
nodes = (
(1442,1064,ls),
(1442,1295,o),
(1610,1509,o),
(1746,1509,cs),
(1762,1509,o),
(1787,1493,o),
(1787,1465,cs),
(1787,1392,o),
(1645,1237,o),
(1442,1053,c)
);
}
);
width = 1029;
}
);
unicode = 86;
},
{
glyphname = Vturned;
kernLeft = Vturned;
kernRight = Vturned;
lastChange = "2023-11-17 03:06:08 +0000";
layers = (
{
anchors = (
{
name = bottom;
pos = (414,0);
},
{
name = top;
pos = (1711,1446);
}
);
layerId = master01;
shapes = (
{
closed = 1;
nodes = (
(1702,1431,o),
(1674,1421,o),
(1631,1394,cs,{
name = hr00;
}),
(1050,1021,o),
(596,702,o),
(300,448,c),
(267,523,o),
(199,575,o),
(116,575,cs),
(97,575,o),
(75,571,o),
(65,566,cs),
(51,560,o),
(45,554,o),
(45,548,cs),
(45,542,o),
(51,541,o),
(59,541,cs),
(65,541,o),
(70,543,o),
(81,547,cs),
(89,550,o),
(100,552,o),
(114,552,cs),
(169,552,o),
(238,510,o),
(267,420,c),
(29,212,o),
(-99,48,o),
(-99,-65,cs),
(-99,-122,o),
(-66,-146,o),
(-23,-146,cs),
(130,-146,o),
(321,106,o),
(321,344,cs),
(321,353,o),
(321,361,o),
(320,370,c),
(677,686,o),
(1198,1076,o),
(1511,1286,c),
(1322,1106,o),
(1179,957,o),
(955,611,c),
(751,299,o),
(734,197,o),
(657,121,c),
(621,87,o),
(600,72,o),
(588,64,cs),
(574,55,o),
(561,51,o),
(562,41,cs),
(562,35,o),
(570,31,o),
(575,31,cs),
(597,31,o),
(661,86,o),
(689,111,c),
(964,367,o),
(1120,420,o),
(1201,420,cs),
(1234,420,o),
(1250,406,o),
(1250,385,c),
(1251,365,o),
(1229,341,o),
(1167,279,cs),
(1102,212,o),
(1052,121,o),
(1054,66,cs),
(1058,-10,o),
(1134,-48,o),
(1240,-48,cs),
(1339,-48,o),
(1450,-6,o),
(1519,50,c),
(1533,60,o),
(1544,70,o),
(1543,82,cs),
(1543,88,o),
(1540,93,o),
(1532,93,cs),
(1525,93,o),
(1517,86,o),
(1507,77,cs),
(1438,20,o),
(1348,-27,o),
(1242,-27,cs),
(1182,-27,o),
(1125,-11,o),
(1123,39,cs),
(1121,78,o),
(1185,144,o),
(1225,186,cs),
(1290,253,o),
(1321,302,o),
(1319,354,cs),
(1316,413,o),
(1264,446,o),
(1204,446,cs),
(1121,446,o),
(1007,393,o),
(886,307,c),
(994,426,o),
(1136,617,o),
(1263,825,c),
(1449,1125,o),
(1575,1321,o),
(1674,1388,cs),
(1686,1397,o),
(1701,1402,o),
(1707,1406,c),
(1719,1411,o),
(1723,1415,o),
(1723,1420,cs),
(1723,1426,o),
(1717,1431,o),
(1710,1431,cs)
);
},
{
closed = 1;
nodes = (
(281,324,ls),
(281,93,o),
(113,-121,o),
(-23,-121,cs),
(-39,-121,o),
(-64,-105,o),
(-64,-77,cs),
(-64,-4,o),
(78,151,o),
(281,335,c)
);
}
);
width = 1461;
}
);
unicode = 581;
},
{
glyphname = W;
kernLeft = W;
kernRight = W;
lastChange = "2022-05-18 03:32:05 +0000";
layers = (
{
anchors = (
{
name = bottom;
pos = (753,0);
},
{
name = top;
pos = (2215,1474);
}
);
layerId = master01;
shapes = (
{
closed = 1;
nodes = (
(367,-43,o),
(426,-13,o),
(475,9,cs),
(597,64,o),
(770,190,o),
(937,341,cs),
(1308,677,o),
(1507,891,o),
(1657,1034,c),
(1741,1112,o),
(1834,1181,o),
(1907,1236,c),
(1803,1111,o),
(1607,869,o),
(1552,796,c),
(1462,671,o),
(1332,466,o),
(1248,316,cs),
(1097,47,o),
(1081,28,o),
(982,-5,cs),
(966,-10,o),
(953,-17,o),
(953,-27,cs),
(953,-39,o),
(961,-43,o),
(972,-43,cs),
(1005,-43,o),
(1132,19,o),
(1278,171,cs),
(1599,506,o),
(1760,658,o),
(1947,838,cs),
(2397,1269,o),
(2608,1379,o),
(2773,1379,cs),
(2862,1379,o),
(2949,1354,o),
(2949,1269,cs),
(2949,1154,o),
(2829,1096,o),
(2748,1096,cs),
(2713,1096,o),
(2634,1115,o),
(2625,1164,cs),
(2620,1192,o),
(2616,1198,o),
(2598,1198,cs),
(2583,1198,o),
(2573,1187,o),
(2573,1165,cs),
(2573,1121,o),
(2675,1076,o),
(2750,1076,cs),
(2886,1076,o),
(3003,1155,o),
(3003,1271,cs),
(3003,1362,o),
(2918,1410,o),
(2785,1410,cs),
(2582,1410,o),
(2340,1246,o),
(2032,955,cs),
(1611,557,o),
(1544,489,o),
(1257,190,c),
(1350,310,o),
(1443,427,o),
(1480,479,c),
(1643,701,o),
(1821,1034,o),
(1943,1229,c),
(1990,1301,o),
(2060,1367,o),
(2112,1393,cs),
(2160,1417,o),
(2169,1422,o),
(2169,1432,cs),
(2169,1438,o),
(2166,1446,o),
(2154,1446,cs),
(2146,1446,o),
(2123,1435,o),
(2049,1382,c),
(1983,1333,o),
(1740,1166,o),
(1213,644,c),
(782,219,o),
(644,130,o),
(490,43,c,{
name = hr00;
}),
(731,249,o),
(933,445,o),
(1190,803,cs),
(1479,1204,o),
(1527,1265,o),
(1607,1346,c),
(1641,1383,o),
(1664,1395,o),
(1678,1403,c),
(1691,1414,o),
(1705,1417,o),
(1705,1427,cs),
(1705,1434,o),
(1697,1436,o),
(1687,1436,cs),
(1672,1436,o),
(1639,1419,o),
(1612,1392,cs),
(1578,1360,o),
(1463,1245,o),
(1412,1196,cs),
(1226,1017,o),
(1095,880,o),
(970,724,cs),
(832,551,o),
(747,432,o),
(640,275,cs),
(480,40,o),
(426,6,o),
(363,-3,c),
(326,-13,o),
(318,-18,o),
(318,-28,cs),
(318,-36,o),
(326,-43,o),
(342,-43,cs)
);
},
{
closed = 1;
nodes = (
(22,881,o),
(35,890,o),
(35,907,cs),
(35,948,o),
(65,1003,o),
(99,1044,c),
(198,1168,o),
(383,1249,o),
(540,1249,cs),
(620,1249,o),
(672,1239,o),
(760,1210,cs),
(892,1167,o),
(975,1147,o),
(1085,1147,cs),
(1222,1147,o),
(1355,1188,o),
(1503,1324,cs),
(1516,1335,o),
(1519,1339,o),
(1519,1345,cs),
(1519,1349,o),
(1516,1352,o),
(1509,1352,cs),
(1506,1352,o),
(1496,1344,o),
(1477,1328,cs),
(1374,1243,o),
(1246,1204,o),
(1174,1204,cs),
(1087,1204,o),
(1032,1222,o),
(906,1267,c),
(807,1301,o),
(695,1328,o),
(594,1328,cs),
(442,1328,o),
(257,1263,o),
(112,1109,cs),
(25,1015,o),
(0,925,o),
(0,897,cs),
(0,890,o),
(4,881,o),
(14,881,cs)
);
}
);
width = 1722;
}
);
unicode = 87;
},
{
glyphname = X;
kernLeft = X;
kernRight = X;
lastChange = "2022-05-18 03:32:05 +0000";
layers = (
{
anchors = (
{
name = bottom;
pos = (1044,0);
},
{
name = top;
pos = (1643,1388);
}
);
layerId = master01;
shapes = (
{
closed = 1;
nodes = (
(409,-2,o),
(752,190,o),
(1045,548,c),
(990,446,o),
(948,318,o),
(945,213,cs),
(942,70,o),
(1031,-2,o),
(1187,-2,cs),
(1424,-2,o),
(1752,270,o),
(1759,554,cs),
(1762,669,o),
(1700,736,o),
(1609,736,cs,{
name = hr03;
}),
(1497,736,o),
(1386,635,o),
(1384,512,cs),
(1383,441,o),
(1413,404,o),
(1441,392,c),
(1453,388,o),
(1466,386,o),
(1472,398,cs),
(1478,408,o),
(1475,418,o),
(1463,427,cs),
(1433,448,o),
(1425,481,o),
(1426,514,cs),
(1428,616,o),
(1512,711,o),
(1603,711,cs),
(1674,711,o),
(1725,658,o),
(1722,544,cs),
(1715,245,o),
(1382,22,o),
(1196,22,cs),
(1124,22,o),
(1048,49,o),
(1050,178,c),
(1054,279,o),
(1138,502,o),
(1246,683,c),
(1304,766,o),
(1345,808,o),
(1416,885,c),
(1700,1174,o),
(1986,1393,o),
(2230,1393,cs),
(2241,1393,o),
(2253,1390,o),
(2263,1387,c),
(2248,1377,o),
(2235,1356,o),
(2235,1336,c),
(2233,1311,o),
(2249,1280,o),
(2278,1280,cs),
(2304,1280,o),
(2330,1301,o),
(2332,1342,c),
(2333,1390,o),
(2290,1424,o),
(2227,1424,cs),
(1982,1424,o),
(1656,1200,o),
(1287,784,c,{
name = hr04;
}),
(1335,888,o),
(1377,1030,o),
(1381,1146,c),
(1386,1373,o),
(1278,1436,o),
(1123,1436,cs,{
name = hr05;
}),
(852,1436,o),
(490,1073,o),
(485,862,c),
(484,785,o),
(528,748,o),
(600,748,cs),
(864,748,o),
(1172,1114,o),
(1170,1302,c),
(1169,1329,o),
(1160,1335,o),
(1155,1335,cs),
(1150,1335,o),
(1146,1332,o),
(1140,1319,cs),
(1005,986,o),
(774,772,o),
(606,772,cs),
(545,772,o),
(514,798,o),
(516,862,cs),
(521,1054,o),
(854,1410,o),
(1125,1410,cs),
(1243,1410,o),
(1310,1352,o),
(1307,1229,cs),
(1304,1117,o),
(1197,870,o),
(1104,691,c),
(862,318,o),
(439,26,o),
(231,26,cs),
(124,26,o),
(41,68,o),
(41,157,cs),
(41,163,l),
(54,154,o),
(71,153,o),
(88,153,cs),
(118,153,o),
(145,177,o),
(145,203,cs),
(146,235,o),
(118,249,o),
(96,249,cs),
(55,249,o),
(3,225,o),
(1,165,c),
(-1,60,o),
(104,-2,o),
(225,-2,cs,{
name = hr01;
})
);
}
);
width = 1743;
}
);
unicode = 88;
userData = {
KernOnName = X;
};
},
{
glyphname = Y;
kernLeft = Y;
kernRight = Y;
lastChange = "2022-05-18 03:32:05 +0000";
layers = (
{
anchors = (
{
name = bottom;
pos = (1276,230);
},
{
name = top;
pos = (1516,1392);
},
{
name = topleft;
pos = (348,1388);
}
);
layerId = master01;
shapes = (
{
closed = 1;
nodes = (
(610,-230,o),
(1009,72,o),
(1283,586,c),
(1485,968,o),
(1660,1188,o),
(1825,1253,c),
(1854,1263,l),
(1867,1266,o),
(1870,1271,o),
(1870,1275,cs),
(1870,1282,o),
(1865,1287,o),
(1853,1287,cs),
(1800,1287,o),
(1672,1221,o),
(1528,1058,c),
(1047,522,o),
(828,408,o),
(741,408,cs),
(694,408,o),
(674,440,o),
(674,479,cs),
(674,552,o),
(776,672,o),
(937,829,c),
(1184,1055,o),
(1239,1183,o),
(1239,1287,cs),
(1239,1393,o),
(1127,1435,o),
(992,1435,cs),
(662,1435,o),
(265,1108,o),
(265,886,cs),
(265,815,o),
(304,768,o),
(383,768,cs),
(587,768,o),
(961,1114,o),
(941,1301,c),
(939,1311,o),
(934,1318,o),
(930,1318,cs),
(927,1318,o),
(926,1316,o),
(920,1304,c),
(899,1231,o),
(594,810,o),
(385,810,cs),
(323,810,o),
(294,841,o),
(294,895,cs),
(294,1086,o),
(682,1407,o),
(992,1407,cs),
(1121,1407,o),
(1188,1371,o),
(1188,1298,cs),
(1188,1261,o),
(1163,1218,o),
(951,1010,c),
(774,830,o),
(633,615,o),
(633,490,cs),
(633,440,o),
(663,384,o),
(738,384,cs),
(824,384,o),
(1001,464,o),
(1327,802,c),
(1233,679,o),
(1121,518,o),
(1021,370,c),
(759,-10,o),
(492,-204,o),
(306,-204,cs),
(171,-204,o),
(70,-145,o),
(70,-72,cs),
(70,-65,o),
(71,-58,o),
(73,-51,c),
(85,-56,o),
(99,-57,o),
(113,-57,cs),
(143,-57,o),
(170,-33,o),
(170,-8,cs,{
name = hr00;
}),
(170,25,o),
(140,39,o),
(120,39,cs),
(79,39,o),
(30,3,o),
(30,-56,cs),
(30,-164,o),
(149,-230,o),
(300,-230,cs)
);
}
);
width = 1290;
}
);
unicode = 89;
},
{
color = 0;
glyphname = Yhook;
kernLeft = Y;
kernRight = Y;
lastChange = "2023-10-28 18:45:11 +0000";
layers = (
{
anchors = (
{
name = bottom;
pos = (1276,230);
},
{
name = top;
pos = (1516,1392);
},
{
name = topleft;
pos = (348,1388);
}
);
layerId = master01;
shapes = (
{
closed = 1;
nodes = (
(610,-230,o),
(975,92,o),
(1283,586,cs),
(1411,791,o),
(1504,915,o),
(1543,985,c),
(1628,1089,o),
(1816,1391,o),
(2028,1391,cs),
(2201,1391,o),
(2260,1250,o),
(2226,1155,cs),
(2186,1042,o),
(2160,1028,o),
(2119,1042,c),
(2106,1054,o),
(2089,1060,o),
(2069,1060,cs),
(2019,1060,o),
(1995,1029,o),
(1990,999,cs),
(1985,966,o),
(2012,932,o),
(2075,932,cs),
(2174,932,o),
(2240,1071,o),
(2250,1109,cs),
(2305,1312,o),
(2177,1412,o),
(2028,1412,cs),
(1818,1412,o),
(1658,1274,o),
(1369,886,c),
(997,497,o),
(818,408,o),
(741,408,cs),
(694,408,o),
(674,440,o),
(674,479,cs),
(674,552,o),
(776,672,o),
(937,829,c),
(1184,1055,o),
(1239,1183,o),
(1239,1287,cs),
(1239,1393,o),
(1127,1435,o),
(992,1435,cs),
(662,1435,o),
(265,1108,o),
(265,886,cs),
(265,815,o),
(304,768,o),
(383,768,cs),
(587,768,o),
(961,1114,o),
(941,1301,c),
(939,1311,o),
(934,1318,o),
(930,1318,cs),
(927,1318,o),
(926,1316,o),
(920,1304,c),
(899,1231,o),
(594,810,o),
(385,810,cs),
(323,810,o),
(294,841,o),
(294,895,cs),
(294,1086,o),
(682,1407,o),
(992,1407,cs),
(1121,1407,o),
(1188,1371,o),
(1188,1298,cs),
(1188,1261,o),
(1163,1218,o),
(951,1010,cs),
(774,830,o),
(633,615,o),
(633,490,cs),
(633,440,o),
(663,384,o),
(738,384,cs),
(824,384,o),
(1001,464,o),
(1327,802,c),
(1233,679,o),
(1121,518,o),
(1021,370,cs),
(759,-10,o),
(492,-204,o),
(306,-204,cs),
(171,-204,o),
(70,-145,o),
(70,-72,cs),
(70,-65,o),
(71,-58,o),
(73,-51,c),
(85,-56,o),
(99,-57,o),
(113,-57,cs),
(143,-57,o),
(170,-33,o),
(170,-8,cs,{
name = hr00;
}),
(170,25,o),
(140,39,o),
(120,39,cs),
(79,39,o),
(30,3,o),
(30,-56,cs),
(30,-164,o),
(149,-230,o),
(300,-230,cs)
);
}
);
width = 1290;
}
);
metricLeft = Y;
metricWidth = Y;
unicode = 435;
},
{
glyphname = Z;
kernLeft = Z;
kernRight = Z;
lastChange = "2022-05-18 03:32:05 +0000";
layers = (
{
anchors = (
{
name = bottom;
pos = (610,0);
},
{
name = center;
pos = (1100,694);
},
{
name = top;
pos = (1330,1446);
}
);
layerId = master01;
shapes = (
{
closed = 1;
nodes = (
(1328,-47,o),
(1520,79,o),
(1520,293,cs),
(1520,396,o),
(1436,472,o),
(1321,472,cs),
(1310,472,o),
(1300,470,o),
(1290,467,cs),
(1270,461,o),
(1236,439,o),
(1246,408,cs),
(1254,383,o),
(1285,373,o),
(1314,377,c),
(1343,383,o),
(1370,405,o),
(1372,435,c),
(1455,418,o),
(1491,354,o),
(1491,292,cs),
(1491,104,o),
(1282,28,o),
(1013,49,cs),
(906,57,o),
(782,96,o),
(653,133,c),
(836,254,o),
(1029,463,o),
(1239,782,cs),
(1396,1020,o),
(1613,1269,o),
(1708,1335,c),
(1737,1352,o),
(1745,1359,o),
(1773,1374,c),
(1786,1384,o),
(1791,1392,o),
(1791,1399,cs),
(1791,1406,o),
(1785,1409,o),
(1778,1409,cs),
(1768,1409,o),
(1757,1406,o),
(1738,1389,cs,{
name = hr03;
}),
(1689,1344,o),
(1602,1301,o),
(1518,1301,cs),
(1314,1301,o),
(1223,1401,o),
(964,1401,cs),
(682,1401,o),
(456,1181,o),
(449,972,c),
(446,912,o),
(492,825,o),
(595,825,cs),
(776,825,o),
(970,999,o),
(953,1195,cs),
(951,1219,o),
(938,1239,o),
(934,1239,cs),
(930,1239,o),
(924,1236,o),
(923,1224,cs),
(912,1118,o),
(756,849,o),
(584,849,cs,{
name = hr04;
}),
(515,849,o),
(473,911,o),
(475,970,cs),
(482,1145,o),
(668,1321,o),
(834,1327,cs),
(1077,1336,o),
(1158,1242,o),
(1377,1242,cs),
(1464,1242,o),
(1553,1264,o),
(1624,1299,c),
(1340,1095,o),
(1151,873,o),
(966,619,cs),
(811,407,o),
(683,254,o),
(569,156,c),
(478,179,o),
(385,197,o),
(297,197,cs),
(131,197,o),
(42,146,o),
(40,91,cs,{
name = hr01;
}),
(39,42,o),
(113,-2,o),
(259,-2,cs),
(361,-2,o),
(469,27,o),
(583,90,c),
(747,30,o),
(914,-47,o),
(1087,-47,cs)
);
},
{
closed = 1;
nodes = (
(122,22,o),
(69,59,o),
(71,90,cs,{
name = hr06;
}),
(73,141,o),
(180,163,o),
(268,163,cs),
(350,163,o),
(433,142,o),
(517,114,c),
(432,52,o),
(350,22,o),
(262,22,cs)
);
}
);
width = 1595;
}
);
unicode = 90;
},
{
glyphname = Saltillo;
kernLeft = Saltillo;
kernRight = Saltillo;
lastChange = "2022-05-18 03:32:05 +0000";
layers = (
{
layerId = master01;
shapes = (
{
closed = 1;
nodes = (
(341,424,o),
(348,427,o),
(357,440,cs),
(383,476,o),
(455,579,o),
(572,743,cs),
(699,923,o),
(840,1129,o),
(1071,1388,c),
(1054,1385,o),
(1014,1384,o),
(1004,1384,cs),
(951,1382,o),
(913,1385,o),
(897,1388,c),
(856,1328,ls),
(765,1194,o),
(467,709,o),
(343,479,cs),
(330,456,o),
(325,442,o),
(325,435,cs),
(325,427,o),
(329,424,o),
(335,424,cs,{
name = hr00;
})
);
}
);
width = 486;
}
);
unicode = 42891;
},
{
glyphname = C.alt;
kernLeft = C.alt;
kernRight = C.alt;
lastChange = "2022-05-18 03:32:05 +0000";
layers = (
{
anchors = (
{
name = bottom;
pos = (542,0);
},
{
name = top;
pos = (1614,1446);
}
);
layerId = master01;
shapes = (
{
closed = 1;
nodes = (
(977,-2,o),
(1294,364,o),
(1294,593,cs),
(1294,677,o),
(1233,733,o),
(1121,733,cs),
(825,733,o),
(528,395,o),
(536,29,c),
(446,47,o),
(382,108,o),
(382,213,cs),
(382,351,o),
(512,552,o),
(691,748,c),
(1122,769,o),
(1716,1099,o),
(1716,1327,cs),
(1716,1381,o),
(1673,1401,o),
(1616,1401,cs),
(1275,1401,o),
(818,1118,o),
(546,782,c),
(415,811,o),
(343,894,o),
(343,979,cs,{
name = hr04;
}),
(343,1225,o),
(722,1446,o),
(988,1446,cs),
(1021,1446,o),
(1046,1442,o),
(1061,1442,cs),
(1069,1442,o),
(1074,1444,o),
(1074,1450,cs),
(1074,1460,o),
(1037,1467,o),
(993,1467,cs),
(628,1467,o),
(300,1219,o),
(300,1020,cs),
(300,897,o),
(375,794,o),
(528,759,c),
(398,592,o),
(315,414,o),
(315,251,cs,{
name = hr01;
}),
(315,95,o),
(419,-2,o),
(575,-2,cs)
);
},
{
closed = 1;
nodes = (
(576,24,o),
(566,24,o),
(557,25,c),
(557,26,l),
(557,404,o),
(883,706,o),
(1110,706,cs),
(1173,706,o),
(1202,683,o),
(1202,628,cs),
(1202,440,o),
(856,24,o),
(586,24,cs)
);
},
{
closed = 1;
nodes = (
(1008,1086,o),
(1416,1377,o),
(1614,1377,cs),
(1661,1377,o),
(1692,1362,o),
(1692,1324,cs),
(1692,1160,o),
(1083,813,o),
(716,775,c,{
name = hr06;
})
);
}
);
width = 1286;
}
);
metricLeft = C;
metricRight = C;
},
{
glyphname = a;
kernLeft = a;
kernRight = a;
lastChange = "2023-11-17 03:58:50 +0000";
layers = (
{
anchors = (
{
name = bottom;
pos = (89,13);
},
{
name = ogonek;
pos = (566,25);
},
{
name = top;
pos = (647,760);
}
);
layerId = master01;
shapes = (
{
closed = 1;
nodes = (
(182,-2,o),
(328,72,o),
(491,272,c),
(501,268,l),
(397,141,o),
(380,106,o),
(380,60,cs),
(380,21,o),
(412,-2,o),
(480,-2,cs),
(683,-2,o),
(915,308,o),
(990,391,c),
(970,408,l),
(903,333,o),
(675,26,o),
(495,26,cs),
(474,26,o),
(464,39,o),
(464,58,cs),
(464,93,o),
(498,154,o),
(584,255,c),
(921,661,l),
(904,658,o),
(864,657,o),
(846,657,cs),
(824,657,o),
(799,661,o),
(786,665,c),
(758,630,o),
(730,594,o),
(688,544,c),
(696,564,o),
(700,584,o),
(700,603,cs),
(700,654,o),
(645,685,o),
(576,685,cs),
(438,685,o),
(283,632,o),
(103,423,c),
(15,323,o),
(-20,218,o),
(-20,129,cs),
(-20,47,o),
(17,-2,o),
(103,-2,cs,{
name = hr00;
})
);
},
{
closed = 1;
nodes = (
(76,28,o),
(62,42,o),
(62,80,cs),
(62,144,o),
(103,238,o),
(203,358,cs),
(377,565,o),
(536,654,o),
(602,654,cs),
(637,654,o),
(672,635,o),
(672,594,cs),
(672,552,o),
(643,498,o),
(612,452,c),
(587,423,o),
(560,390,o),
(528,351,cs),
(332,119,o),
(192,28,o),
(107,28,cs)
);
}
);
width = 856;
}
);
unicode = 97;
userData = {
KernOnName = a;
};
},
{
glyphname = ae;
kernLeft = a;
kernRight = e;
lastChange = "2022-05-18 03:32:05 +0000";
layers = (
{
anchors = (
{
name = bottom;
pos = (443,0);
},
{
name = top;
pos = (869,760);
}
);
layerId = master01;
shapes = (
{
closed = 1;
nodes = (
(1086,-6,o),
(1314,344,o),
(1364,389,c),
(1342,406,l),
(1305,373,o),
(1078,23,o),
(765,23,cs),
(708,23,o),
(658,59,o),
(658,122,cs),
(658,165,o),
(670,216,o),
(717,291,c),
(1116,423,o),
(1230,541,o),
(1225,619,cs),
(1222,654,o),
(1194,685,o),
(1113,685,cs),
(1027,685,o),
(908,644,o),
(794,554,c),
(869,661,l),
(852,658,o),
(822,657,o),
(804,657,cs),
(782,657,o),
(769,661,o),
(755,665,c),
(736,640,o),
(719,614,o),
(698,583,c),
(699,590,o),
(700,596,o),
(700,603,cs),
(700,654,o),
(655,685,o),
(585,685,cs),
(447,685,o),
(283,632,o),
(103,423,c),
(15,323,o),
(-20,218,o),
(-20,129,cs,{
name = hr01;
}),
(-20,47,o),
(17,-2,o),
(103,-2,cs),
(230,-2,o),
(458,164,o),
(619,356,c),
(592,303,o),
(567,227,o),
(569,170,cs),
(573,71,o),
(624,-6,o),
(754,-6,cs,{
name = hr02;
})
);
},
{
closed = 1;
nodes = (
(77,28,o),
(62,42,o),
(62,80,cs),
(62,144,o),
(105,235,o),
(206,356,cs),
(380,562,o),
(545,654,o),
(611,654,cs),
(647,654,o),
(672,635,o),
(672,594,cs),
(672,564,o),
(655,526,o),
(634,489,c),
(604,449,o),
(568,401,o),
(518,341,cs),
(322,108,o),
(192,28,o),
(108,28,cs)
);
},
{
closed = 1;
nodes = (
(752,343,o),
(765,361,o),
(780,380,cs),
(919,562,o),
(1016,661,o),
(1107,661,cs),
(1139,661,o),
(1160,644,o),
(1160,605,cs),
(1160,517,o),
(1000,416,o),
(740,327,c)
);
}
);
width = 1231;
}
);
metricLeft = a;
metricRight = e;
unicode = 230;
},
{
glyphname = b;
kernLeft = b;
kernRight = b;
lastChange = "2022-05-18 03:32:05 +0000";
layers = (
{
anchors = (
{
name = bottom;
pos = (77,0);
},
{
name = top;
pos = (1053,1595);
}
);
layerId = master01;
shapes = (
{
closed = 1;
nodes = (
(224,-10,o),
(374,39,o),
(505,185,c),
(530,209,o),
(551,232,o),
(569,256,c),
(573,213,o),
(595,186,o),
(652,186,cs),
(755,186,o),
(877,340,o),
(921,389,c),
(900,406,l),
(867,364,o),
(740,211,o),
(652,211,c),
(601,213,o),
(596,243,o),
(596,264,cs),
(596,275,o),
(595,285,o),
(597,294,c),
(636,354,o),
(660,419,o),
(683,510,cs,{
name = hr03;
}),
(688,527,o),
(690,545,o),
(691,563,cs),
(692,613,o),
(674,655,o),
(633,655,cs),
(586,655,o),
(573,611,o),
(571,579,cs),
(570,548,o),
(584,531,o),
(583,492,cs),
(583,477,o),
(571,343,o),
(514,274,c),
(416,99,o),
(259,15,o),
(130,15,cs),
(93,15,o),
(55,31,o),
(55,100,cs),
(55,188,o),
(145,348,o),
(454,727,c),
(975,931,o),
(1311,1313,o),
(1311,1522,cs),
(1311,1557,o),
(1286,1579,o),
(1238,1579,cs),
(1000,1579,o),
(456,943,o),
(245,628,cs),
(95,402,o),
(0,247,o),
(0,119,cs),
(0,49,o),
(40,-10,o),
(128,-10,cs,{
name = hr01;
})
);
},
{
closed = 1;
nodes = (
(575,873,ls),
(855,1211,o),
(1112,1558,o),
(1238,1558,cs),
(1262,1558,o),
(1277,1545,o),
(1277,1522,cs),
(1277,1364,o),
(910,931,o),
(487,767,c)
);
}
);
width = 787;
}
);
unicode = 98;
},
{
color = 0;
glyphname = bhook;
kernLeft = b;
kernRight = b;
lastChange = "2023-10-28 18:46:07 +0000";
layers = (
{
anchors = (
{
name = bottom;
pos = (77,0);
},
{
name = top;
pos = (1053,1595);
}
);
layerId = master01;
shapes = (
{
closed = 1;
nodes = (
(1441,1558,o),
(1500,1417,o),
(1466,1322,cs),
(1426,1209,o),
(1400,1195,o),
(1359,1209,c),
(1346,1221,o),
(1329,1227,o),
(1309,1227,cs),
(1259,1227,o),
(1235,1196,o),
(1230,1166,cs),
(1225,1133,o),
(1252,1099,o),
(1315,1099,cs),
(1414,1099,o),
(1480,1238,o),
(1490,1276,cs),
(1545,1479,o),
(1417,1579,o),
(1268,1579,cs),
(940,1579,o),
(456,943,o),
(245,628,cs),
(95,402,o),
(0,247,o),
(0,119,cs),
(0,49,o),
(40,-10,o),
(128,-10,cs,{
name = hr01;
}),
(224,-10,o),
(374,39,o),
(505,185,c),
(530,209,o),
(551,232,o),
(569,256,c),
(573,213,o),
(595,186,o),
(652,186,cs),
(755,186,o),
(877,340,o),
(921,389,c),
(900,406,l),
(867,364,o),
(740,211,o),
(652,211,cs),
(601,213,o),
(596,243,o),
(596,264,cs),
(596,275,o),
(595,285,o),
(597,294,c),
(636,354,o),
(660,419,o),
(683,510,cs,{
name = hr03;
}),
(688,527,o),
(690,545,o),
(691,563,cs),
(692,613,o),
(674,655,o),
(633,655,cs),
(586,655,o),
(573,611,o),
(571,579,cs),
(570,548,o),
(584,531,o),
(583,492,cs),
(583,477,o),
(571,343,o),
(514,274,c),
(416,99,o),
(259,15,o),
(130,15,cs),
(93,15,o),
(55,31,o),
(55,100,cs),
(55,230,o),
(227,449,o),
(575,873,cs),
(855,1211,o),
(1039,1558,o),
(1268,1558,cs)
);
}
);
width = 787;
}
);
metricLeft = b;
metricWidth = b;
unicode = 595;
},
{
glyphname = c;
kernLeft = o;
kernRight = c;
lastChange = "2023-11-17 03:01:09 +0000";
layers = (
{
anchors = (
{
name = bottom;
pos = (176,-6);
},
{
name = top;
pos = (572,760);
}
);
background = {
shapes = (
{
closed = 1;
nodes = (
(548,-6,o),
(798,370,o),
(817,389,c),
(823,397,o),
(802,412,o),
(795,404,c),
(777,386,o),
(536,23,o),
(213,23,cs),
(145,23,o),
(97,71,o),
(97,129,cs),
(97,187,o),
(119,260,o),
(192,357,cs),
(349,562,o),
(474,659,o),
(564,659,cs),
(618,659,o),
(640,635,o),
(640,601,cs),
(640,597,l),
(625,604,o),
(606,609,o),
(589,608,cs),
(548,606,o),
(513,578,o),
(514,541,cs),
(515,502,o),
(548,482,o),
(579,482,cs),
(631,482,o),
(688,535,o),
(685,592,cs),
(683,635,o),
(653,682,o),
(564,685,cs),
(447,689,o),
(269,629,o),
(124,459,cs),
(40,359,o),
(0,261,o),
(0,174,cs),
(0,74,o),
(65,-6,o),
(207,-6,cs,{
name = hr00;
})
);
}
);
};
layerId = master01;
shapes = (
{
closed = 1;
nodes = (
(521,-6,o),
(773,323,o),
(817,389,c),
(823,397,o),
(802,412,o),
(795,404,c),
(749,343,o),
(514,23,o),
(213,23,cs),
(145,23,o),
(97,71,o),
(97,129,cs),
(97,187,o),
(119,260,o),
(192,357,cs),
(349,562,o),
(474,659,o),
(564,659,cs),
(618,659,o),
(640,635,o),
(640,601,cs),
(640,597,l),
(625,604,o),
(606,609,o),
(589,608,cs),
(548,606,o),
(513,578,o),
(514,541,cs),
(515,502,o),
(548,482,o),
(579,482,cs),
(631,482,o),
(688,535,o),
(685,592,cs),
(683,635,o),
(653,682,o),
(564,685,cs),
(447,689,o),
(269,629,o),
(124,459,cs),
(40,359,o),
(0,261,o),
(0,174,cs),
(0,74,o),
(65,-6,o),
(207,-6,cs,{
name = hr00;
})
);
}
);
width = 684;
}
);
unicode = 99;
},
{
glyphname = d;
kernLeft = d;
kernRight = d;
lastChange = "2022-05-18 03:32:05 +0000";
layers = (
{
anchors = (
{
name = _stemr;
pos = (1206,1191);
},
{
name = bottom;
pos = (127,0);
},
{
name = center;
pos = (387,340);
},
{
name = top;
pos = (620,854);
},
{
name = topright;
pos = (1580,1121);
}
);
layerId = master01;
shapes = (
{
closed = 1;
nodes = (
(209,-2,o),
(337,70,o),
(518,272,c),
(526,268,l),
(445,171,o),
(407,111,o),
(406,66,cs),
(406,26,o),
(431,-2,o),
(497,-2,cs),
(733,-2,o),
(994,347,o),
(1037,389,c),
(1015,406,l),
(977,368,o),
(734,28,o),
(513,28,cs),
(493,28,o),
(488,36,o),
(488,55,cs),
(488,89,o),
(528,147,o),
(605,250,c),
(1555,1582,l),
(1538,1580,o),
(1523,1579,o),
(1512,1579,cs),
(1477,1579,o),
(1447,1587,o),
(1428,1595,c),
(1137,1187,o),
(882,817,o),
(722,586,c),
(722,592,o),
(723,597,o),
(723,603,cs),
(723,658,o),
(656,685,o),
(601,685,cs),
(470,685,o),
(306,632,o),
(126,423,c),
(38,323,o),
(1,218,o),
(1,129,cs),
(1,47,o),
(44,-2,o),
(128,-2,cs,{
name = hr00;
})
);
},
{
closed = 1;
nodes = (
(104,28,o),
(85,42,o),
(85,80,cs),
(85,144,o),
(128,235,o),
(228,356,c),
(403,562,o),
(552,654,o),
(617,654,cs),
(654,654,o),
(693,635,o),
(693,594,cs),
(693,570,o),
(684,542,o),
(670,513,c),
(612,430,o),
(572,373,o),
(554,351,cs),
(493,277,o),
(435,222,o),
(383,173,c),
(260,62,o),
(188,28,o),
(135,28,cs)
);
}
);
width = 904;
}
);
metricLeft = o;
unicode = 100;
userData = {
KernOnName = d;
};
},
{
color = 0;
glyphname = dhook;
kernLeft = d;
kernRight = d;
lastChange = "2023-10-28 18:46:12 +0000";
layers = (
{
anchors = (
{
name = bottom;
pos = (127,0);
},
{
name = center;
pos = (387,340);
},
{
name = top;
pos = (620,854);
},
{
name = topright;
pos = (1580,1121);
}
);
layerId = master01;
shapes = (
{
closed = 1;
nodes = (
(209,-2,o),
(337,70,o),
(518,272,c),
(526,268,l),
(445,171,o),
(407,111,o),
(406,66,cs),
(406,26,o),
(431,-2,o),
(497,-2,cs),
(733,-2,o),
(994,347,o),
(1037,389,c),
(1015,406,l),
(977,368,o),
(734,28,o),
(513,28,cs),
(493,28,o),
(488,36,o),
(488,55,cs),
(488,89,o),
(528,147,o),
(605,250,cs),
(1046,869,l),
(1326,1207,o),
(1510,1554,o),
(1739,1554,cs),
(1912,1554,o),
(1971,1413,o),
(1937,1318,cs),
(1897,1205,o),
(1871,1191,o),
(1830,1205,c),
(1817,1217,o),
(1800,1223,o),
(1780,1223,cs),
(1730,1223,o),
(1706,1192,o),
(1701,1162,cs),
(1696,1129,o),
(1723,1095,o),
(1786,1095,cs),
(1885,1095,o),
(1951,1234,o),
(1961,1272,cs),
(2016,1475,o),
(1888,1575,o),
(1739,1575,cs),
(1411,1575,o),
(933,901,o),
(722,586,c),
(723,603,ls),
(723,658,o),
(656,685,o),
(601,685,cs),
(470,685,o),
(306,632,o),
(126,423,cs),
(38,323,o),
(1,218,o),
(1,129,cs),
(1,47,o),
(44,-2,o),
(128,-2,cs,{
name = hr00;
})
);
},
{
closed = 1;
nodes = (
(104,28,o),
(85,42,o),
(85,80,cs),
(85,144,o),
(128,235,o),
(228,356,cs),
(403,562,o),
(552,654,o),
(617,654,cs),
(654,654,o),
(693,635,o),
(693,594,cs),
(693,570,o),
(684,542,o),
(670,513,c),
(612,430,o),
(572,373,o),
(554,351,cs),
(493,277,o),
(435,222,o),
(383,173,cs),
(260,62,o),
(188,28,o),
(135,28,cs)
);
}
);
width = 904;
}
);
metricLeft = d;
metricWidth = d;
unicode = 599;
},
{
color = 1;
glyphname = dtail;
lastChange = "2024-04-25 14:30:49 +0000";
layers = (
{
anchors = (
{
name = bottom;
pos = (127,0);
},
{
name = center;
pos = (387,340);
},
{
name = top;
pos = (620,854);
}
);
layerId = master01;
shapes = (
{
closed = 1;
nodes = (
(209,-2,o),
(337,70,o),
(518,272,c),
(526,268,l),
(445,171,o),
(198,-183,o),
(197,-228,cs),
(197,-268,o),
(222,-296,o),
(288,-296,cs),
(484,-296,o),
(612,-123,o),
(646,-81,c),
(624,-64,l),
(595,-102,o),
(483,-266,o),
(304,-266,cs),
(284,-266,o),
(279,-258,o),
(279,-239,cs),
(279,-205,o),
(528,147,o),
(605,250,c),
(1555,1582,l),
(1538,1580,o),
(1523,1579,o),
(1512,1579,cs),
(1477,1579,o),
(1447,1587,o),
(1428,1595,c),
(1137,1187,o),
(882,817,o),
(722,586,c),
(722,592,o),
(723,597,o),
(723,603,cs),
(723,658,o),
(656,685,o),
(601,685,cs),
(470,685,o),
(306,632,o),
(126,423,c),
(38,323,o),
(1,218,o),
(1,129,cs),
(1,47,o),
(44,-2,o),
(128,-2,cs,{
name = hr00;
})
);
},
{
closed = 1;
nodes = (
(104,28,o),
(85,42,o),
(85,80,cs),
(85,144,o),
(128,235,o),
(228,356,c),
(403,562,o),
(552,654,o),
(617,654,cs),
(654,654,o),
(693,635,o),
(693,594,cs),
(693,570,o),
(684,542,o),
(670,513,c),
(612,430,o),
(572,373,o),
(554,351,cs),
(493,277,o),
(435,222,o),
(383,173,c),
(260,62,o),
(188,28,o),
(135,28,cs)
);
}
);
width = 904;
}
);
unicode = 598;
},
{
glyphname = eth;
kernLeft = eth;
kernRight = eth;
lastChange = "2022-05-18 03:32:05 +0000";
layers = (
{
layerId = master01;
shapes = (
{
closed = 1;
nodes = (
(267,-2,o),
(381,51,o),
(488,147,c),
(475,116,o),
(472,93,o),
(472,71,cs),
(472,27,o),
(495,-2,o),
(558,-2,cs),
(726,-2,o),
(985,347,o),
(1024,389,c),
(1003,406,l),
(959,356,o),
(710,24,o),
(561,24,cs),
(520,24,o),
(504,39,o),
(504,70,cs),
(504,102,o),
(519,151,o),
(551,209,c),
(644,311,o),
(731,446,o),
(805,609,cs),
(882,778,o),
(920,929,o),
(928,1060,c),
(1149,1145,l),
(1147,1155,o),
(1145,1163,o),
(1146,1176,c),
(930,1092,l),
(930,1110,ls),
(930,1214,o),
(912,1293,o),
(879,1362,cs),
(870,1382,o),
(866,1384,o),
(857,1384,cs),
(852,1384,o),
(845,1379,o),
(845,1369,cs),
(845,1362,o),
(847,1353,o),
(854,1335,cs),
(870,1290,o),
(878,1239,o),
(878,1181,c),
(877,1145,o),
(873,1107,o),
(866,1068,c),
(646,983,l),
(649,972,o),
(650,963,o),
(650,953,c),
(859,1033,l),
(830,901,o),
(768,750,o),
(679,593,c),
(662,653,o),
(613,685,o),
(538,685,cs),
(507,685,o),
(459,681,o),
(409,665,c),
(192,592,o),
(0,340,o),
(0,155,cs),
(0,64,o),
(54,-2,o),
(155,-2,cs,{
name = hr00;
})
);
},
{
closed = 1;
nodes = (
(110,26,o),
(82,52,o),
(82,100,cs),
(82,172,o),
(116,243,o),
(224,376,c),
(380,573,o),
(480,644,o),
(559,644,cs),
(620,644,o),
(651,612,o),
(658,556,c),
(603,462,o),
(538,365,o),
(466,268,cs),
(323,75,o),
(249,26,o),
(152,26,cs)
);
}
);
width = 891;
}
);
unicode = 240;
},
{
glyphname = e;
kernLeft = o;
kernRight = e;
lastChange = "2024-04-11 14:01:44 +0000";
layers = (
{
anchors = (
{
name = bottom;
pos = (154,0);
},
{
name = ogonek;
pos = (342,35);
},
{
name = top;
pos = (593,727);
}
);
layerId = master01;
shapes = (
{
closed = 1;
nodes = (
(516,-6,o),
(744,344,o),
(794,389,c),
(773,406,l),
(736,373,o),
(509,23,o),
(196,23,cs),
(139,23,o),
(90,59,o),
(90,122,cs),
(90,165,o),
(102,216,o),
(149,291,c),
(547,423,o),
(661,541,o),
(656,619,cs),
(654,654,o),
(626,685,o),
(545,685,cs),
(418,685,o),
(219,597,o),
(71,391,cs),
(37,344,o),
(-1,242,o),
(1,170,cs),
(3,71,o),
(54,-6,o),
(185,-6,cs,{
name = hr00;
})
);
},
{
closed = 1;
nodes = (
(183,343,o),
(196,361,o),
(211,380,cs),
(350,562,o),
(448,661,o),
(538,661,cs),
(571,661,o),
(590,644,o),
(590,605,cs),
(590,517,o),
(431,416,o),
(172,326,c)
);
}
);
width = 661;
}
);
unicode = 101;
userData = {
KernOnName = e;
};
},
{
glyphname = schwa;
kernLeft = schwa;
kernRight = schwa;
lastChange = "2023-11-17 03:05:21 +0000";
layers = (
{
anchors = (
{
name = bottom;
pos = (143,0);
},
{
name = top;
pos = (580,760);
}
);
layerId = master01;
shapes = (
{
closed = 1;
nodes = (
(307,-11,o),
(506,77,o),
(654,283,cs),
(688,330,o),
(726,432,o),
(724,504,cs),
(722,603,o),
(671,680,o),
(540,680,cs,{
name = hr00;
}),
(299,680,o),
(157,447,o),
(107,402,c),
(131,389,l),
(168,422,o),
(306,651,o),
(529,651,cs),
(586,651,o),
(635,615,o),
(635,552,cs),
(635,509,o),
(623,458,o),
(576,383,c),
(178,251,o),
(64,133,o),
(69,55,cs),
(71,20,o),
(99,-11,o),
(180,-11,cs)
);
},
{
closed = 1;
nodes = (
(154,13,o),
(135,30,o),
(135,69,cs),
(135,157,o),
(294,258,o),
(553,348,c),
(542,331,o),
(529,313,o),
(514,294,cs),
(375,112,o),
(277,13,o),
(187,13,cs)
);
}
);
width = 725;
}
);
metricRight = "=|o";
unicode = 601;
},
{
glyphname = f;
kernLeft = f;
kernRight = f;
lastChange = "2022-05-18 03:32:05 +0000";
layers = (
{
anchors = (
{
name = bottom;
pos = (341,0);
},
{
name = top;
pos = (620,1341);
}
);
layerId = master01;
shapes = (
{
closed = 1;
nodes = (
(-62,-787,o),
(153,-322,o),
(188,144,c,{
name = hr00;
}),
(229,208,l),
(262,184,o),
(303,167,o),
(354,162,cs),
(631,133,o),
(773,348,o),
(816,389,c),
(793,405,l),
(724,321,o),
(600,171,o),
(355,187,cs),
(310,190,o),
(273,207,o),
(244,232,c),
(315,342,l),
(727,601,o),
(1266,1210,o),
(1254,1493,c),
(1253,1541,o),
(1225,1579,o),
(1168,1579,cs),
(1066,1579,o),
(893,1396,o),
(702,1123,cs),
(653,1054,o),
(566,905,o),
(182,319,c),
(174,336,o),
(168,353,o),
(165,368,c),
(198,385,o),
(230,435,o),
(230,465,cs),
(230,504,o),
(206,526,o),
(176,526,cs),
(142,526,o),
(118,496,o),
(111,453,cs),
(106,416,o),
(119,346,o),
(159,284,c),
(68,147,ls),
(-331,-454,o),
(-400,-581,o),
(-394,-690,c),
(-393,-746,o),
(-351,-787,o),
(-296,-787,cs)
);
},
{
closed = 1;
nodes = (
(-316,-762,o),
(-334,-742,o),
(-334,-720,cs),
(-334,-634,o),
(-92,-282,o),
(155,94,c),
(108,-419,o),
(-174,-762,o),
(-289,-762,cs)
);
},
{
closed = 1;
nodes = (
(557,718,o),
(708,952,o),
(893,1245,cs),
(1052,1496,o),
(1120,1556,o),
(1163,1556,cs),
(1188,1556,o),
(1208,1536,o),
(1209,1499,cs),
(1218,1240,o),
(720,648,o),
(351,398,c)
);
}
);
width = 682;
}
);
unicode = 102;
userData = {
KernOnName = f;
};
},
{
glyphname = g;
kernLeft = g;
kernRight = g;
lastChange = "2022-05-18 03:32:05 +0000";
layers = (
{
anchors = (
{
name = bottom;
pos = (350,-487);
},
{
name = top;
pos = (747,760);
}
);
layerId = master01;
shapes = (
{
closed = 1;
nodes = (
(-256,-787,o),
(-123,-705,o),
(274,-214,c),
(572,-72,o),
(820,110,o),
(1053,389,c),
(1033,406,l),
(822,152,o),
(591,-26,o),
(312,-168,c),
(404,-52,o),
(511,84,o),
(635,246,c),
(957,661,l),
(940,658,o),
(900,657,o),
(883,657,cs),
(860,657,o),
(835,661,o),
(820,665,c),
(794,629,o),
(767,595,o),
(726,544,c),
(734,564,o),
(738,584,o),
(738,603,cs),
(737,654,o),
(681,685,o),
(594,685,cs),
(468,685,o),
(297,632,o),
(126,423,cs),
(41,323,o),
(7,218,o),
(7,129,cs),
(9,47,o),
(48,-2,o),
(132,-2,cs,{
name = hr00;
}),
(216,-2,o),
(359,73,o),
(534,272,c),
(542,268,l),
(379,64,o),
(248,-100,o),
(139,-233,c),
(-427,-473,o),
(-574,-609,o),
(-570,-720,cs),
(-570,-751,o),
(-527,-787,o),
(-471,-787,cs)
);
},
{
closed = 1;
nodes = (
(-510,-760,o),
(-537,-735,o),
(-537,-720,cs),
(-537,-604,o),
(-366,-480,o),
(104,-276,c),
(-223,-672,o),
(-332,-760,o),
(-468,-760,cs)
);
},
{
closed = 1;
nodes = (
(106,28,o),
(92,42,o),
(90,80,cs),
(89,144,o),
(133,234,o),
(231,356,cs),
(396,562,o),
(557,654,o),
(620,654,cs),
(675,654,o),
(709,635,o),
(710,594,c),
(710,550,o),
(679,493,o),
(647,446,c),
(569,351,l),
(363,111,o),
(214,28,o),
(139,28,cs)
);
}
);
width = 920;
}
);
unicode = 103;
},
{
glyphname = h;
kernLeft = h;
kernRight = n;
lastChange = "2024-04-11 14:27:51 +0000";
layers = (
{
anchors = (
{
name = bottom;
pos = (223,0);
},
{
name = center;
pos = (454,380);
},
{
name = top;
pos = (1002,1562);
}
);
layerId = master01;
shapes = (
{
closed = 1;
nodes = (
(754,-2,o),
(999,345,o),
(1041,389,c),
(1019,406,l),
(984,369,o),
(742,26,o),
(532,26,cs),
(496,26,o),
(461,36,o),
(461,49,cs),
(461,66,o),
(465,75,o),
(532,147,cs),
(755,388,o),
(815,504,o),
(819,584,cs),
(821,634,o),
(787,685,o),
(701,685,cs),
(658,685,o),
(600,674,o),
(534,632,c),
(439,568,o),
(300,441,o),
(96,207,c),
(91,218,l),
(1083,1595,l),
(1065,1593,o),
(1050,1591,o),
(1040,1591,cs),
(987,1589,o),
(961,1593,o),
(944,1595,c),
(-163,14,l),
(-148,18,o),
(-115,24,o),
(-67,24,cs),
(-48,24,o),
(-30,23,o),
(-9,19,c,{
name = hr00;
}),
(83,141,l),
(279,385,o),
(438,531,o),
(543,603,c),
(605,644,o),
(661,660,o),
(692,660,cs),
(729,660,o),
(739,643,o),
(739,624,cs),
(739,592,o),
(705,531,o),
(600,413,cs),
(404,193,o),
(387,129,o),
(387,75,cs),
(387,28,o),
(458,-2,o),
(520,-2,cs)
);
}
);
width = 908;
}
);
unicode = 104;
},
{
glyphname = hbar;
kernLeft = h;
kernRight = n;
lastChange = "2022-05-18 03:32:05 +0000";
layers = (
{
layerId = master01;
shapes = (
{
closed = 1;
nodes = (
(754,-2,o),
(999,345,o),
(1041,389,c),
(1019,406,l),
(984,369,o),
(742,26,o),
(532,26,cs),
(496,26,o),
(461,36,o),
(461,49,cs),
(461,66,o),
(465,75,o),
(532,147,cs),
(755,388,o),
(815,504,o),
(819,584,cs),
(821,634,o),
(787,685,o),
(701,685,cs),
(658,685,o),
(600,674,o),
(534,632,c),
(439,568,o),
(300,441,o),
(96,207,c),
(91,218,l),
(782,1178,l),
(1056,1178,l),
(1058,1186,o),
(1061,1197,o),
(1068,1205,c),
(802,1205,l),
(1083,1595,l),
(1065,1593,o),
(1050,1591,o),
(1040,1591,cs),
(987,1589,o),
(961,1593,o),
(944,1595,c),
(671,1205,l),
(550,1205,l),
(544,1197,o),
(535,1186,o),
(525,1178,c),
(652,1178,l),
(-163,14,l),
(-148,18,o),
(-115,24,o),
(-67,24,cs),
(-48,24,o),
(-30,23,o),
(-9,19,c,{
name = hr00;
}),
(83,141,l),
(279,385,o),
(438,531,o),
(543,603,c),
(605,644,o),
(661,660,o),
(692,660,cs),
(729,660,o),
(739,643,o),
(739,624,cs),
(739,592,o),
(705,531,o),
(600,413,cs),
(404,193,o),
(387,129,o),
(387,75,cs),
(387,28,o),
(458,-2,o),
(520,-2,cs)
);
}
);
width = 908;
}
);
metricLeft = h;
metricRight = h;
unicode = 295;
},
{
glyphname = i;
kernLeft = i;
kernRight = i;
lastChange = "2023-11-17 03:03:51 +0000";
layers = (
{
anchors = (
{
name = bottom;
pos = (-44,31);
}
);
layerId = master01;
shapes = (
{
closed = 1;
nodes = (
(275,-2,o),
(549,350,o),
(587,389,c),
(567,407,l),
(548,386,o),
(252,26,o),
(73,26,cs),
(50,26,o),
(0,25,o),
(0,60,cs),
(0,115,o),
(79,218,o),
(469,677,c),
(458,676,o),
(450,675,o),
(427,675,cs),
(402,675,o),
(343,676,o),
(331,678,c),
(-24,264,o),
(-80,161,o),
(-80,81,cs),
(-80,30,o),
(-26,-2,o),
(56,-2,cs)
);
},
{
closed = 1;
nodes = (
(616,876,o),
(667,920,o),
(667,969,cs,{
name = hr02;
}),
(667,1004,o),
(643,1032,o),
(606,1032,cs),
(551,1032,o),
(506,984,o),
(506,938,cs),
(506,902,o),
(530,876,o),
(567,876,cs,{
name = hr00;
})
);
}
);
width = 454;
}
);
unicode = 105;
userData = {
KernOnName = i;
};
},
{
glyphname = idotless;
kernLeft = idotless;
kernRight = idotless;
lastChange = "2023-11-17 03:03:55 +0000";
layers = (
{
anchors = (
{
name = bottom;
pos = (-44,31);
},
{
name = ogonek;
pos = (147,28);
},
{
name = top;
pos = (510,760);
}
);
layerId = master01;
shapes = (
{
closed = 1;
nodes = (
(275,-2,o),
(549,350,o),
(587,389,c),
(567,407,l),
(548,386,o),
(252,26,o),
(73,26,cs,{
name = hr00;
}),
(50,26,o),
(0,25,o),
(0,60,cs),
(0,115,o),
(79,218,o),
(469,677,c),
(458,676,o),
(450,675,o),
(427,675,cs),
(402,675,o),
(343,676,o),
(331,678,c),
(-24,264,o),
(-80,161,o),
(-80,81,cs),
(-80,30,o),
(-26,-2,o),
(56,-2,cs)
);
}
);
width = 454;
}
);
unicode = 305;
},
{
glyphname = ij;
kernLeft = y;
kernRight = j;
lastChange = "2022-05-18 03:32:05 +0000";
layers = (
{
layerId = master01;
shapes = (
{
closed = 1;
nodes = (
(-306,-787,o),
(-146,-710,o),
(274,-205,c),
(637,-34,o),
(795,74,o),
(1049,389,c),
(1029,406,l),
(795,111,o),
(643,-1,o),
(311,-160,c),
(404,-47,o),
(509,85,o),
(630,242,cs),
(779,437,o),
(874,559,o),
(966,677,c),
(957,676,o),
(940,675,o),
(917,675,cs),
(892,675,o),
(824,675,o),
(810,677,c),
(806,649,o),
(642,430,o),
(498,246,c),
(393,142,o),
(254,26,o),
(153,26,cs),
(130,26,o),
(80,25,o),
(80,60,cs),
(80,115,o),
(159,218,o),
(549,677,c),
(538,676,o),
(530,675,o),
(507,675,cs),
(482,675,o),
(423,676,o),
(411,678,c),
(56,264,o),
(0,161,o),
(0,81,cs),
(0,30,o),
(54,-2,o),
(136,-2,cs),
(221,-2,o),
(314,51,o),
(399,119,c),
(370,82,o),
(344,48,o),
(325,25,cs),
(247,-74,o),
(179,-160,o),
(116,-236,c),
(-460,-475,o),
(-620,-610,o),
(-620,-720,cs),
(-620,-751,o),
(-589,-787,o),
(-531,-787,cs)
);
},
{
closed = 1;
nodes = (
(-571,-760,o),
(-587,-735,o),
(-587,-720,cs),
(-587,-605,o),
(-399,-481,o),
(82,-277,c),
(-266,-696,o),
(-385,-759,o),
(-528,-760,cs)
);
},
{
closed = 1;
nodes = (
(696,873,o),
(747,917,o),
(747,966,cs),
(747,1001,o),
(723,1029,o),
(686,1029,cs),
(631,1029,o),
(586,981,o),
(586,935,cs),
(586,899,o),
(610,873,o),
(647,873,cs)
);
},
{
closed = 1;
nodes = (
(1094,873,o),
(1145,917,o),
(1145,966,cs),
(1145,1001,o),
(1122,1029,o),
(1085,1029,cs),
(1030,1029,o),
(984,981,o),
(984,935,cs),
(984,899,o),
(1009,873,o),
(1045,873,cs,{
name = hr00;
})
);
}
);
width = 916;
}
);
metricRight = j;
unicode = 307;
},
{
glyphname = ij_acutecomb;
kernLeft = y;
kernRight = j;
lastChange = "2022-05-18 03:32:05 +0000";
layers = (
{
anchors = (
{
name = top;
pos = (1222,1149);
}
);
layerId = master01;
shapes = (
{
closed = 1;
nodes = (
(-306,-787,o),
(-146,-710,o),
(274,-205,c),
(637,-34,o),
(795,74,o),
(1049,389,c),
(1029,406,l),
(795,111,o),
(643,-1,o),
(311,-160,c),
(404,-47,o),
(509,85,o),
(630,242,cs),
(779,437,o),
(874,559,o),
(966,677,c),
(957,676,o),
(940,675,o),
(917,675,cs),
(892,675,o),
(824,675,o),
(810,677,c),
(806,649,o),
(642,430,o),
(498,246,c),
(393,142,o),
(254,26,o),
(153,26,cs),
(130,26,o),
(80,25,o),
(80,60,cs),
(80,115,o),
(159,218,o),
(549,677,c),
(538,676,o),
(530,675,o),
(507,675,cs),
(482,675,o),
(423,676,o),
(411,678,c),
(56,264,o),
(0,161,o),
(0,81,cs),
(0,30,o),
(54,-2,o),
(136,-2,cs),
(221,-2,o),
(314,51,o),
(399,119,c),
(370,82,o),
(344,48,o),
(325,25,cs),
(247,-74,o),
(179,-160,o),
(116,-236,c),
(-460,-475,o),
(-620,-610,o),
(-620,-720,cs),
(-620,-751,o),
(-589,-787,o),
(-531,-787,cs)
);
},
{
closed = 1;
nodes = (
(-571,-760,o),
(-587,-735,o),
(-587,-720,cs),
(-587,-605,o),
(-399,-481,o),
(82,-277,c),
(-266,-696,o),
(-385,-759,o),
(-528,-760,cs)
);
},
{
closed = 1;
nodes = (
(567,808,o),
(582,816,o),
(606,831,cs),
(735,909,o),
(831,1040,o),
(831,1114,cs),
(831,1152,o),
(813,1169,o),
(788,1169,cs),
(757,1169,o),
(741,1146,o),
(735,1098,c),
(724,1023,o),
(714,986,o),
(695,954,cs),
(663,903,o),
(609,862,o),
(570,840,c),
(553,828,o),
(545,826,o),
(545,818,cs),
(545,813,o),
(549,808,o),
(557,808,cs,{
name = hr00;
})
);
},
{
closed = 1;
nodes = (
(952,808,o),
(967,816,o),
(991,831,cs),
(1120,909,o),
(1216,1040,o),
(1216,1114,cs),
(1216,1152,o),
(1198,1169,o),
(1173,1169,cs),
(1142,1169,o),
(1126,1146,o),
(1120,1098,c),
(1109,1023,o),
(1099,986,o),
(1080,954,cs),
(1048,903,o),
(994,862,o),
(955,840,c),
(938,828,o),
(930,826,o),
(930,818,cs),
(930,813,o),
(934,808,o),
(942,808,cs,{
name = hr00;
})
);
}
);
width = 932;
}
);
metricLeft = ij;
},
{
glyphname = j;
kernLeft = j;
kernRight = j;
lastChange = "2022-05-18 03:32:05 +0000";
layers = (
{
layerId = master01;
shapes = (
{
closed = 1;
nodes = (
(-837,-787,o),
(-677,-710,o),
(-257,-205,c),
(106,-34,o),
(264,74,o),
(518,389,c),
(498,406,l),
(264,111,o),
(112,-1,o),
(-220,-160,c),
(-127,-47,o),
(-21,85,o),
(99,242,cs),
(248,437,o),
(343,559,o),
(435,677,c),
(426,676,o),
(409,675,o),
(386,675,cs),
(361,675,o),
(293,675,o),
(279,677,c),
(274,635,o),
(-89,172,o),
(-206,25,cs),
(-284,-74,o),
(-352,-160,o),
(-415,-236,c),
(-991,-475,o),
(-1151,-610,o),
(-1151,-720,cs),
(-1151,-751,o),
(-1120,-787,o),
(-1062,-787,cs)
);
},
{
closed = 1;
nodes = (
(-1102,-760,o),
(-1118,-735,o),
(-1118,-720,cs),
(-1118,-605,o),
(-930,-481,o),
(-449,-277,c),
(-797,-696,o),
(-916,-759,o),
(-1059,-760,cs)
);
},
{
closed = 1;
nodes = (
(563,876,o),
(614,920,o),
(614,969,cs),
(614,1004,o),
(591,1032,o),
(554,1032,cs),
(499,1032,o),
(453,984,o),
(453,938,cs),
(453,902,o),
(478,876,o),
(514,876,cs,{
name = hr00;
})
);
}
);
width = 385;
}
);
unicode = 106;
},
{
glyphname = jdotless;
kernLeft = j;
kernRight = jdotless;
lastChange = "2022-05-18 03:32:05 +0000";
layers = (
{
anchors = (
{
name = bottom;
pos = (-417,-787);
},
{
name = top;
pos = (430,760);
}
);
layerId = master01;
shapes = (
{
closed = 1;
nodes = (
(-838,-787,o),
(-679,-710,o),
(-259,-205,c),
(103,-34,o),
(262,75,o),
(515,389,c),
(495,406,l),
(261,112,o),
(109,0,o),
(-222,-160,c),
(-129,-47,o),
(-24,85,o),
(96,242,cs,{
name = hr00;
}),
(245,437,o),
(340,559,o),
(432,677,c),
(423,676,o),
(406,675,o),
(383,675,cs),
(358,675,o),
(290,675,o),
(276,677,c),
(271,635,o),
(-92,172,o),
(-209,25,cs),
(-286,-73,o),
(-355,-160,o),
(-417,-235,c),
(-994,-474,o),
(-1151,-610,o),
(-1151,-720,cs),
(-1151,-751,o),
(-1121,-787,o),
(-1062,-787,cs)
);
},
{
closed = 1;
nodes = (
(-1102,-760,o),
(-1118,-735,o),
(-1118,-720,cs),
(-1118,-605,o),
(-933,-481,o),
(-452,-277,c),
(-799,-696,o),
(-917,-759,o),
(-1060,-760,cs)
);
}
);
width = 385;
}
);
metricLeft = j;
metricWidth = j;
unicode = 567;
},
{
glyphname = k;
kernLeft = h;
kernRight = k;
lastChange = "2023-11-17 06:19:11 +0000";
layers = (
{
anchors = (
{
name = bottom;
pos = (161,0);
},
{
name = top;
pos = (986,1550);
}
);
layerId = master01;
shapes = (
{
closed = 1;
nodes = (
(-148,18,o),
(-109,24,o),
(-92,24,cs),
(-73,24,o),
(-48,22,o),
(-34,19,c,{
name = hr00;
}),
(74,184,o),
(203,373,o),
(388,630,cs),
(1082,1595,l),
(1065,1593,o),
(1050,1591,o),
(1040,1591,cs),
(986,1589,o),
(960,1593,o),
(944,1595,c),
(-163,14,l)
);
},
{
closed = 1;
nodes = (
(683,-2,o),
(978,375,o),
(994,389,c),
(974,407,l),
(961,393,o),
(680,26,o),
(475,26,cs),
(439,26,o),
(428,38,o),
(428,57,cs),
(428,72,o),
(444,91,o),
(466,112,cs),
(588,223,o),
(603,279,o),
(603,332,cs),
(603,385,o),
(568,434,o),
(508,462,c),
(533,480,o),
(559,503,o),
(585,534,c),
(694,673,o),
(751,714,o),
(811,714,cs),
(828,714,o),
(840,710,o),
(850,702,c),
(829,695,o),
(811,677,o),
(810,652,c),
(807,617,o),
(838,592,o),
(867,592,cs),
(904,592,o),
(937,612,o),
(938,661,cs),
(939,705,o),
(896,744,o),
(832,744,cs),
(711,744,o),
(629,627,o),
(558,545,cs),
(522,505,o),
(506,490,o),
(475,475,c),
(451,482,o),
(423,486,o),
(393,486,cs),
(341,486,o),
(297,464,o),
(297,440,cs),
(297,424,o),
(317,409,o),
(354,409,cs),
(377,409,o),
(422,412,o),
(476,442,c),
(511,430,o),
(535,407,o),
(535,384,cs),
(535,369,o),
(525,353,o),
(486,313,c),
(390,219,o),
(364,156,o),
(364,105,cs),
(364,49,o),
(391,-2,o),
(464,-2,cs)
);
}
);
width = 861;
}
);
metricLeft = h;
unicode = 107;
},
{
glyphname = kgreenlandic;
kernLeft = kgreenlandic;
kernRight = k;
lastChange = "2022-05-18 03:32:05 +0000";
layers = (
{
layerId = master01;
shapes = (
{
closed = 1;
nodes = (
(682,-2,o),
(978,375,o),
(993,389,c),
(972,407,l),
(960,393,o),
(678,26,o),
(475,26,cs),
(438,26,o),
(426,38,o),
(426,57,cs),
(426,72,o),
(442,91,o),
(466,112,cs),
(587,218,o),
(602,271,o),
(602,321,cs),
(602,375,o),
(567,424,o),
(507,451,c),
(532,469,o),
(558,492,o),
(584,523,c),
(693,670,o),
(750,714,o),
(809,714,cs),
(827,714,o),
(839,711,o),
(849,702,c),
(829,695,o),
(810,677,o),
(808,652,cs),
(806,617,o),
(837,592,o),
(866,592,cs,{
name = hr04;
}),
(903,592,o),
(937,612,o),
(938,661,cs),
(938,705,o),
(896,744,o),
(831,744,cs),
(711,744,o),
(628,621,o),
(557,535,c),
(521,495,o),
(505,480,o),
(473,464,c),
(449,471,o),
(421,475,o),
(392,475,cs),
(340,475,o),
(295,454,o),
(295,430,cs),
(295,413,o),
(316,399,o),
(353,399,cs),
(376,399,o),
(422,402,o),
(476,432,c),
(510,420,o),
(533,397,o),
(533,374,cs),
(533,359,o),
(523,343,o),
(486,303,c),
(389,213,o),
(364,154,o),
(364,105,cs),
(364,49,o),
(390,-2,o),
(463,-2,cs)
);
},
{
closed = 1;
nodes = (
(-149,18,o),
(-111,24,o),
(-93,24,cs),
(-74,24,o),
(-48,22,o),
(-35,19,c,{
name = hr01;
}),
(73,184,o),
(248,442,o),
(433,700,c),
(475,747,l),
(457,746,o),
(443,746,o),
(432,744,c,{
name = hr02;
}),
(409,743,o),
(366,746,o),
(350,747,c,{
name = hr03;
}),
(-164,14,l)
);
}
);
width = 860;
}
);
unicode = 312;
},
{
color = 0;
glyphname = khook;
kernLeft = h;
kernRight = k;
lastChange = "2023-10-28 18:54:54 +0000";
layers = (
{
anchors = (
{
name = bottom;
pos = (161,0);
},
{
name = top;
pos = (1143,1211);
}
);
layerId = master01;
shapes = (
{
closed = 1;
nodes = (
(-148,18,o),
(-109,24,o),
(-92,24,cs),
(-73,24,o),
(-48,22,o),
(-34,19,c,{
name = hr00;
}),
(74,184,o),
(378,616,o),
(563,873,c),
(843,1211,o),
(1027,1558,o),
(1256,1558,cs),
(1429,1558,o),
(1488,1417,o),
(1454,1322,cs),
(1414,1209,o),
(1388,1195,o),
(1347,1209,c),
(1334,1221,o),
(1317,1227,o),
(1297,1227,cs),
(1247,1227,o),
(1223,1196,o),
(1218,1166,cs),
(1213,1133,o),
(1240,1099,o),
(1303,1099,cs),
(1402,1099,o),
(1468,1238,o),
(1478,1276,cs),
(1533,1479,o),
(1405,1579,o),
(1256,1579,cs),
(928,1579,o),
(471,932,o),
(260,617,c),
(-163,14,l)
);
},
{
closed = 1;
nodes = (
(683,-2,o),
(978,375,o),
(994,389,c),
(974,407,l),
(961,393,o),
(680,26,o),
(475,26,cs),
(439,26,o),
(428,38,o),
(428,57,cs),
(428,72,o),
(444,91,o),
(466,112,cs),
(588,223,o),
(603,279,o),
(603,332,cs),
(603,385,o),
(568,434,o),
(508,462,c),
(533,480,o),
(559,503,o),
(585,534,cs),
(694,673,o),
(751,714,o),
(811,714,cs),
(828,714,o),
(840,710,o),
(850,702,c),
(829,695,o),
(811,677,o),
(810,652,cs),
(807,617,o),
(838,592,o),
(867,592,cs),
(904,592,o),
(937,612,o),
(938,661,cs),
(939,705,o),
(896,744,o),
(832,744,cs),
(711,744,o),
(629,627,o),
(558,545,cs),
(522,505,o),
(506,490,o),
(475,475,c),
(451,482,o),
(423,486,o),
(393,486,cs),
(341,486,o),
(297,464,o),
(297,440,cs),
(297,424,o),
(317,409,o),
(354,409,cs),
(377,409,o),
(422,412,o),
(476,442,c),
(511,430,o),
(535,407,o),
(535,384,cs),
(535,369,o),
(525,353,o),
(486,313,cs),
(390,219,o),
(364,156,o),
(364,105,cs),
(364,49,o),
(391,-2,o),
(464,-2,cs)
);
}
);
width = 861;
}
);
metricLeft = k;
metricWidth = k;
unicode = 409;
},
{
glyphname = l;
kernLeft = l;
kernRight = l;
lastChange = "2022-05-18 03:32:05 +0000";
layers = (
{
anchors = (
{
name = bottom;
pos = (-21,0);
},
{
name = center;
pos = (570,971);
},
{
name = top;
pos = (1013,1596);
},
{
name = topright;
pos = (1098,1137);
}
);
layerId = master01;
shapes = (
{
closed = 1;
nodes = (
(263,-2,o),
(547,347,o),
(590,389,c),
(570,406,l),
(530,368,o),
(254,26,o),
(57,26,cs,{
name = hr00;
}),
(29,26,o),
(10,39,o),
(10,59,cs),
(10,90,o),
(22,119,o),
(262,454,c),
(1084,1595,l),
(1067,1593,o),
(1052,1591,o),
(1042,1591,cs),
(989,1589,o),
(963,1593,o),
(945,1595,c),
(172,490,l),
(-38,187,o),
(-57,150,o),
(-57,79,cs),
(-57,33,o),
(-16,-2,o),
(40,-2,cs)
);
}
);
width = 456;
}
);
unicode = 108;
},
{
glyphname = ldot;
kernLeft = l;
kernRight = l;
lastChange = "2022-05-18 03:32:05 +0000";
layers = (
{
layerId = master01;
shapes = (
{
closed = 1;
nodes = (
(279,-2,o),
(569,347,o),
(613,389,c),
(593,406,l),
(552,368,o),
(270,26,o),
(68,26,cs,{
name = hr00;
}),
(34,26,o),
(10,39,o),
(10,59,cs),
(10,90,o),
(22,119,o),
(262,454,c),
(1084,1595,l),
(1067,1593,o),
(1052,1591,o),
(1042,1591,cs),
(989,1589,o),
(963,1593,o),
(945,1595,c),
(172,490,l),
(-38,187,o),
(-57,150,o),
(-57,79,cs),
(-57,33,o),
(-12,-2,o),
(51,-2,cs)
);
},
{
closed = 1;
nodes = (
(775,772,o),
(814,805,o),
(814,840,cs),
(814,866,o),
(797,887,o),
(769,887,cs),
(728,887,o),
(693,853,o),
(693,817,cs),
(693,792,o),
(713,772,o),
(740,772,cs)
);
}
);
width = 456;
}
);
metricLeft = l;
metricRight = l;
unicode = 320;
},
{
glyphname = lslash;
kernLeft = lslash;
kernRight = lslash;
lastChange = "2022-05-18 03:32:05 +0000";
layers = (
{
layerId = master01;
shapes = (
{
closed = 1;
nodes = (
(263,-2,o),
(547,347,o),
(590,389,c),
(570,406,l),
(530,368,o),
(254,26,o),
(57,26,cs,{
name = hr00;
}),
(29,26,o),
(10,39,o),
(10,59,cs),
(10,90,o),
(22,119,o),
(262,454,c),
(1084,1595,l),
(1067,1593,o),
(1052,1591,o),
(1042,1591,cs),
(989,1589,o),
(963,1593,o),
(945,1595,c),
(172,490,l),
(-38,187,o),
(-57,150,o),
(-57,79,cs),
(-57,33,o),
(-16,-2,o),
(40,-2,cs)
);
},
{
closed = 1;
nodes = (
(1244,1677,o),
(1306,1687,o),
(1355,1713,cs),
(1405,1736,o),
(1429,1757,o),
(1431,1772,c),
(1430,1774,o),
(1424,1780,o),
(1415,1780,cs),
(1406,1781,o),
(1399,1780,o),
(1389,1769,c),
(1359,1736,o),
(1313,1724,o),
(1262,1724,cs),
(1226,1724,o),
(1177,1733,o),
(1103,1757,cs),
(1050,1774,o),
(982,1792,o),
(935,1792,cs),
(886,1792,o),
(824,1782,o),
(775,1757,cs),
(725,1733,o),
(701,1713,o),
(699,1698,c),
(700,1695,o),
(706,1690,o),
(715,1690,cs),
(724,1689,o),
(731,1690,o),
(741,1700,c),
(771,1733,o),
(817,1744,o),
(868,1745,cs),
(903,1746,o),
(952,1736,o),
(1027,1713,cs),
(1081,1695,o),
(1147,1677,o),
(1195,1677,cs)
);
}
);
width = 456;
}
);
metricWidth = l;
unicode = 322;
},
{
glyphname = m;
kernLeft = n;
kernRight = n;
lastChange = "2022-05-18 03:32:05 +0000";
layers = (
{
anchors = (
{
name = bottom;
pos = (498,0);
},
{
name = top;
pos = (978,760);
}
);
layerId = master01;
shapes = (
{
closed = 1;
nodes = (
(1258,-5,o),
(1529,347,o),
(1568,389,c),
(1547,406,l),
(1513,368,o),
(1246,24,o),
(1083,24,cs),
(1033,24,o),
(1010,34,o),
(1010,48,c),
(1017,49,l),
(1017,66,o),
(1020,75,o),
(1089,147,c),
(1311,388,o),
(1372,504,o),
(1375,584,c),
(1376,634,o),
(1344,685,o),
(1258,685,cs),
(1203,685,o),
(1147,665,o),
(1047,584,cs),
(1003,548,o),
(951,500,o),
(891,439,c,{
name = hr05;
}),
(935,507,o),
(941,536,o),
(944,584,cs),
(947,634,o),
(912,685,o),
(827,685,cs),
(774,685,o),
(719,668,o),
(642,609,c),
(561,551,o),
(434,423,o),
(247,207,c),
(242,218,l),
(452,510,ls),
(488,561,o),
(496,592,o),
(498,613,cs,{
name = hr06;
}),
(504,675,o),
(456,685,o),
(417,685,cs),
(312,685,o),
(189,489,o),
(112,406,cs),
(107,401,o),
(112,398,o),
(115,394,c),
(121,389,o),
(131,388,o),
(133,389,c),
(204,478,o),
(343,651,o),
(381,651,cs),
(401,651,o),
(404,638,o),
(403,622,cs),
(400,593,o),
(363,554,o),
(-12,14,c),
(1,18,o),
(35,24,o),
(83,24,cs,{
name = hr01;
}),
(102,24,o),
(121,23,o),
(140,19,c),
(233,141,l),
(412,359,o),
(553,502,o),
(645,576,cs),
(727,641,o),
(782,660,o),
(816,660,cs,{
name = hr03;
}),
(845,660,o),
(865,650,o),
(865,629,cs),
(865,603,o),
(845,560,o),
(730,408,cs),
(554,176,o),
(617,255,o),
(420,14,c),
(434,18,o),
(468,24,o),
(515,24,cs),
(535,24,o),
(553,23,o),
(572,19,c),
(665,141,l),
(836,357,o),
(978,498,o),
(1082,577,cs),
(1169,642,o),
(1213,660,o),
(1245,660,cs),
(1284,660,o),
(1296,643,o),
(1296,624,cs),
(1296,592,o),
(1260,531,o),
(1156,413,c),
(959,193,o),
(937,127,o),
(937,73,cs,{
name = hr04;
}),
(937,26,o),
(999,-5,o),
(1071,-5,cs)
);
}
);
width = 1435;
}
);
metricLeft = n;
metricRight = n;
unicode = 109;
},
{
glyphname = n;
kernLeft = n;
kernRight = n;
lastChange = "2022-05-18 03:32:05 +0000";
layers = (
{
anchors = (
{
name = bottom;
pos = (363,0);
},
{
name = top;
pos = (720,760);
}
);
layerId = master01;
shapes = (
{
closed = 1;
nodes = (
(886,-2,o),
(1136,347,o),
(1175,389,c),
(1154,406,l),
(1120,368,o),
(871,26,o),
(667,26,cs),
(625,26,o),
(595,36,o),
(595,49,cs),
(595,66,o),
(599,75,o),
(667,147,c),
(889,388,o),
(950,504,o),
(953,584,c),
(954,634,o),
(922,685,o),
(836,685,cs),
(795,685,o),
(748,674,o),
(684,632,cs),
(588,568,o),
(455,441,o),
(247,207,c),
(242,218,l),
(452,510,ls,{
name = hr04;
}),
(488,561,o),
(496,592,o),
(498,613,cs),
(504,675,o),
(456,685,o),
(417,685,cs),
(312,685,o),
(189,489,o),
(112,406,cs),
(107,401,o),
(112,398,o),
(115,394,c),
(121,389,o),
(131,388,o),
(133,389,c),
(204,478,o),
(343,651,o),
(381,651,cs),
(401,651,o),
(404,638,o),
(403,622,cs),
(400,593,o),
(363,554,o),
(-12,14,c),
(4,18,o),
(35,24,o),
(83,24,cs,{
name = hr01;
}),
(103,24,o),
(120,23,o),
(141,19,c),
(234,141,l),
(433,385,o),
(587,531,o),
(692,603,cs),
(753,644,o),
(798,660,o),
(825,660,cs),
(862,660,o),
(873,643,o),
(873,624,cs),
(873,592,o),
(839,531,o),
(734,413,cs),
(537,193,o),
(521,129,o),
(521,75,cs,{
name = hr03;
}),
(521,28,o),
(583,-2,o),
(657,-2,cs)
);
}
);
width = 1042;
}
);
unicode = 110;
userData = {
KernOnName = n;
};
},
{
glyphname = eng;
kernLeft = n;
kernRight = j;
lastChange = "2023-11-17 02:58:17 +0000";
layers = (
{
anchors = (
{
name = bottom;
pos = (-433,-787);
},
{
name = top;
pos = (720,760);
}
);
layerId = master01;
shapes = (
{
closed = 1;
nodes = (
(-208,-787,o),
(-48,-710,o),
(372,-205,c),
(735,-34,o),
(893,74,o),
(1147,389,c),
(1127,406,l),
(893,111,o),
(741,-1,o),
(409,-160,c),
(666,148,ls),
(861,358,o),
(949,488,o),
(953,584,cs),
(954,634,o),
(922,685,o),
(836,685,cs),
(795,685,o),
(748,674,o),
(684,632,cs),
(588,568,o),
(455,441,o),
(247,207,c),
(242,218,l),
(452,510,ls,{
name = hr04;
}),
(488,561,o),
(496,592,o),
(498,613,cs),
(504,675,o),
(456,685,o),
(417,685,cs),
(312,685,o),
(189,489,o),
(112,406,cs),
(107,401,o),
(112,398,o),
(115,394,c),
(121,389,o),
(131,388,o),
(133,389,c),
(204,478,o),
(343,651,o),
(381,651,cs),
(401,651,o),
(404,638,o),
(403,622,cs),
(400,593,o),
(363,554,o),
(-12,14,c),
(4,18,o),
(35,24,o),
(83,24,cs,{
name = hr01;
}),
(103,24,o),
(120,23,o),
(141,19,c),
(234,141,l),
(433,385,o),
(587,531,o),
(692,603,cs),
(753,644,o),
(798,660,o),
(825,660,cs),
(862,660,o),
(873,643,o),
(873,624,cs),
(873,592,o),
(839,531,o),
(734,413,cs),
(651,307,o),
(488,111,o),
(417,25,cs),
(336,-74,o),
(277,-160,o),
(214,-236,c),
(-362,-475,o),
(-522,-610,o),
(-522,-720,cs),
(-522,-751,o),
(-491,-787,o),
(-433,-787,cs)
);
},
{
closed = 1;
nodes = (
(-453,-760,o),
(-469,-735,o),
(-469,-720,cs),
(-469,-605,o),
(-281,-481,o),
(200,-277,c),
(-148,-696,o),
(-267,-759,o),
(-410,-760,cs)
);
}
);
width = 1014;
}
);
unicode = 331;
},
{
glyphname = o;
kernLeft = o;
kernRight = o;
lastChange = "2022-05-18 03:32:05 +0000";
layers = (
{
anchors = (
{
name = bottom;
pos = (143,0);
},
{
name = center;
pos = (380,340);
},
{
name = ogonek;
pos = (508,10);
},
{
name = top;
pos = (580,760);
},
{
name = topright;
pos = (622,664);
}
);
layerId = master01;
shapes = (
{
closed = 1;
nodes = (
(289,-2,o),
(419,79,o),
(518,191,c),
(530,170,o),
(553,161,o),
(583,161,cs),
(686,161,o),
(834,340,o),
(885,389,c),
(863,406,l),
(837,380,o),
(684,189,o),
(585,189,cs),
(559,189,o),
(544,201,o),
(540,218,c),
(626,325,o),
(682,456,o),
(676,570,cs),
(671,650,o),
(612,685,o),
(542,685,cs),
(366,685,o),
(195,546,o),
(98,408,cs),
(49,337,o),
(-3,222,o),
(1,131,c),
(7,56,o),
(58,-2,o),
(170,-2,cs,{
name = hr00;
})
);
},
{
closed = 1;
nodes = (
(135,28,o),
(113,79,o),
(113,115,c),
(108,178,o),
(143,259,o),
(242,383,cs),
(380,555,o),
(496,649,o),
(573,649,cs),
(609,649,o),
(644,627,o),
(648,562,cs),
(651,510,o),
(636,446,o),
(604,379,c),
(563,366,o),
(508,317,o),
(508,234,cs),
(508,230,l),
(468,182,o),
(421,138,o),
(369,101,cs),
(308,57,o),
(243,28,o),
(196,28,cs)
);
}
);
width = 752;
}
);
unicode = 111;
userData = {
KernOnName = o;
};
},
{
glyphname = oslash;
kernLeft = o;
kernRight = o;
lastChange = "2023-11-17 04:45:56 +0000";
layers = (
{
anchors = (
{
name = bottom;
pos = (143,0);
},
{
name = top;
pos = (530,760);
}
);
layerId = master01;
shapes = (
{
closed = 1;
nodes = (
(842,848,l),
(826,849,ls),
(817,850,o),
(806,850,o),
(800,853,c),
(-56,-139,l),
(-51,-138,o),
(-46,-139,o),
(-40,-139,cs),
(-33,-139,o),
(-27,-140,o),
(-18,-142,c)
);
},
{
closed = 1;
nodes = (
(289,-2,o),
(419,79,o),
(518,191,c),
(530,170,o),
(553,161,o),
(583,161,cs),
(686,161,o),
(834,340,o),
(885,389,c),
(863,406,l),
(837,380,o),
(684,189,o),
(585,189,cs),
(559,189,o),
(544,201,o),
(540,218,c),
(626,325,o),
(682,456,o),
(676,570,cs),
(671,650,o),
(612,685,o),
(542,685,cs),
(366,685,o),
(195,546,o),
(98,408,cs),
(49,337,o),
(-3,222,o),
(1,131,c),
(7,56,o),
(58,-2,o),
(170,-2,cs,{
name = hr00;
})
);
},
{
closed = 1;
nodes = (
(135,28,o),
(113,79,o),
(113,115,c),
(108,178,o),
(143,259,o),
(242,383,cs),
(380,555,o),
(496,649,o),
(573,649,cs),
(609,649,o),
(644,627,o),
(648,562,cs),
(651,510,o),
(636,446,o),
(604,379,c),
(563,366,o),
(508,317,o),
(508,234,cs),
(508,230,l),
(468,182,o),
(421,138,o),
(369,101,cs),
(308,57,o),
(243,28,o),
(196,28,cs)
);
}
);
width = 893;
}
);
unicode = 248;
},
{
glyphname = oe;
kernLeft = o;
kernRight = e;
lastChange = "2023-11-17 03:01:36 +0000";
layers = (
{
anchors = (
{
name = bottom;
pos = (459,0);
},
{
name = top;
pos = (825,760);
}
);
layerId = master01;
shapes = (
{
closed = 1;
nodes = (
(1060,-6,o),
(1287,344,o),
(1338,389,c),
(1317,406,l),
(1279,373,o),
(1052,23,o),
(740,23,cs),
(682,23,o),
(633,59,o),
(633,122,cs),
(633,165,o),
(645,216,o),
(691,291,c),
(1091,422,o),
(1205,541,o),
(1199,619,cs),
(1197,654,o),
(1169,685,o),
(1088,685,cs),
(974,685,o),
(803,614,o),
(662,452,c),
(672,492,o),
(677,532,o),
(675,570,cs),
(671,650,o),
(611,685,o),
(540,685,cs),
(365,685,o),
(195,546,o),
(97,408,c),
(48,337,o),
(-5,222,o),
(1,131,cs),
(6,56,o),
(57,-2,o),
(169,-2,cs,{
name = hr01;
}),
(302,-2,o),
(449,99,o),
(550,231,c),
(546,209,o),
(543,189,o),
(544,170,cs),
(547,71,o),
(599,-6,o),
(728,-6,cs,{
name = hr02;
})
);
},
{
closed = 1;
nodes = (
(135,28,o),
(113,79,o),
(112,115,c),
(107,178,o),
(141,259,o),
(241,383,cs),
(380,555,o),
(496,649,o),
(572,649,cs),
(609,649,o),
(643,627,o),
(648,562,c),
(656,432,o),
(546,226,o),
(368,101,c),
(307,57,o),
(242,28,o),
(196,28,cs)
);
},
{
closed = 1;
nodes = (
(726,343,o),
(739,361,o),
(754,380,cs),
(894,562,o),
(991,661,o),
(1082,661,cs),
(1114,661,o),
(1133,644,o),
(1133,605,cs),
(1133,517,o),
(974,416,o),
(714,326,c)
);
}
);
width = 1205;
}
);
metricRight = e;
unicode = 339;
},
{
glyphname = p;
kernLeft = p;
kernRight = p;
lastChange = "2023-11-17 03:58:12 +0000";
layers = (
{
anchors = (
{
name = bottom;
pos = (-601,-692);
},
{
name = top;
pos = (851,722);
}
);
layerId = master01;
shapes = (
{
closed = 1;
nodes = (
(-567,-709,o),
(-538,-705,o),
(-524,-701,c),
(-509,-674,o),
(-211,-202,o),
(-45,19,c,{
name = hr00;
}),
(138,237,o),
(415,498,o),
(587,597,c),
(656,638,o),
(713,660,o),
(776,660,cs),
(802,660,o),
(817,644,o),
(817,628,cs),
(817,604,o),
(806,573,o),
(688,488,c),
(449,311,o),
(359,187,o),
(359,97,cs),
(359,36,o),
(396,-2,o),
(475,-2,cs),
(678,-2,o),
(916,299,o),
(995,389,c),
(973,406,l),
(889,309,o),
(667,26,o),
(481,26,cs),
(435,26,o),
(410,43,o),
(410,71,cs),
(410,100,o),
(437,132,o),
(570,227,cs),
(794,385,o),
(871,500,o),
(871,602,cs),
(871,651,o),
(843,685,o),
(776,685,cs),
(695,685,o),
(657,666,o),
(595,634,cs),
(493,581,o),
(345,459,o),
(136,258,c),
(129,266,l),
(371,592,o),
(335,551,o),
(689,978,c),
(670,972,o),
(651,971,o),
(632,971,cs),
(612,971,o),
(586,972,o),
(538,977,c),
(255,592,o),
(254,604,o),
(62,337,c),
(-147,33,o),
(-487,-424,o),
(-691,-700,c),
(-673,-706,o),
(-634,-709,o),
(-618,-709,cs)
);
}
);
width = 862;
}
);
unicode = 112;
userData = {
KernOnName = p;
};
},
{
glyphname = thorn;
kernLeft = thorn;
kernRight = thorn;
lastChange = "2022-05-18 03:32:05 +0000";
layers = (
{
layerId = master01;
shapes = (
{
closed = 1;
nodes = (
(-601,-709,o),
(-573,-705,o),
(-558,-701,c),
(-544,-674,o),
(-204,-202,o),
(-47,19,c,{
name = hr00;
}),
(134,237,o),
(411,498,o),
(583,597,cs),
(654,638,o),
(710,660,o),
(772,660,cs),
(799,660,o),
(815,644,o),
(815,628,cs),
(815,604,o),
(802,573,o),
(685,488,c),
(446,311,o),
(356,187,o),
(356,97,cs),
(356,36,o),
(394,-2,o),
(472,-2,cs),
(674,-2,o),
(913,299,o),
(992,389,c),
(971,406,l),
(886,309,o),
(664,26,o),
(478,26,cs),
(432,26,o),
(408,43,o),
(408,71,cs),
(408,100,o),
(434,132,o),
(566,227,c),
(791,385,o),
(868,500,o),
(868,602,cs),
(868,651,o),
(840,685,o),
(774,685,cs),
(693,685,o),
(654,666,o),
(592,634,cs),
(490,581,o),
(343,459,o),
(133,258,c),
(125,266,l),
(377,592,o),
(782,1153,o),
(1149,1580,c),
(1129,1575,o),
(1110,1573,o),
(1092,1573,cs),
(1072,1573,o),
(1045,1574,o),
(997,1579,c),
(705,1194,o),
(259,604,o),
(59,337,cs),
(-168,33,o),
(-504,-424,o),
(-725,-700,c),
(-707,-706,o),
(-669,-709,o),
(-652,-709,cs)
);
}
);
width = 859;
}
);
unicode = 254;
},
{
glyphname = q;
kernLeft = q;
kernRight = q;
lastChange = "2022-05-18 03:32:05 +0000";
layers = (
{
layerId = master01;
shapes = (
{
closed = 1;
nodes = (
(93,-787,o),
(416,-401,o),
(511,31,c),
(529,11,o),
(559,-2,o),
(597,-2,cs),
(776,-2,o),
(1028,347,o),
(1064,389,c),
(1042,406,l),
(1012,368,o),
(751,24,o),
(595,24,cs),
(558,24,o),
(525,43,o),
(519,69,c),
(518,87,o),
(515,103,o),
(510,115,c),
(629,251,ls),
(766,408,o),
(839,514,o),
(950,645,c),
(933,644,o),
(894,643,o),
(877,643,cs),
(855,643,o),
(830,645,o),
(818,650,c),
(786,609,o),
(756,568,o),
(703,502,c),
(710,523,o),
(714,546,o),
(714,571,cs),
(714,648,o),
(657,670,o),
(591,670,cs),
(448,670,o),
(295,617,o),
(119,414,cs),
(33,316,o),
(-3,213,o),
(-3,127,cs),
(-3,46,o),
(36,-2,o),
(119,-2,cs,{
name = hr00;
}),
(173,-2,o),
(275,36,o),
(389,126,c),
(17,-258,o),
(-184,-565,o),
(-184,-715,cs),
(-184,-762,o),
(-159,-787,o),
(-117,-787,cs)
);
},
{
closed = 1;
nodes = (
(-143,-765,o),
(-152,-754,o),
(-152,-732,cs),
(-152,-659,o),
(254,-180,o),
(489,91,c),
(492,83,o),
(492,72,o),
(489,57,cs),
(404,-340,o),
(29,-765,o),
(-117,-765,cs)
);
},
{
closed = 1;
nodes = (
(93,28,o),
(79,42,o),
(79,79,cs),
(79,141,o),
(122,229,o),
(219,347,c),
(391,549,o),
(551,641,o),
(615,641,cs),
(650,641,o),
(689,620,o),
(689,580,cs),
(689,507,o),
(665,460,o),
(638,423,c),
(619,399,o),
(597,373,o),
(573,344,cs),
(377,109,o),
(214,28,o),
(124,28,cs)
);
}
);
width = 931;
}
);
unicode = 113;
},
{
glyphname = r;
kernLeft = r;
kernRight = r;
lastChange = "2024-04-11 14:29:25 +0000";
layers = (
{
anchors = (
{
name = bottom;
pos = (31,0);
},
{
name = top;
pos = (594,655);
}
);
layerId = master01;
shapes = (
{
closed = 1;
nodes = (
(501,-2,o),
(741,319,o),
(815,389,c),
(795,406,l),
(746,353,o),
(477,32,o),
(315,32,cs),
(293,32,o),
(277,44,o),
(277,79,cs),
(277,174,o),
(464,402,o),
(610,515,cs),
(631,532,o),
(639,541,o),
(639,548,cs),
(639,552,o),
(636,562,o),
(611,563,cs),
(535,568,o),
(315,608,o),
(315,634,cs),
(315,653,o),
(322,674,o),
(333,687,c),
(345,707,o),
(360,726,o),
(360,757,cs),
(360,784,o),
(339,803,o),
(307,803,cs),
(250,803,o),
(207,741,o),
(218,677,cs),
(222,657,o),
(236,641,o),
(260,626,c),
(232,569,o),
(178,490,o),
(111,406,cs),
(47,326,o),
(33,317,o),
(33,312,c),
(31,306,o),
(32,293,o),
(36,295,c),
(38,298,o),
(52,295,o),
(132,389,c),
(210,478,o),
(260,558,o),
(287,612,c),
(346,585,o),
(444,563,o),
(580,541,c),
(313,362,o),
(146,208,o),
(146,101,cs,{
name = hr00;
}),
(146,39,o),
(197,-2,o),
(272,-2,cs)
);
}
);
width = 682;
}
);
unicode = 114;
userData = {
KernOnName = r;
};
},
{
glyphname = s;
kernLeft = s;
kernRight = s;
lastChange = "2024-04-11 14:01:37 +0000";
layers = (
{
anchors = (
{
name = bottom;
pos = (100,0);
},
{
name = top;
pos = (497,841);
}
);
layerId = master01;
shapes = (
{
closed = 1;
nodes = (
(210,-23,o),
(340,21,o),
(403,160,c),
(413,158,o),
(424,158,o),
(436,158,cs),
(539,158,o),
(683,342,o),
(729,389,c),
(707,406,l),
(680,369,o),
(525,182,o),
(439,182,cs),
(429,182,o),
(420,183,o),
(412,184,c),
(426,223,o),
(432,268,o),
(430,321,c,{
name = hr03;
}),
(424,426,o),
(389,562,o),
(391,634,cs),
(391,654,o),
(386,657,o),
(422,700,cs),
(453,736,o),
(467,755,o),
(468,771,c),
(468,791,o),
(451,804,o),
(428,804,cs),
(398,804,o),
(384,766,o),
(376,726,c),
(298,626,o),
(156,458,o),
(111,406,cs,{
name = hr04;
}),
(93,384,o),
(74,363,o),
(77,357,cs),
(82,348,o),
(93,351,o),
(95,351,cs),
(93,351,o),
(105,357,o),
(132,389,cs),
(189,458,o),
(292,585,o),
(368,679,c),
(368,676,o),
(368,673,o),
(367,670,cs),
(331,566,o),
(332,438,o),
(326,374,c),
(293,101,o),
(117,13,o),
(33,13,cs),
(-8,13,o),
(-124,23,o),
(-124,99,cs),
(-124,144,o),
(-83,172,o),
(-68,187,c),
(-59,182,o),
(-42,166,o),
(-26,166,cs),
(9,166,o),
(42,188,o),
(44,209,c),
(44,234,o),
(29,247,o),
(3,247,cs),
(-34,247,o),
(-150,199,o),
(-150,100,cs),
(-150,-10,o),
(-7,-23,o),
(56,-23,cs,{
name = hr01;
})
);
}
);
width = 596;
}
);
unicode = 115;
},
{
glyphname = germandbls;
kernLeft = germandbls;
kernRight = germandbls;
lastChange = "2022-05-18 03:32:05 +0000";
layers = (
{
layerId = master01;
shapes = (
{
closed = 1;
nodes = (
(-225,-222,o),
(-215,-217,o),
(-199,-214,c),
(-185,-186,o),
(-141,-96,o),
(97,218,c),
(372,592,o),
(959,1549,o),
(1135,1549,cs),
(1206,1549,o),
(1233,1526,o),
(1236,1471,cs),
(1243,1346,o),
(1164,1235,o),
(860,988,c),
(731,894,o),
(689,847,o),
(698,748,c),
(743,209,o),
(608,24,o),
(418,24,cs),
(341,24,o),
(266,71,o),
(262,138,cs),
(260,164,o),
(267,182,o),
(276,195,c),
(284,191,o),
(303,186,o),
(320,186,cs),
(351,186,o),
(389,209,o),
(386,244,c),
(385,267,o),
(368,283,o),
(334,283,cs),
(282,283,o),
(229,229,o),
(233,141,cs,{
name = hr00;
}),
(238,50,o),
(316,-2,o),
(424,-2,cs),
(480,-2,o),
(542,7,o),
(601,32,c),
(888,34,o),
(1119,347,o),
(1155,389,c),
(1133,406,l),
(1104,370,o),
(896,96,o),
(659,62,c),
(756,124,o),
(829,236,o),
(820,429,c),
(814,528,o),
(797,617,o),
(780,665,cs),
(763,711,o),
(751,755,o),
(749,785,cs),
(746,847,o),
(768,902,o),
(1000,1050,c),
(1248,1219,o),
(1332,1328,o),
(1325,1455,cs),
(1321,1526,o),
(1257,1579,o),
(1149,1579,cs),
(897,1579,o),
(608,1134,o),
(62,337,c),
(-153,28,o),
(-215,-53,o),
(-339,-212,c),
(-322,-218,o),
(-294,-222,o),
(-277,-222,cs)
);
}
);
width = 1022;
}
);
unicode = 223;
},
{
glyphname = longs;
kernLeft = longs;
kernRight = longs;
lastChange = "2022-05-18 03:32:05 +0000";
layers = (
{
layerId = master01;
shapes = (
{
closed = 1;
nodes = (
(-62,-787,o),
(153,-322,o),
(188,144,c,{
name = hr00;
}),
(229,208,l),
(262,184,o),
(303,167,o),
(354,162,cs),
(631,133,o),
(773,348,o),
(816,389,c),
(793,405,l),
(724,321,o),
(600,171,o),
(355,187,cs),
(310,190,o),
(273,207,o),
(244,232,c),
(557,718,o),
(708,952,o),
(893,1245,cs),
(1052,1496,o),
(1120,1556,o),
(1163,1556,cs),
(1188,1556,o),
(1208,1536,o),
(1209,1499,cs),
(1214,1354,o),
(1061,1106,o),
(861,872,c),
(912,872,l),
(1113,1103,o),
(1260,1344,o),
(1254,1493,c),
(1253,1541,o),
(1225,1579,o),
(1168,1579,cs),
(1066,1579,o),
(893,1396,o),
(702,1123,cs),
(653,1054,o),
(566,905,o),
(182,319,c),
(174,336,o),
(168,353,o),
(165,368,c),
(198,385,o),
(230,435,o),
(230,465,cs),
(230,504,o),
(206,526,o),
(176,526,cs),
(142,526,o),
(118,496,o),
(111,453,cs),
(106,416,o),
(119,346,o),
(159,284,c),
(68,147,ls),
(-331,-454,o),
(-400,-581,o),
(-394,-690,c),
(-393,-746,o),
(-351,-787,o),
(-296,-787,cs)
);
},
{
closed = 1;
nodes = (
(-316,-762,o),
(-334,-742,o),
(-334,-720,cs),
(-334,-634,o),
(-92,-282,o),
(155,94,c),
(108,-419,o),
(-174,-762,o),
(-289,-762,cs)
);
}
);
width = 682;
}
);
metricLeft = f;
metricRight = f;
unicode = 383;
},
{
glyphname = t;
kernLeft = t;
kernRight = t;
lastChange = "2022-05-18 03:32:05 +0000";
layers = (
{
anchors = (
{
name = bottom;
pos = (8,0);
},
{
name = center;
pos = (345,569);
},
{
name = top;
pos = (714,1091);
},
{
name = topright;
pos = (1020,996);
}
);
layerId = master01;
shapes = (
{
closed = 1;
nodes = (
(246,-2,o),
(485,299,o),
(563,389,c),
(541,406,l),
(460,309,o),
(235,28,o),
(51,26,c,{
name = hr00;
}),
(20,27,o),
(1,38,o),
(1,58,cs),
(1,87,o),
(39,160,o),
(289,497,cs),
(553,853,l),
(836,853,ls),
(853,853,o),
(861,858,o),
(861,868,cs),
(861,877,o),
(853,882,o),
(833,882,cs),
(575,882,l),
(768,1142,l),
(751,1139,o),
(736,1138,o),
(725,1138,cs),
(671,1137,o),
(646,1139,o),
(629,1142,c),
(444,882,l),
(353,882,ls),
(330,882,o),
(315,880,o),
(315,866,cs),
(315,855,o),
(324,853,o),
(345,853,cs),
(424,853,l),
(166,490,ls),
(-48,189,o),
(-68,148,o),
(-68,76,cs),
(-68,31,o),
(-31,-2,o),
(42,-2,cs)
);
}
);
width = 429;
}
);
unicode = 116;
},
{
glyphname = u;
kernLeft = u;
kernRight = u;
lastChange = "2023-11-17 04:46:25 +0000";
layers = (
{
anchors = (
{
name = bottom;
pos = (104,-2);
},
{
name = ogonek;
pos = (628,49);
},
{
name = top;
pos = (665,736);
},
{
name = topright;
pos = (899,673);
}
);
layerId = master01;
shapes = (
{
closed = 1;
nodes = (
(104,-2,o),
(161,10,o),
(229,51,cs),
(297,92,o),
(367,153,o),
(453,246,c),
(415,180,o),
(401,131,o),
(403,83,c),
(404,30,o),
(444,-2,o),
(498,-2,cs),
(691,-2,o),
(977,347,o),
(1018,389,c),
(998,406,l),
(961,368,o),
(683,26,o),
(505,26,cs),
(457,26,o),
(454,46,o),
(453,62,c),
(453,87,o),
(462,103,o),
(526,178,c),
(638,315,o),
(822,547,o),
(940,676,c),
(923,674,o),
(899,673,o),
(868,673,cs),
(839,673,o),
(830,675,o),
(788,679,c),
(724,603,o),
(669,538,o),
(623,481,cs),
(607,462,o),
(590,442,o),
(561,406,cs),
(427,241,o),
(313,140,o),
(224,80,cs),
(160,38,o),
(98,23,o),
(71,23,cs,{
name = hr00;
}),
(34,23,o),
(23,40,o),
(23,59,c),
(20,144,o),
(123,246,o),
(167,301,cs),
(256,410,o),
(376,555,o),
(489,676,c),
(478,674,o),
(436,673,o),
(417,673,cs),
(392,673,o),
(354,676,o),
(337,679,c),
(275,612,o),
(219,538,o),
(167,477,cs),
(19,304,o),
(-64,197,o),
(-59,99,c),
(-58,49,o),
(-24,-2,o),
(63,-2,cs)
);
}
);
width = 885;
}
);
unicode = 117;
userData = {
KernOnName = u;
};
},
{
glyphname = v;
kernLeft = v;
kernRight = v;
lastChange = "2024-04-11 14:25:59 +0000";
layers = (
{
anchors = (
{
name = bottom;
pos = (-25,0);
},
{
name = top;
pos = (675,760);
}
);
layerId = master01;
shapes = (
{
closed = 1;
nodes = (
(194,-2,o),
(421,149,o),
(569,274,c),
(540,210,o),
(556,168,o),
(621,168,cs),
(728,168,o),
(876,316,o),
(943,389,c),
(922,406,l),
(870,347,o),
(720,193,o),
(629,193,cs),
(557,193,o),
(578,260,o),
(623,322,c),
(650,347,l),
(818,510,o),
(849,598,o),
(849,654,cs),
(849,694,o),
(828,709,o),
(793,709,cs),
(749,709,o),
(714,674,o),
(714,625,cs),
(714,512,o),
(694,424,o),
(549,295,c),
(395,160,o),
(199,24,o),
(52,24,cs,{
name = hr00;
}),
(18,24,o),
(-4,26,o),
(-4,70,cs),
(-4,141,o),
(192,328,o),
(258,398,cs),
(352,498,o),
(387,552,o),
(525,676,c),
(507,674,o),
(484,673,o),
(453,673,cs),
(422,673,o),
(410,675,o),
(368,679,c),
(267,578,o),
(178,490,o),
(119,415,cs),
(-46,209,o),
(-74,152,o),
(-74,81,cs),
(-74,30,o),
(-36,-2,o),
(38,-2,cs)
);
}
);
width = 810;
}
);
unicode = 118;
},
{
glyphname = vturned;
kernLeft = vturned;
kernRight = vturned;
lastChange = "2023-11-17 03:06:59 +0000";
layers = (
{
anchors = (
{
name = bottom;
pos = (117,0);
},
{
name = top;
pos = (733,760);
}
);
layerId = master01;
shapes = (
{
closed = 1;
nodes = (
(-10,9,o),
(25,44,o),
(25,93,cs),
(25,206,o),
(35,307,o),
(180,436,c),
(334,611,o),
(530,694,o),
(677,694,cs,{
name = hr00;
}),
(711,694,o),
(733,692,o),
(733,648,cs),
(733,577,o),
(547,390,o),
(481,320,cs),
(387,220,o),
(352,166,o),
(214,42,c),
(232,44,o),
(255,45,o),
(286,45,cs),
(317,45,o),
(329,43,o),
(371,39,c),
(472,140,o),
(563,227,o),
(620,303,cs),
(775,509,o),
(803,566,o),
(803,637,cs),
(803,688,o),
(765,720,o),
(691,720,cs),
(535,720,o),
(308,622,o),
(160,457,c),
(79,371,l),
(-89,208,o),
(-110,120,o),
(-110,64,cs),
(-110,24,o),
(-89,9,o),
(-54,9,cs)
);
}
);
width = 660;
}
);
unicode = 652;
},
{
glyphname = w;
kernLeft = w;
kernRight = w;
lastChange = "2022-05-18 03:32:05 +0000";
layers = (
{
anchors = (
{
name = bottom;
pos = (221,0);
},
{
name = top;
pos = (880,760);
}
);
layerId = master01;
shapes = (
{
closed = 1;
nodes = (
(57,-2,o),
(159,43,o),
(298,147,cs),
(342,179,o),
(385,215,o),
(427,253,c),
(378,172,o),
(359,110,o),
(359,63,cs),
(359,26,o),
(376,-2,o),
(422,-2,cs),
(533,-2,o),
(749,122,o),
(905,244,c),
(895,197,o),
(918,168,o),
(971,168,cs),
(1080,168,o),
(1219,316,o),
(1287,389,c),
(1265,406,l),
(1214,347,o),
(1072,193,o),
(980,193,cs),
(928,193,o),
(923,229,o),
(940,273,c),
(971,298,o),
(999,324,o),
(1022,347,cs),
(1187,512,o),
(1221,598,o),
(1221,654,cs),
(1221,694,o),
(1202,719,o),
(1155,719,cs),
(1113,719,o),
(1085,674,o),
(1085,625,cs),
(1085,512,o),
(1052,459,o),
(919,319,cs),
(759,152,o),
(523,26,o),
(433,26,cs),
(420,26,o),
(408,31,o),
(408,49,cs),
(408,68,o),
(426,103,o),
(489,178,c),
(608,315,o),
(827,547,o),
(950,676,c),
(931,674,o),
(909,673,o),
(878,673,cs),
(847,673,o),
(839,675,o),
(797,679,c),
(688,570,o),
(631,513,o),
(535,401,c),
(473,330,o),
(387,250,o),
(298,185,c),
(136,64,o),
(43,26,o),
(-9,26,cs,{
name = hr00;
}),
(-32,26,o),
(-35,33,o),
(-35,48,cs),
(-35,72,o),
(-4,115,o),
(61,194,cs),
(146,295,o),
(349,510,o),
(511,676,c),
(498,674,o),
(457,673,o),
(439,673,cs),
(414,673,o),
(375,676,o),
(358,679,c),
(82,422,o),
(-80,188,o),
(-80,62,cs),
(-80,18,o),
(-53,-2,o),
(-15,-2,cs)
);
}
);
width = 1154;
}
);
unicode = 119;
},
{
glyphname = x;
kernLeft = x;
kernRight = x;
lastChange = "2022-05-18 03:32:05 +0000";
layers = (
{
anchors = (
{
name = bottom;
pos = (290,0);
},
{
name = top;
pos = (741,719);
}
);
layerId = master01;
shapes = (
{
closed = 1;
nodes = (
(87,-2,o),
(253,84,o),
(387,268,c),
(371,217,o),
(363,177,o),
(363,149,cs),
(363,39,o),
(434,-2,o),
(507,-2,cs),
(727,-2,o),
(1023,375,o),
(1039,389,c),
(1018,407,l),
(1006,393,o),
(723,26,o),
(520,26,cs),
(482,26,o),
(454,41,o),
(454,82,cs),
(454,122,o),
(465,171,o),
(504,254,c),
(516,276,o),
(528,297,o),
(538,318,c),
(644,502,o),
(796,636,o),
(880,636,cs,{
name = hr03;
}),
(884,636,o),
(890,636,o),
(897,635,c),
(900,584,o),
(925,553,o),
(970,553,cs),
(995,553,o),
(1027,572,o),
(1027,613,cs),
(1027,644,o),
(1004,685,o),
(934,685,cs),
(818,685,o),
(683,574,o),
(591,452,c),
(603,493,o),
(609,526,o),
(609,548,cs),
(609,634,o),
(562,685,o),
(486,685,cs,{
name = hr04;
}),
(400,685,o),
(330,650,o),
(112,406,c),
(110,401,o),
(113,398,o),
(115,396,cs),
(123,389,o),
(129,388,o),
(133,389,c),
(338,622,o),
(408,654,o),
(475,654,cs),
(509,654,o),
(522,634,o),
(522,602,cs),
(522,561,o),
(514,520,o),
(455,435,c),
(339,214,o),
(181,66,o),
(54,66,cs,{
name = hr01;
}),
(38,66,o),
(30,71,o),
(14,83,cs),
(-1,93,o),
(-11,98,o),
(-27,98,cs),
(-60,98,o),
(-88,74,o),
(-88,51,cs),
(-88,17,o),
(-67,-2,o),
(-3,-2,cs)
);
}
);
width = 906;
}
);
unicode = 120;
},
{
glyphname = y;
kernLeft = y;
kernRight = y;
lastChange = "2022-05-18 03:32:05 +0000";
layers = (
{
anchors = (
{
name = bottom;
pos = (390,-364);
},
{
name = top;
pos = (678,718);
}
);
layerId = master01;
shapes = (
{
closed = 1;
nodes = (
(-244,-787,o),
(-98,-709,o),
(278,-235,c),
(680,-46,o),
(765,56,o),
(1043,389,c),
(1022,406,l),
(766,93,o),
(682,-14,o),
(313,-191,c),
(407,-71,o),
(515,72,o),
(642,244,c),
(990,673,l),
(973,670,o),
(935,669,o),
(918,669,cs),
(895,669,o),
(870,673,o),
(856,676,c),
(802,609,o),
(727,515,o),
(591,366,c),
(457,202,o),
(247,24,o),
(67,24,cs,{
name = hr00;
}),
(47,24,o),
(16,26,o),
(16,70,cs),
(16,141,o),
(198,328,o),
(259,398,c),
(352,498,o),
(386,552,o),
(525,676,c),
(507,674,o),
(484,673,o),
(454,673,cs),
(423,673,o),
(410,675,o),
(368,679,c),
(268,578,o),
(179,490,o),
(118,415,c),
(-28,209,o),
(-53,152,o),
(-53,81,cs),
(-53,30,o),
(-15,-2,o),
(59,-2,cs),
(221,-2,o),
(436,152,o),
(549,272,c),
(560,268,l),
(395,56,o),
(263,-113,o),
(153,-248,c),
(-396,-479,o),
(-555,-612,o),
(-555,-720,cs),
(-555,-751,o),
(-525,-787,o),
(-468,-787,cs)
);
},
{
closed = 1;
nodes = (
(-506,-760,o),
(-523,-735,o),
(-523,-720,cs),
(-523,-607,o),
(-339,-486,o),
(118,-291,c),
(-197,-675,o),
(-315,-760,o),
(-464,-760,cs)
);
}
);
width = 910;
}
);
unicode = 121;
},
{
color = 0;
glyphname = yhook;
kernLeft = y;
kernRight = y;
lastChange = "2023-10-28 18:47:56 +0000";
layers = (
{
anchors = (
{
name = bottom;
pos = (390,-364);
},
{
name = top;
pos = (678,718);
}
);
layerId = master01;
shapes = (
{
closed = 1;
nodes = (
(-244,-787,o),
(-98,-709,o),
(278,-235,c),
(680,-46,o),
(765,56,o),
(1043,389,c),
(1022,406,l),
(766,93,o),
(682,-14,o),
(313,-191,c),
(407,-71,o),
(515,72,o),
(642,244,c),
(990,673,ls),
(1075,777,o),
(1304,1109,o),
(1516,1109,cs),
(1689,1109,o),
(1748,968,o),
(1714,873,cs),
(1674,760,o),
(1648,746,o),
(1607,760,c),
(1594,772,o),
(1577,778,o),
(1557,778,cs),
(1507,778,o),
(1483,747,o),
(1478,717,cs),
(1473,684,o),
(1500,650,o),
(1563,650,cs),
(1662,650,o),
(1728,789,o),
(1738,827,cs),
(1793,1030,o),
(1665,1130,o),
(1516,1130,cs),
(1296,1130,o),
(1090,989,o),
(856,676,cs),
(805,607,o),
(727,515,o),
(591,366,c),
(457,202,o),
(247,24,o),
(67,24,cs,{
name = hr00;
}),
(47,24,o),
(16,26,o),
(16,70,cs),
(16,141,o),
(198,328,o),
(259,398,cs),
(352,498,o),
(386,552,o),
(525,676,c),
(507,674,o),
(484,673,o),
(454,673,cs),
(423,673,o),
(410,675,o),
(368,679,c),
(268,578,o),
(179,490,o),
(118,415,c),
(-28,209,o),
(-53,152,o),
(-53,81,cs),
(-53,30,o),
(-15,-2,o),
(59,-2,cs),
(221,-2,o),
(436,152,o),
(549,272,c),
(560,268,l),
(395,56,o),
(263,-113,o),
(153,-248,c),
(-396,-479,o),
(-555,-612,o),
(-555,-720,cs),
(-555,-751,o),
(-525,-787,o),
(-468,-787,cs)
);
},
{
closed = 1;
nodes = (
(-506,-760,o),
(-523,-735,o),
(-523,-720,cs),
(-523,-607,o),
(-339,-486,o),
(118,-291,c),
(-197,-675,o),
(-315,-760,o),
(-464,-760,cs)
);
}
);
width = 910;
}
);
metricLeft = y;
metricWidth = y;
unicode = 436;
},
{
glyphname = z;
kernLeft = z;
kernRight = z;
lastChange = "2022-05-18 03:32:05 +0000";
layers = (
{
anchors = (
{
name = bottom;
pos = (151,-674);
},
{
name = center;
pos = (308,205);
},
{
name = top;
pos = (557,760);
}
);
layerId = master01;
shapes = (
{
closed = 1;
nodes = (
(-122,-787,o),
(302,-408,o),
(302,-147,cs),
(302,-133,o),
(301,-120,o),
(299,-109,c),
(535,27,o),
(685,214,o),
(827,389,c),
(806,406,l),
(679,244,o),
(532,61,o),
(294,-83,c),
(279,-26,o),
(239,2,o),
(179,8,c),
(298,75,o),
(435,183,o),
(553,473,c),
(720,490,o),
(853,586,o),
(853,650,cs),
(853,682,o),
(823,708,o),
(761,708,cs),
(667,708,o),
(545,641,o),
(430,495,c),
(341,517,o),
(290,581,o),
(290,630,cs),
(290,700,o),
(363,700,o),
(363,764,cs),
(363,787,o),
(342,803,o),
(310,803,cs),
(252,803,o),
(214,748,o),
(214,691,cs),
(214,659,o),
(221,627,o),
(236,597,c),
(206,540,o),
(187,496,o),
(110,406,c),
(73,361,o),
(28,307,o),
(28,306,cs),
(28,302,o),
(31,301,o),
(35,301,cs),
(38,301,o),
(64,311,o),
(131,389,cs),
(193,462,o),
(228,525,o),
(253,571,c,{
name = hr03;
}),
(285,527,o),
(338,492,o),
(416,477,c),
(387,438,o),
(358,394,o),
(331,345,cs),
(171,48,o),
(137,11,o),
(19,-41,cs),
(-21,-58,o),
(-29,-70,o),
(-29,-76,cs),
(-29,-80,o),
(-9,-92,o),
(-1,-92,cs),
(10,-92,o),
(7,-85,o),
(38,-67,cs),
(72,-46,o),
(110,-29,o),
(151,-7,c,{
name = hr01;
}),
(153,-7,ls),
(177,-7,o),
(202,-33,o),
(202,-90,cs),
(202,-103,o),
(201,-117,o),
(199,-131,c),
(-219,-365,o),
(-494,-566,o),
(-494,-705,cs),
(-494,-749,o),
(-469,-787,o),
(-407,-787,cs)
);
},
{
closed = 1;
nodes = (
(-450,-762,o),
(-464,-736,o),
(-464,-710,cs),
(-464,-561,o),
(-179,-378,o),
(193,-161,c),
(129,-429,o),
(-253,-762,o),
(-407,-762,cs)
);
},
{
closed = 1;
nodes = (
(621,633,o),
(700,687,o),
(760,687,cs),
(797,687,o),
(819,671,o),
(819,651,cs),
(819,593,o),
(702,513,o),
(561,493,c)
);
}
);
width = 694;
}
);
unicode = 122;
},
{
glyphname = saltillo;
kernLeft = saltillo;
kernRight = saltillo;
lastChange = "2022-05-18 03:32:05 +0000";
layers = (
{
layerId = master01;
shapes = (
{
closed = 1;
nodes = (
(280,611,o),
(287,614,o),
(296,627,cs),
(322,663,o),
(394,766,o),
(511,930,cs),
(638,1110,o),
(779,1316,o),
(980,1575,c),
(963,1572,o),
(923,1571,o),
(913,1570,cs),
(890,1569,o),
(852,1572,o),
(836,1575,c),
(795,1515,ls),
(704,1381,o),
(406,896,o),
(282,666,cs),
(269,643,o),
(264,629,o),
(264,622,cs),
(264,614,o),
(268,611,o),
(274,611,cs,{
name = hr00;
})
);
}
);
width = 232;
}
);
unicode = 42892;
},
{
color = 0;
glyphname = bhook.001;
kernLeft = b;
kernRight = b;
lastChange = "2023-10-28 18:48:17 +0000";
layers = (
{
anchors = (
{
name = bottom;
pos = (77,0);
},
{
name = top;
pos = (1053,1595);
}
);
layerId = master01;
shapes = (
{
closed = 1;
nodes = (
(1441,1558,o),
(1500,1417,o),
(1466,1322,cs),
(1426,1209,o),
(1400,1195,o),
(1359,1209,c),
(1346,1221,o),
(1329,1227,o),
(1309,1227,cs),
(1259,1227,o),
(1235,1196,o),
(1230,1166,cs),
(1225,1133,o),
(1252,1099,o),
(1315,1099,cs),
(1414,1099,o),
(1480,1238,o),
(1490,1276,cs),
(1545,1479,o),
(1417,1579,o),
(1268,1579,cs),
(940,1579,o),
(456,943,o),
(245,628,cs),
(95,402,o),
(0,247,o),
(0,119,cs),
(0,49,o),
(40,-10,o),
(128,-10,cs,{
name = hr01;
}),
(224,-10,o),
(374,39,o),
(505,185,c),
(530,209,o),
(551,232,o),
(569,256,c),
(573,213,o),
(595,186,o),
(652,186,cs),
(755,186,o),
(877,340,o),
(921,389,c),
(900,406,l),
(867,364,o),
(740,211,o),
(652,211,cs),
(601,213,o),
(596,243,o),
(596,264,cs),
(596,275,o),
(595,285,o),
(597,294,c),
(636,354,o),
(660,419,o),
(683,510,cs,{
name = hr03;
}),
(688,527,o),
(690,545,o),
(691,563,cs),
(692,613,o),
(674,655,o),
(633,655,cs),
(586,655,o),
(573,611,o),
(571,579,cs),
(570,548,o),
(584,531,o),
(583,492,cs),
(583,477,o),
(571,343,o),
(514,274,c),
(416,99,o),
(259,15,o),
(130,15,cs),
(93,15,o),
(55,31,o),
(55,100,cs),
(55,230,o),
(227,449,o),
(575,873,cs),
(855,1211,o),
(1039,1558,o),
(1268,1558,cs)
);
}
);
width = 787;
}
);
metricLeft = b;
metricWidth = b;
},
{
color = 0;
glyphname = dhook.001;
kernLeft = d;
kernRight = d;
lastChange = "2023-10-28 18:48:23 +0000";
layers = (
{
anchors = (
{
name = bottom;
pos = (127,0);
},
{
name = center;
pos = (387,340);
},
{
name = top;
pos = (620,854);
},
{
name = topright;
pos = (1580,1121);
}
);
layerId = master01;
shapes = (
{
closed = 1;
nodes = (
(209,-2,o),
(337,70,o),
(518,272,c),
(526,268,l),
(445,171,o),
(407,111,o),
(406,66,cs),
(406,26,o),
(431,-2,o),
(497,-2,cs),
(733,-2,o),
(994,347,o),
(1037,389,c),
(1015,406,l),
(977,368,o),
(734,28,o),
(513,28,cs),
(493,28,o),
(488,36,o),
(488,55,cs),
(488,89,o),
(528,147,o),
(605,250,cs),
(1046,869,l),
(1326,1207,o),
(1510,1554,o),
(1739,1554,cs),
(1912,1554,o),
(1971,1413,o),
(1937,1318,cs),
(1897,1205,o),
(1871,1191,o),
(1830,1205,c),
(1817,1217,o),
(1800,1223,o),
(1780,1223,cs),
(1730,1223,o),
(1706,1192,o),
(1701,1162,cs),
(1696,1129,o),
(1723,1095,o),
(1786,1095,cs),
(1885,1095,o),
(1951,1234,o),
(1961,1272,cs),
(2016,1475,o),
(1888,1575,o),
(1739,1575,cs),
(1411,1575,o),
(933,901,o),
(722,586,c),
(723,603,ls),
(723,658,o),
(656,685,o),
(601,685,cs),
(470,685,o),
(306,632,o),
(126,423,cs),
(38,323,o),
(1,218,o),
(1,129,cs),
(1,47,o),
(44,-2,o),
(128,-2,cs,{
name = hr00;
})
);
},
{
closed = 1;
nodes = (
(104,28,o),
(85,42,o),
(85,80,cs),
(85,144,o),
(128,235,o),
(228,356,cs),
(403,562,o),
(552,654,o),
(617,654,cs),
(654,654,o),
(693,635,o),
(693,594,cs),
(693,570,o),
(684,542,o),
(670,513,c),
(612,430,o),
(572,373,o),
(554,351,cs),
(493,277,o),
(435,222,o),
(383,173,cs),
(260,62,o),
(188,28,o),
(135,28,cs)
);
}
);
width = 904;
}
);
metricLeft = d;
metricWidth = d;
},
{
glyphname = f_f;
kernLeft = f;
kernRight = f;
lastChange = "2022-05-18 03:32:05 +0000";
layers = (
{
anchors = (
{
name = caret_1;
pos = (341,0);
}
);
layerId = master01;
shapes = (
{
closed = 1;
nodes = (
(-62,-787,o),
(153,-322,o),
(188,144,c,{
name = hr00;
}),
(229,208,l),
(262,184,o),
(303,167,o),
(354,162,cs),
(515,145,o),
(631,211,o),
(708,277,c),
(622,147,ls),
(224,-455,o),
(154,-581,o),
(160,-690,c),
(161,-746,o),
(203,-787,o),
(258,-787,cs),
(491,-787,o),
(706,-322,o),
(741,144,c),
(783,208,l),
(816,184,o),
(857,167,o),
(908,162,cs),
(1185,133,o),
(1327,348,o),
(1370,389,c),
(1347,405,l),
(1278,321,o),
(1154,171,o),
(909,187,cs),
(864,190,o),
(827,207,o),
(798,232,c),
(869,342,l),
(1281,601,o),
(1820,1210,o),
(1808,1493,c),
(1807,1541,o),
(1779,1579,o),
(1722,1579,cs),
(1620,1579,o),
(1447,1396,o),
(1256,1123,cs),
(1210,1057,o),
(1129,919,o),
(788,399,c),
(772,379,o),
(752,356,o),
(729,333,c),
(724,345,o),
(721,357,o),
(719,368,c),
(752,385,o),
(784,435,o),
(784,465,cs),
(784,504,o),
(760,526,o),
(730,526,cs),
(696,526,o),
(672,496,o),
(665,453,cs),
(660,420,o),
(670,361,o),
(700,305,c),
(625,238,o),
(516,176,o),
(355,187,cs),
(310,190,o),
(273,207,o),
(244,232,c),
(315,342,l),
(727,601,o),
(1266,1210,o),
(1254,1493,c),
(1253,1541,o),
(1225,1579,o),
(1168,1579,cs),
(1066,1579,o),
(893,1396,o),
(702,1123,cs),
(653,1054,o),
(566,905,o),
(182,319,c),
(174,336,o),
(168,353,o),
(165,368,c),
(198,385,o),
(230,435,o),
(230,465,cs),
(230,504,o),
(206,526,o),
(176,526,cs),
(142,526,o),
(118,496,o),
(111,453,cs),
(106,416,o),
(119,346,o),
(159,284,c),
(68,147,ls),
(-331,-454,o),
(-400,-581,o),
(-394,-690,c),
(-393,-746,o),
(-351,-787,o),
(-296,-787,cs)
);
},
{
closed = 1;
nodes = (
(-316,-762,o),
(-334,-742,o),
(-334,-720,cs),
(-334,-634,o),
(-92,-282,o),
(155,94,c),
(108,-419,o),
(-174,-762,o),
(-289,-762,cs)
);
},
{
closed = 1;
nodes = (
(238,-762,o),
(220,-742,o),
(220,-720,cs),
(220,-634,o),
(462,-282,o),
(709,94,c),
(662,-419,o),
(380,-762,o),
(265,-762,cs)
);
},
{
closed = 1;
nodes = (
(557,718,o),
(708,952,o),
(893,1245,cs),
(1052,1496,o),
(1120,1556,o),
(1163,1556,cs),
(1188,1556,o),
(1208,1536,o),
(1209,1499,cs),
(1218,1240,o),
(720,648,o),
(351,398,c)
);
},
{
closed = 1;
nodes = (
(1111,718,o),
(1262,952,o),
(1447,1245,cs),
(1606,1496,o),
(1674,1556,o),
(1717,1556,cs),
(1742,1556,o),
(1762,1536,o),
(1763,1499,cs),
(1772,1240,o),
(1274,648,o),
(905,398,c)
);
}
);
width = 1236;
}
);
metricLeft = f;
metricRight = f;
},
{
glyphname = fi;
kernLeft = f;
kernRight = i;
lastChange = "2022-05-18 03:32:05 +0000";
layers = (
{
anchors = (
{
name = caret_1;
pos = (341,0);
}
);
layerId = master01;
shapes = (
{
closed = 1;
nodes = (
(-62,-787,o),
(153,-322,o),
(188,144,c,{
name = hr01;
}),
(229,208,l),
(262,184,o),
(303,167,o),
(354,162,cs),
(489,148,o),
(593,192,o),
(668,246,c),
(614,164,o),
(601,119,o),
(601,81,cs),
(601,30,o),
(655,-2,o),
(737,-2,cs),
(956,-2,o),
(1230,350,o),
(1268,389,c),
(1248,407,l),
(1229,386,o),
(933,26,o),
(754,26,cs),
(731,26,o),
(681,25,o),
(681,60,cs),
(681,115,o),
(760,218,o),
(1150,677,c),
(1139,676,o),
(1131,675,o),
(1108,675,cs),
(1083,675,o),
(1024,676,o),
(1012,678,c),
(881,525,o),
(791,415,o),
(729,332,c),
(653,256,o),
(538,175,o),
(355,187,cs),
(310,190,o),
(273,207,o),
(244,232,c),
(315,342,l),
(727,601,o),
(1266,1210,o),
(1254,1493,c),
(1253,1541,o),
(1225,1579,o),
(1168,1579,cs),
(1066,1579,o),
(893,1396,o),
(702,1123,cs),
(653,1054,o),
(566,905,o),
(182,319,c),
(174,336,o),
(168,353,o),
(165,368,c),
(198,385,o),
(230,435,o),
(230,465,cs),
(230,504,o),
(206,526,o),
(176,526,cs),
(142,526,o),
(118,496,o),
(111,453,cs),
(106,416,o),
(119,346,o),
(159,284,c),
(68,147,ls),
(-330,-455,o),
(-400,-581,o),
(-394,-690,c),
(-393,-746,o),
(-351,-787,o),
(-296,-787,cs)
);
},
{
closed = 1;
nodes = (
(-316,-762,o),
(-334,-742,o),
(-334,-720,cs),
(-334,-634,o),
(-92,-282,o),
(155,94,c),
(108,-419,o),
(-174,-762,o),
(-289,-762,cs)
);
},
{
closed = 1;
nodes = (
(557,718,o),
(708,952,o),
(893,1245,cs),
(1052,1496,o),
(1120,1556,o),
(1163,1556,cs),
(1188,1556,o),
(1208,1536,o),
(1209,1499,cs),
(1218,1240,o),
(720,648,o),
(351,398,c)
);
},
{
closed = 1;
nodes = (
(1297,876,o),
(1348,920,o),
(1348,969,cs,{
name = hr02;
}),
(1348,1004,o),
(1324,1032,o),
(1287,1032,cs),
(1232,1032,o),
(1187,984,o),
(1187,938,cs),
(1187,902,o),
(1211,876,o),
(1248,876,cs)
);
}
);
width = 1135;
}
);
metricLeft = f;
metricRight = i;
unicode = 64257;
},
{
glyphname = lslash_lslash;
kernLeft = l;
kernRight = l;
lastChange = "2022-05-18 03:32:05 +0000";
layers = (
{
anchors = (
{
name = caret_1;
pos = (301,0);
}
);
background = {
shapes = (
{
closed = 1;
nodes = (
(1406,1781,o),
(1399,1780,o),
(1389,1769,c),
(1359,1736,o),
(1313,1724,o),
(1262,1724,cs),
(1226,1724,o),
(1177,1733,o),
(1103,1757,cs),
(1050,1774,o),
(982,1792,o),
(935,1792,cs),
(886,1792,o),
(824,1782,o),
(775,1757,cs),
(725,1733,o),
(701,1713,o),
(699,1698,c),
(700,1695,o),
(706,1690,o),
(715,1690,cs),
(724,1689,o),
(731,1690,o),
(741,1700,c),
(771,1733,o),
(817,1744,o),
(868,1745,cs),
(903,1746,o),
(952,1736,o),
(1027,1713,cs),
(1081,1695,o),
(1147,1677,o),
(1195,1677,cs),
(1244,1677,o),
(1306,1687,o),
(1355,1713,cs),
(1405,1736,o),
(1429,1757,o),
(1431,1772,c),
(1430,1774,o),
(1424,1780,o),
(1415,1780,cs)
);
},
{
closed = 1;
nodes = (
(1862,1781,o),
(1855,1780,o),
(1845,1769,c),
(1815,1736,o),
(1769,1724,o),
(1718,1724,cs),
(1682,1724,o),
(1633,1733,o),
(1559,1757,cs),
(1506,1774,o),
(1438,1792,o),
(1391,1792,cs),
(1342,1792,o),
(1280,1782,o),
(1231,1757,cs),
(1181,1733,o),
(1157,1713,o),
(1155,1698,c),
(1156,1695,o),
(1162,1690,o),
(1171,1690,cs),
(1180,1689,o),
(1187,1690,o),
(1197,1700,c),
(1227,1733,o),
(1273,1744,o),
(1324,1745,cs),
(1359,1746,o),
(1408,1736,o),
(1483,1713,cs),
(1537,1695,o),
(1603,1677,o),
(1651,1677,cs),
(1700,1677,o),
(1762,1687,o),
(1811,1713,cs),
(1861,1736,o),
(1885,1757,o),
(1887,1772,c),
(1886,1774,o),
(1880,1780,o),
(1871,1780,cs)
);
}
);
};
layerId = master01;
shapes = (
{
closed = 1;
nodes = (
(719,-2,o),
(1003,347,o),
(1046,389,c),
(1026,406,l),
(986,368,o),
(710,26,o),
(513,26,cs,{
name = hr00;
}),
(485,26,o),
(466,39,o),
(466,59,cs),
(466,90,o),
(478,119,o),
(718,454,c),
(1540,1595,l),
(1523,1593,o),
(1508,1591,o),
(1498,1591,cs),
(1445,1589,o),
(1419,1593,o),
(1401,1595,c),
(628,490,l),
(418,187,o),
(399,150,o),
(399,79,cs),
(399,33,o),
(440,-2,o),
(496,-2,cs)
);
},
{
closed = 1;
nodes = (
(263,-2,o),
(547,347,o),
(590,389,c),
(570,406,l),
(530,368,o),
(254,26,o),
(57,26,cs,{
name = hr00;
}),
(29,26,o),
(10,39,o),
(10,59,cs),
(10,90,o),
(22,119,o),
(262,454,c),
(1084,1595,l),
(1067,1593,o),
(1052,1591,o),
(1042,1591,cs),
(989,1589,o),
(963,1593,o),
(945,1595,c),
(172,490,l),
(-38,187,o),
(-57,150,o),
(-57,79,cs),
(-57,33,o),
(-16,-2,o),
(40,-2,cs)
);
},
{
closed = 1;
nodes = (
(1594,1685,o),
(1656,1705,o),
(1706,1730,cs),
(1755,1754,o),
(1779,1775,o),
(1781,1790,c),
(1780,1792,o),
(1774,1798,o),
(1765,1798,cs),
(1756,1799,o),
(1749,1798,o),
(1739,1787,c),
(1709,1754,o),
(1663,1732,o),
(1612,1732,cs),
(1576,1732,o),
(1447,1751,o),
(1363,1775,cs),
(1309,1790,o),
(1202,1820,o),
(1105,1820,cs),
(1056,1820,o),
(994,1800,o),
(945,1776,cs),
(895,1751,o),
(871,1731,o),
(869,1716,c),
(870,1713,o),
(876,1708,o),
(885,1708,cs),
(894,1707,o),
(901,1708,o),
(911,1718,c),
(941,1751,o),
(987,1772,o),
(1038,1773,cs),
(1123,1774,o),
(1202,1754,o),
(1287,1731,cs),
(1342,1716,o),
(1447,1685,o),
(1545,1685,cs)
);
}
);
width = 912;
}
);
metricLeft = lslash;
},
{
glyphname = ordfeminine;
kernLeft = ordfeminine;
kernRight = ordfeminine;
lastChange = "2022-05-18 03:32:05 +0000";
layers = (
{
layerId = master01;
shapes = (
{
closed = 1;
nodes = (
(300,869,o),
(396,926,o),
(523,1074,c),
(530,1070,l),
(470,999,o),
(439,953,o),
(439,920,cs),
(439,890,o),
(461,869,o),
(511,869,cs),
(561,869,o),
(630,894,o),
(694,952,cs),
(703,961,o),
(706,967,o),
(706,972,cs),
(706,978,o),
(701,982,o),
(695,982,cs),
(691,982,o),
(685,977,o),
(674,967,cs),
(614,915,o),
(563,898,o),
(538,898,cs),
(521,898,o),
(513,902,o),
(513,917,cs),
(513,935,o),
(535,983,o),
(602,1062,c),
(854,1365,l),
(840,1363,o),
(811,1362,o),
(798,1362,cs),
(780,1362,o),
(754,1365,o),
(744,1368,c),
(724,1343,o),
(702,1318,o),
(671,1282,c),
(676,1297,o),
(678,1310,o),
(678,1321,cs),
(678,1361,o),
(645,1384,o),
(594,1384,cs),
(485,1384,o),
(368,1343,o),
(234,1188,cs),
(169,1113,o),
(131,1034,o),
(131,968,cs),
(131,904,o),
(169,869,o),
(234,869,cs,{
name = hr00;
})
);
},
{
closed = 1;
nodes = (
(218,895,o),
(210,906,o),
(210,938,cs),
(210,986,o),
(244,1045,o),
(319,1135,cs),
(448,1292,o),
(562,1352,o),
(611,1352,cs),
(636,1352,o),
(653,1341,o),
(653,1319,cs),
(653,1295,o),
(642,1263,o),
(625,1230,c),
(544,1133,ls),
(384,942,o),
(288,895,o),
(237,895,cs)
);
}
);
width = 854;
}
);
unicode = 170;
userData = {
KernOnSpecialSpacing = {
L = superiors;
R = superiors;
};
};
},
{
glyphname = ordmasculine;
kernLeft = ordmasculine;
kernRight = ordmasculine;
lastChange = "2022-05-18 03:32:05 +0000";
layers = (
{
layerId = master01;
shapes = (
{
closed = 1;
nodes = (
(350,869,o),
(469,938,o),
(553,1034,cs),
(622,1113,o),
(670,1208,o),
(670,1297,cs),
(670,1345,o),
(635,1383,o),
(563,1383,cs),
(433,1383,o),
(295,1281,o),
(217,1178,cs),
(176,1124,o),
(131,1035,o),
(131,969,cs),
(131,912,o),
(169,869,o),
(251,869,cs,{
name = hr00;
})
);
},
{
closed = 1;
nodes = (
(243,901,o),
(229,911,o),
(229,942,cs),
(229,1002,o),
(268,1076,o),
(339,1157,cs),
(450,1286,o),
(542,1347,o),
(586,1347,cs),
(624,1347,o),
(644,1332,o),
(644,1292,cs),
(644,1231,o),
(614,1167,o),
(573,1108,cs),
(478,971,o),
(356,901,o),
(272,901,cs)
);
}
);
width = 670;
}
);
unicode = 186;
userData = {
KernOnSpecialSpacing = {
L = superiors;
R = superiors;
};
};
},
{
glyphname = zero;
kernLeft = zero;
kernRight = zero;
lastChange = "2022-05-18 03:32:05 +0000";
layers = (
{
layerId = master01;
shapes = (
{
closed = 1;
nodes = (
(856,-5,o),
(1351,610,o),
(1351,1084,cs),
(1351,1275,o),
(1280,1408,o),
(1119,1408,cs),
(719,1408,o),
(198,785,o),
(198,310,cs,{
name = hr00;
}),
(198,113,o),
(279,-5,o),
(424,-5,cs)
);
},
{
closed = 1;
nodes = (
(358,22,o),
(307,89,o),
(307,225,cs),
(307,601,o),
(833,1384,o),
(1120,1384,cs),
(1224,1384,o),
(1296,1324,o),
(1296,1129,cs),
(1296,578,o),
(721,22,o),
(449,22,cs)
);
}
);
width = 1153;
}
);
unicode = 48;
},
{
glyphname = one;
kernLeft = one;
kernRight = one;
lastChange = "2022-05-18 03:32:05 +0000";
layers = (
{
layerId = master01;
shapes = (
{
closed = 1;
nodes = (
(210,19,o),
(245,24,o),
(284,24,cs),
(313,24,o),
(371,19,o),
(395,18,c),
(670,565,o),
(1026,1195,o),
(1141,1344,cs),
(1167,1378,o),
(1179,1398,o),
(1179,1410,cs),
(1179,1419,o),
(1172,1424,o),
(1164,1424,cs),
(1152,1424,o),
(1144,1416,o),
(1117,1373,c),
(1009,1192,o),
(559,718,o),
(378,611,cs),
(358,600,o),
(345,594,o),
(331,588,c),
(306,580,o),
(297,569,o),
(297,557,cs),
(297,545,o),
(306,537,o),
(320,537,cs),
(344,537,o),
(377,562,o),
(408,584,cs),
(525,668,o),
(650,781,o),
(831,972,c),
(651,690,o),
(372,271,o),
(190,13,c,{
name = hr00;
})
);
}
);
width = 796;
}
);
unicode = 49;
userData = {
KernOnName = one;
};
},
{
glyphname = two;
kernLeft = two;
kernRight = two;
lastChange = "2022-05-18 03:32:05 +0000";
layers = (
{
layerId = master01;
shapes = (
{
closed = 1;
nodes = (
(28,-58,o),
(45,-55,o),
(49,-47,cs),
(53,-36,o),
(53,-28,o),
(56,-23,cs),
(110,73,o),
(281,169,o),
(414,169,cs),
(472,169,o),
(561,155,o),
(662,72,cs),
(728,19,o),
(778,-2,o),
(849,-2,cs),
(962,-2,o),
(1029,38,o),
(1101,109,c),
(1156,166,o),
(1212,261,o),
(1212,309,cs),
(1212,329,o),
(1205,336,o),
(1197,336,cs),
(1186,336,o),
(1191,312,o),
(1183,294,c),
(1140,172,o),
(1044,108,o),
(947,108,cs),
(900,108,o),
(858,125,o),
(797,165,cs),
(724,213,o),
(653,234,o),
(557,234,cs),
(426,234,o),
(321,214,o),
(159,123,c),
(268,226,o),
(355,266,o),
(655,399,c),
(1109,598,o),
(1365,870,o),
(1365,1137,cs),
(1365,1289,o),
(1274,1410,o),
(1087,1410,cs),
(745,1410,o),
(412,1058,o),
(412,809,cs),
(412,749,o),
(434,655,o),
(580,655,cs),
(639,655,o),
(714,685,o),
(779,738,cs),
(876,816,o),
(937,898,o),
(937,921,cs),
(937,926,o),
(933,929,o),
(928,929,cs),
(922,929,o),
(916,928,o),
(905,911,cs),
(809,773,o),
(681,682,o),
(580,682,cs),
(517,682,o),
(484,724,o),
(484,779,cs),
(484,953,o),
(802,1383,o),
(1080,1383,cs),
(1181,1383,o),
(1234,1343,o),
(1234,1186,cs),
(1234,940,o),
(1018,633,o),
(567,409,c),
(347,301,o),
(207,207,o),
(121,129,cs),
(48,63,o),
(13,-2,o),
(13,-36,cs,{
name = hr00;
}),
(13,-52,o),
(18,-58,o),
(24,-58,cs)
);
}
);
width = 1272;
}
);
unicode = 50;
},
{
glyphname = three;
kernLeft = three;
kernRight = three;
lastChange = "2022-05-18 03:32:05 +0000";
layers = (
{
layerId = master01;
shapes = (
{
closed = 1;
nodes = (
(740,-238,o),
(1138,185,o),
(1138,435,cs),
(1138,596,o),
(1016,674,o),
(857,643,c),
(1188,779,o),
(1354,1014,o),
(1354,1159,cs),
(1354,1328,o),
(1249,1410,o),
(1060,1410,cs),
(774,1410,o),
(431,1066,o),
(431,836,cs),
(431,735,o),
(494,683,o),
(577,683,cs),
(725,683,o),
(995,929,o),
(995,1149,cs),
(995,1167,o),
(992,1172,o),
(985,1172,cs),
(978,1172,o),
(976,1167,o),
(973,1153,c),
(954,967,o),
(730,710,o),
(586,710,cs),
(530,710,o),
(513,748,o),
(513,797,cs),
(513,1000,o),
(828,1383,o),
(1057,1383,cs),
(1159,1383,o),
(1221,1341,o),
(1221,1203,cs),
(1221,1026,o),
(1127,809,o),
(837,662,cs),
(675,580,o),
(618,543,o),
(551,471,cs),
(537,456,o),
(523,431,o),
(523,415,cs),
(523,401,o),
(529,394,o),
(539,394,cs),
(553,394,o),
(560,400,o),
(565,415,cs),
(570,429,o),
(572,439,o),
(581,453,cs),
(641,541,o),
(776,611,o),
(891,611,cs),
(950,611,o),
(989,578,o),
(989,515,cs),
(989,145,o),
(635,-215,o),
(278,-215,cs),
(191,-215,o),
(79,-175,o),
(39,-110,c),
(42,-94,o),
(44,-70,o),
(44,-57,cs),
(44,-8,o),
(19,18,o),
(-17,18,cs,{
name = hr00;
}),
(-54,18,o),
(-80,-10,o),
(-80,-49,cs),
(-80,-131,o),
(93,-238,o),
(283,-238,cs)
);
}
);
width = 1214;
}
);
unicode = 51;
},
{
glyphname = four;
kernLeft = four;
kernRight = four;
lastChange = "2022-05-18 03:32:05 +0000";
layers = (
{
layerId = master01;
shapes = (
{
closed = 1;
nodes = (
(799,48,o),
(933,259,o),
(1075,453,c,{
name = hr03;
}),
(1120,446,o),
(1153,446,o),
(1203,446,cs),
(1278,446,o),
(1451,459,o),
(1546,536,cs),
(1565,552,o),
(1578,562,o),
(1578,569,cs),
(1578,572,o),
(1574,577,o),
(1568,577,cs),
(1555,577,o),
(1532,553,o),
(1498,535,cs),
(1444,506,o),
(1342,480,o),
(1237,480,cs),
(1193,480,o),
(1152,484,o),
(1105,494,c),
(1270,716,o),
(1441,910,o),
(1538,976,cs),
(1558,990,o),
(1560,993,o),
(1560,999,cs),
(1560,1003,o),
(1558,1008,o),
(1550,1008,cs),
(1540,1008,o),
(1517,996,o),
(1505,991,c),
(1384,930,o),
(1191,737,o),
(1005,518,c),
(850,562,ls),
(759,588,o),
(690,607,o),
(634,621,c),
(662,643,ls),
(865,803,o),
(1168,1167,o),
(1240,1239,cs),
(1322,1321,o),
(1354,1354,o),
(1411,1378,cs),
(1448,1393,o),
(1452,1395,o),
(1452,1402,cs),
(1452,1411,o),
(1445,1414,o),
(1417,1414,cs),
(1345,1414,o),
(1281,1399,o),
(1169,1386,c),
(1035,1169,o),
(766,823,o),
(555,640,c),
(478,656,o),
(431,659,o),
(369,659,cs),
(256,659,o),
(130,634,o),
(130,562,cs),
(130,521,o),
(194,491,o),
(289,491,cs,{
name = hr04;
}),
(365,491,o),
(456,498,o),
(597,595,c),
(667,574,o),
(742,547,o),
(821,522,cs),
(884,502,o),
(932,488,o),
(971,477,c),
(821,297,o),
(679,105,o),
(587,-43,c,{
name = hr01;
}),
(723,-115,l)
);
},
{
closed = 1;
nodes = (
(260,516,o),
(194,522,o),
(194,557,cs),
(194,602,o),
(249,635,o),
(377,635,cs),
(424,635,o),
(473,627,o),
(525,615,c),
(507,600,o),
(489,587,o),
(472,575,cs),
(402,526,o),
(349,516,o),
(301,516,cs)
);
}
);
width = 1496;
}
);
unicode = 52;
},
{
glyphname = five;
kernLeft = five;
kernRight = five;
lastChange = "2022-05-18 03:32:05 +0000";
layers = (
{
layerId = master01;
shapes = (
{
closed = 1;
nodes = (
(617,-317,o),
(1092,111,o),
(1108,507,cs),
(1116,720,o),
(996,836,o),
(791,836,cs),
(731,836,o),
(655,818,o),
(604,789,c),
(633,835,o),
(810,1146,o),
(853,1231,c),
(889,1269,o),
(946,1295,o),
(993,1295,cs),
(1027,1295,o),
(1056,1286,o),
(1102,1271,cs),
(1142,1259,o),
(1173,1255,o),
(1205,1255,cs,{
name = hr03;
}),
(1368,1255,o),
(1489,1344,o),
(1548,1465,cs),
(1552,1472,o),
(1556,1485,o),
(1556,1490,cs),
(1556,1498,o),
(1552,1500,o),
(1547,1500,cs),
(1541,1500,o),
(1537,1497,o),
(1533,1489,cs),
(1530,1481,o),
(1524,1471,o),
(1520,1465,cs),
(1460,1382,o),
(1403,1370,o),
(1339,1370,cs),
(1310,1370,o),
(1276,1377,o),
(1236,1391,c),
(1205,1400,o),
(1166,1410,o),
(1132,1410,cs),
(1051,1410,o),
(957,1364,o),
(886,1297,c),
(911,1344,o),
(933,1391,o),
(937,1400,c,{
name = hr04;
}),
(854,1396,l),
(764,1204,o),
(601,911,o),
(496,730,c),
(428,677,o),
(361,598,o),
(352,562,cs),
(350,553,o),
(356,551,o),
(362,551,c),
(368,549,o),
(377,552,o),
(391,575,cs),
(466,695,o),
(621,795,o),
(766,795,cs),
(893,795,o),
(971,736,o),
(971,581,cs),
(971,231,o),
(583,-288,o),
(154,-288,cs),
(23,-288,o),
(-72,-258,o),
(-109,-204,cs),
(-119,-190,o),
(-129,-172,o),
(-133,-161,cs,{
name = hr01;
}),
(-139,-145,o),
(-145,-135,o),
(-163,-135,cs),
(-178,-135,o),
(-190,-146,o),
(-190,-165,cs),
(-190,-193,o),
(-166,-229,o),
(-119,-258,c),
(-59,-292,o),
(30,-317,o),
(148,-317,cs)
);
}
);
width = 1197;
}
);
unicode = 53;
},
{
glyphname = six;
kernLeft = six;
kernRight = six;
lastChange = "2022-05-18 03:32:05 +0000";
layers = (
{
layerId = master01;
shapes = (
{
closed = 1;
nodes = (
(794,-5,o),
(1209,316,o),
(1219,711,c),
(1220,841,o),
(1154,917,o),
(1033,917,cs),
(821,917,o),
(610,684,o),
(605,481,cs),
(605,470,o),
(611,461,o),
(617,461,cs),
(625,461,o),
(629,466,o),
(633,488,cs),
(667,685,o),
(918,891,o),
(1024,891,cs),
(1084,891,o),
(1116,853,o),
(1115,776,cs),
(1113,662,o),
(1046,505,o),
(950,366,c),
(767,105,o),
(634,24,o),
(519,24,cs),
(431,24,o),
(392,98,o),
(394,223,cs),
(401,581,o),
(816,1383,o),
(1269,1383,cs),
(1350,1383,o),
(1398,1354,o),
(1396,1319,c),
(1396,1302,o),
(1388,1292,o),
(1363,1279,c),
(1331,1260,o),
(1315,1236,o),
(1314,1207,cs),
(1314,1178,o),
(1338,1147,o),
(1383,1147,cs),
(1434,1147,o),
(1481,1200,o),
(1482,1270,c),
(1484,1332,o),
(1416,1410,o),
(1262,1410,cs),
(809,1410,o),
(286,768,o),
(277,341,cs,{
name = hr00;
}),
(273,141,o),
(344,-5,o),
(525,-5,cs)
);
}
);
width = 1243;
}
);
unicode = 54;
},
{
glyphname = seven;
kernLeft = seven;
kernRight = seven;
lastChange = "2022-05-18 03:32:05 +0000";
layers = (
{
layerId = master01;
shapes = (
{
closed = 1;
nodes = (
(692,-545,o),
(700,-543,o),
(700,-537,cs),
(700,-529,o),
(682,-515,o),
(665,-490,cs),
(619,-424,o),
(569,-274,o),
(569,-89,cs,{
name = hr04;
}),
(569,278,o),
(765,705,o),
(1200,1134,c),
(1319,1253,o),
(1424,1338,o),
(1442,1352,c),
(1472,1373,o),
(1479,1378,o),
(1479,1390,cs),
(1479,1400,o),
(1472,1406,o),
(1457,1406,cs),
(1452,1406,o),
(1436,1404,o),
(1418,1389,c),
(1339,1316,o),
(1307,1281,o),
(1219,1281,cs),
(1164,1281,o),
(1120,1295,o),
(1075,1325,cs),
(1000,1376,o),
(952,1410,o),
(860,1410,cs,{
name = hr05;
}),
(752,1410,o),
(654,1364,o),
(575,1267,c),
(585,1304,o),
(595,1355,o),
(595,1377,cs),
(595,1401,o),
(585,1404,o),
(577,1404,cs),
(562,1404,o),
(559,1393,o),
(557,1366,c),
(534,1186,o),
(399,1016,o),
(338,948,c),
(316,925,o),
(310,920,o),
(310,914,cs),
(310,909,o),
(316,905,o),
(322,905,cs),
(351,905,o),
(451,1021,o),
(559,1202,c),
(632,1303,o),
(726,1306,o),
(777,1305,cs),
(838,1304,o),
(869,1285,o),
(920,1249,c),
(981,1208,o),
(1014,1192,o),
(1079,1192,cs,{
name = hr06;
}),
(1147,1192,o),
(1213,1211,o),
(1278,1251,c),
(1232,1209,o),
(1184,1162,o),
(1168,1147,cs),
(699,694,o),
(453,260,o),
(453,-81,cs,{
name = hr01;
}),
(453,-312,o),
(568,-477,o),
(662,-532,cs),
(674,-539,o),
(684,-545,o),
(689,-545,cs,{
name = hr03;
})
);
}
);
width = 1049;
}
);
unicode = 55;
},
{
glyphname = eight;
kernLeft = eight;
kernRight = eight;
lastChange = "2022-05-18 03:32:05 +0000";
layers = (
{
layerId = master01;
shapes = (
{
closed = 1;
nodes = (
(788,-5,o),
(1028,168,o),
(1028,393,cs),
(1028,526,o),
(944,661,o),
(872,767,c),
(869,770,l),
(1092,832,o),
(1277,1007,o),
(1277,1192,cs),
(1277,1303,o),
(1202,1410,o),
(1008,1410,cs),
(764,1410,o),
(589,1225,o),
(589,1059,cs),
(589,979,o),
(618,902,o),
(681,791,c),
(423,701,o),
(211,512,o),
(211,301,cs,{
name = hr00;
}),
(211,133,o),
(313,-5,o),
(559,-5,cs)
);
},
{
closed = 1;
nodes = (
(424,23,o),
(311,129,o),
(311,327,cs),
(311,516,o),
(468,687,o),
(696,765,c),
(715,733,o),
(735,699,o),
(759,661,cs),
(862,494,o),
(884,432,o),
(884,337,cs),
(884,153,o),
(722,23,o),
(580,23,cs)
);
},
{
closed = 1;
nodes = (
(761,933,o),
(727,1029,o),
(727,1108,cs),
(727,1288,o),
(898,1383,o),
(1011,1383,cs),
(1157,1383,o),
(1207,1289,o),
(1207,1198,cs),
(1207,1022,o),
(1034,842,o),
(854,793,c)
);
}
);
width = 1106;
}
);
unicode = 56;
},
{
glyphname = nine;
kernLeft = nine;
kernRight = nine;
lastChange = "2022-05-18 03:32:05 +0000";
layers = (
{
layerId = master01;
shapes = (
{
closed = 1;
nodes = (
(502,-2,o),
(587,14,o),
(673,56,cs),
(1031,231,o),
(1284,677,o),
(1316,1025,cs),
(1338,1264,o),
(1233,1408,o),
(1012,1408,cs),
(738,1408,o),
(478,1145,o),
(448,856,c),
(427,677,o),
(550,569,o),
(714,569,cs),
(837,569,o),
(975,645,o),
(1136,830,c),
(971,340,o),
(703,24,o),
(427,24,cs),
(344,24,o),
(259,82,o),
(261,131,cs),
(261,147,o),
(265,161,o),
(272,171,cs),
(282,187,o),
(288,195,o),
(288,211,cs),
(289,236,o),
(269,270,o),
(225,270,cs),
(175,270,o),
(143,234,o),
(141,185,c,{
name = hr00;
}),
(140,96,o),
(250,-2,o),
(422,-2,cs)
);
},
{
closed = 1;
nodes = (
(596,593,o),
(542,662,o),
(544,754,cs),
(550,984,o),
(816,1378,o),
(1032,1378,cs),
(1156,1378,o),
(1215,1332,o),
(1210,1173,c),
(1205,921,o),
(931,593,o),
(712,593,cs)
);
}
);
width = 1209;
}
);
unicode = 57;
},
{
glyphname = five.lf;
kernLeft = five.lf;
kernRight = five.lf;
lastChange = "2022-05-18 03:32:05 +0000";
layers = (
{
layerId = master01;
shapes = (
{
closed = 1;
nodes = (
(577,-40,o),
(901,224,o),
(901,507,cs),
(901,720,o),
(789,836,o),
(584,836,cs),
(524,836,o),
(448,818,o),
(397,789,c),
(426,835,o),
(603,1146,o),
(646,1231,c),
(682,1269,o),
(739,1295,o),
(786,1295,cs),
(820,1295,o),
(849,1286,o),
(895,1271,cs),
(935,1259,o),
(966,1255,o),
(998,1255,cs,{
name = hr03;
}),
(1161,1255,o),
(1282,1344,o),
(1341,1465,cs),
(1345,1472,o),
(1349,1485,o),
(1349,1490,cs),
(1349,1498,o),
(1345,1500,o),
(1340,1500,cs),
(1334,1500,o),
(1330,1497,o),
(1326,1489,cs),
(1323,1481,o),
(1317,1471,o),
(1313,1465,cs),
(1253,1382,o),
(1196,1370,o),
(1132,1370,cs),
(1103,1370,o),
(1069,1377,o),
(1029,1391,c),
(998,1400,o),
(959,1410,o),
(925,1410,cs),
(844,1410,o),
(750,1364,o),
(679,1297,c),
(704,1344,o),
(726,1391,o),
(730,1400,c,{
name = hr04;
}),
(647,1396,l),
(557,1204,o),
(394,911,o),
(289,730,c),
(221,677,o),
(154,598,o),
(145,562,cs),
(143,553,o),
(149,551,o),
(155,551,c),
(161,549,o),
(170,552,o),
(184,575,cs),
(259,695,o),
(414,795,o),
(559,795,cs),
(686,795,o),
(764,736,o),
(764,581,cs),
(764,327,o),
(543,-11,o),
(154,-11,cs),
(23,-11,o),
(-72,19,o),
(-109,73,cs),
(-119,87,o),
(-129,105,o),
(-133,116,cs,{
name = hr01;
}),
(-139,132,o),
(-145,142,o),
(-163,142,cs),
(-178,142,o),
(-190,131,o),
(-190,112,cs),
(-190,84,o),
(-166,48,o),
(-119,19,c),
(-59,-15,o),
(30,-40,o),
(148,-40,cs)
);
}
);
width = 990;
}
);
metricLeft = five;
metricRight = five;
},
{
glyphname = seven.lf;
kernLeft = seven;
kernRight = seven;
lastChange = "2022-05-18 03:33:59 +0000";
layers = (
{
layerId = master01;
shapes = (
{
closed = 1;
nodes = (
(912,-21,o),
(920,-20,o),
(920,-16,cs),
(920,-10,o),
(902,0,o),
(885,17,cs),
(839,64,o),
(786,174,o),
(786,311,cs,{
name = hr04;
}),
(786,483,o),
(807,811,o),
(1200,1137,c),
(1319,1256,o),
(1424,1338,o),
(1442,1352,c),
(1472,1373,o),
(1479,1378,o),
(1479,1390,cs),
(1479,1400,o),
(1472,1406,o),
(1457,1406,cs),
(1452,1406,o),
(1436,1404,o),
(1418,1389,c),
(1339,1316,o),
(1307,1281,o),
(1219,1281,cs),
(1164,1281,o),
(1120,1295,o),
(1075,1325,cs),
(1000,1376,o),
(952,1410,o),
(860,1410,cs,{
name = hr05;
}),
(752,1410,o),
(654,1364,o),
(575,1267,c),
(585,1304,o),
(595,1355,o),
(595,1377,cs),
(595,1401,o),
(585,1404,o),
(577,1404,cs),
(562,1404,o),
(559,1393,o),
(557,1366,c),
(534,1186,o),
(399,1016,o),
(338,948,c),
(316,925,o),
(310,920,o),
(310,914,cs),
(310,909,o),
(316,905,o),
(322,905,cs),
(351,905,o),
(451,1021,o),
(559,1202,c),
(632,1303,o),
(726,1306,o),
(777,1305,cs),
(838,1304,o),
(869,1285,o),
(920,1249,c),
(981,1208,o),
(1014,1192,o),
(1079,1192,cs,{
name = hr06;
}),
(1147,1192,o),
(1213,1211,o),
(1278,1251,c),
(1232,1209,o),
(1184,1162,o),
(1168,1147,cs),
(725,794,o),
(676,522,o),
(676,305,cs,{
name = hr01;
}),
(676,150,o),
(788,27,o),
(882,-13,cs),
(894,-17,o),
(904,-21,o),
(909,-21,cs,{
name = hr03;
})
);
}
);
width = 1049;
}
);
metricLeft = seven;
metricRight = seven;
},
{
glyphname = zero.osf;
kernLeft = zero.osf;
kernRight = zero.osf;
lastChange = "2022-05-18 03:32:05 +0000";
layers = (
{
background = {
shapes = (
{
closed = 1;
nodes = (
(769,-5,o),
(1264,610,o),
(1264,1084,cs),
(1264,1275,o),
(1193,1408,o),
(1032,1408,cs),
(632,1408,o),
(111,785,o),
(111,310,cs,{
name = hr00;
}),
(111,113,o),
(192,-5,o),
(337,-5,cs)
);
},
{
closed = 1;
nodes = (
(271,22,o),
(220,89,o),
(220,225,cs),
(220,601,o),
(746,1384,o),
(1033,1384,cs),
(1137,1384,o),
(1209,1324,o),
(1209,1129,cs),
(1209,578,o),
(634,22,o),
(362,22,cs)
);
}
);
};
layerId = master01;
shapes = (
{
closed = 1;
nodes = (
(794,-5,o),
(1092,393,o),
(1092,744,cs),
(1092,948,o),
(999,1101,o),
(805,1101,cs),
(439,1101,o),
(121,693,o),
(121,339,cs),
(121,142,o),
(216,-5,o),
(401,-5,cs)
);
},
{
closed = 1;
nodes = (
(300,16,o),
(245,113,o),
(245,244,cs),
(245,556,o),
(543,1082,o),
(809,1082,cs),
(974,1082,o),
(1031,952,o),
(1031,771,cs),
(1031,379,o),
(671,16,o),
(422,16,cs)
);
}
);
width = 1086;
}
);
},
{
glyphname = one.osf;
kernLeft = one.osf;
kernRight = one.osf;
lastChange = "2022-05-18 03:32:05 +0000";
layers = (
{
background = {
shapes = (
{
closed = 1;
nodes = (
(183,-1,o),
(218,4,o),
(257,4,cs),
(286,4,o),
(344,-1,o),
(368,-2,c),
(643,545,o),
(999,1175,o),
(1114,1324,cs),
(1140,1358,o),
(1152,1378,o),
(1152,1390,cs),
(1152,1399,o),
(1145,1404,o),
(1137,1404,cs),
(1125,1404,o),
(1117,1396,o),
(1090,1353,c),
(982,1172,o),
(532,698,o),
(351,591,cs),
(331,580,o),
(318,574,o),
(304,568,c),
(279,560,o),
(270,549,o),
(270,537,cs),
(270,525,o),
(279,517,o),
(293,517,cs),
(317,517,o),
(350,542,o),
(381,564,cs),
(498,648,o),
(623,761,o),
(804,952,c),
(624,670,o),
(345,251,o),
(163,-7,c,{
name = hr00;
})
);
}
);
};
layerId = master01;
shapes = (
{
closed = 1;
nodes = (
(103,-1,o),
(138,4,o),
(177,4,cs),
(206,4,o),
(264,-1,o),
(288,-2,c),
(563,545,o),
(767,929,o),
(857,1097,cs),
(877,1134,o),
(895,1151,o),
(895,1163,cs),
(895,1172,o),
(888,1177,o),
(880,1177,cs),
(868,1177,o),
(860,1169,o),
(833,1126,c),
(678,945,o),
(452,698,o),
(271,591,cs),
(251,580,o),
(238,574,o),
(224,568,c),
(199,560,o),
(190,549,o),
(190,537,cs),
(190,525,o),
(199,517,o),
(213,517,cs),
(237,517,o),
(270,542,o),
(301,564,cs),
(418,648,o),
(543,761,o),
(724,952,c),
(544,670,o),
(265,251,o),
(83,-7,c,{
name = hr00;
})
);
}
);
width = 711;
}
);
},
{
glyphname = four.osf;
kernLeft = four.osf;
kernRight = four.osf;
lastChange = "2022-05-18 03:32:05 +0000";
layers = (
{
layerId = master01;
shapes = (
{
closed = 1;
nodes = (
(638,-429,o),
(735,-218,o),
(844,-24,c,{
name = hr03;
}),
(889,-31,o),
(922,-31,o),
(972,-31,cs),
(1047,-31,o),
(1190,-18,o),
(1285,59,cs),
(1304,75,o),
(1317,85,o),
(1317,92,cs),
(1317,95,o),
(1313,100,o),
(1307,100,cs),
(1294,100,o),
(1271,76,o),
(1237,58,cs),
(1183,29,o),
(1081,3,o),
(1006,3,cs),
(962,3,o),
(921,7,o),
(874,17,c),
(992,239,o),
(1129,433,o),
(1214,499,cs),
(1232,513,o),
(1233,516,o),
(1232,522,cs),
(1232,526,o),
(1229,531,o),
(1221,531,cs),
(1211,531,o),
(1190,519,o),
(1179,514,c),
(1068,453,o),
(909,260,o),
(774,41,c),
(619,85,ls),
(528,111,o),
(459,130,o),
(403,144,c),
(431,166,ls),
(634,326,o),
(1290,1227,o),
(1362,1299,cs),
(1444,1381,o),
(1476,1414,o),
(1533,1438,cs),
(1570,1453,o),
(1574,1455,o),
(1574,1462,cs),
(1574,1471,o),
(1567,1474,o),
(1539,1474,cs),
(1467,1474,o),
(1403,1459,o),
(1291,1446,c),
(1157,1229,o),
(535,346,o),
(324,163,c),
(247,179,o),
(200,182,o),
(138,182,cs),
(25,182,o),
(-101,157,o),
(-101,85,cs),
(-101,44,o),
(-37,14,o),
(58,14,cs,{
name = hr04;
}),
(134,14,o),
(225,21,o),
(366,118,c),
(436,97,o),
(511,70,o),
(590,45,cs),
(653,25,o),
(701,11,o),
(740,0,c),
(616,-180,o),
(508,-372,o),
(442,-520,c,{
name = hr01;
}),
(590,-592,l)
);
},
{
closed = 1;
nodes = (
(29,39,o),
(-37,45,o),
(-37,80,cs),
(-37,125,o),
(18,158,o),
(146,158,cs),
(193,158,o),
(242,150,o),
(294,138,c),
(276,123,o),
(258,110,o),
(241,98,cs),
(171,49,o),
(118,39,o),
(70,39,cs)
);
}
);
width = 1379;
}
);
},
{
glyphname = fraction;
lastChange = "2022-05-18 03:32:05 +0000";
layers = (
{
layerId = master01;
shapes = (
{
closed = 1;
nodes = (
(-166,23,o),
(-152,24,o),
(-139,24,cs),
(-130,24,o),
(-121,23,o),
(-114,22,c),
(848,1371,l),
(844,1370,o),
(824,1368,o),
(813,1368,cs),
(801,1368,o),
(789,1370,o),
(780,1373,c,{
name = hr03;
}),
(-185,22,l,{
name = hr01;
})
);
}
);
width = 663;
}
);
unicode = 8260;
},
{
glyphname = onehalf;
kernLeft = onehalf;
kernRight = onehalf;
lastChange = "2022-05-18 03:32:05 +0000";
layers = (
{
layerId = master01;
shapes = (
{
closed = 1;
nodes = (
(397,23,o),
(411,24,o),
(424,24,cs),
(433,24,o),
(442,23,o),
(449,22,c),
(1411,1371,l),
(1407,1370,o),
(1387,1368,o),
(1376,1368,cs),
(1364,1368,o),
(1352,1370,o),
(1343,1373,c,{
name = hr03;
}),
(378,22,l,{
name = hr01;
})
);
},
{
closed = 1;
nodes = (
(144,395,o),
(178,398,o),
(202,398,cs),
(220,398,o),
(260,395,o),
(273,394,c),
(435,740,o),
(615,1062,o),
(696,1171,cs),
(726,1212,o),
(729,1220,o),
(729,1228,cs),
(729,1234,o),
(725,1241,o),
(716,1241,cs,{
name = hr04;
}),
(709,1241,o),
(700,1235,o),
(682,1210,c),
(580,1057,o),
(351,840,o),
(232,771,c),
(226,766,o),
(210,758,o),
(202,756,c),
(187,749,o),
(181,741,o),
(181,732,cs),
(181,725,o),
(188,714,o),
(202,714,cs),
(215,714,o),
(245,732,o),
(316,790,cs),
(384,845,o),
(458,914,o),
(534,993,c),
(132,391,l)
);
},
{
closed = 1;
nodes = (
(995,54,o),
(1003,59,o),
(1013,68,cs),
(1084,129,o),
(1163,160,o),
(1217,160,cs),
(1263,160,o),
(1305,148,o),
(1362,100,c),
(1404,67,o),
(1441,54,o),
(1485,54,cs),
(1594,54,o),
(1711,166,o),
(1711,252,cs),
(1711,266,o),
(1705,274,o),
(1697,274,cs),
(1690,274,o),
(1686,266,o),
(1685,255,cs),
(1677,196,o),
(1614,135,o),
(1542,135,cs),
(1515,135,o),
(1489,146,o),
(1452,171,cs),
(1407,201,o),
(1364,213,o),
(1305,213,cs),
(1248,213,o),
(1176,198,o),
(1088,151,c),
(1144,197,o),
(1202,228,o),
(1364,301,c),
(1641,423,o),
(1809,575,o),
(1809,739,cs),
(1809,836,o),
(1743,913,o),
(1618,913,cs),
(1420,913,o),
(1208,690,o),
(1208,539,cs),
(1208,502,o),
(1231,439,o),
(1314,439,cs),
(1354,439,o),
(1410,461,o),
(1450,492,c),
(1509,541,o),
(1542,588,o),
(1542,603,cs),
(1542,609,o),
(1539,613,o),
(1532,613,cs),
(1527,613,o),
(1522,610,o),
(1514,601,c),
(1452,519,o),
(1382,464,o),
(1319,464,cs),
(1282,464,o),
(1269,486,o),
(1269,521,cs),
(1269,627,o),
(1475,885,o),
(1613,885,cs),
(1673,885,o),
(1712,839,o),
(1712,767,cs),
(1712,572,o),
(1575,455,o),
(1328,326,cs),
(1057,185,o),
(975,103,o),
(975,67,cs),
(975,59,o),
(980,54,o),
(986,54,cs)
);
}
);
width = 1809;
}
);
unicode = 189;
userData = {
KernOnSpecialSpacing = {
L = NoKerning;
R = NoKerning;
};
};
},
{
glyphname = onethird;
kernLeft = onehalf;
kernRight = onethird;
lastChange = "2023-10-28 18:57:02 +0000";
layers = (
{
layerId = master01;
shapes = (
{
closed = 1;
nodes = (
(397,23,o),
(411,24,o),
(424,24,cs),
(433,24,o),
(442,23,o),
(449,22,c),
(1411,1371,l),
(1407,1370,o),
(1387,1368,o),
(1376,1368,cs),
(1364,1368,o),
(1352,1370,o),
(1343,1373,c,{
name = hr03;
}),
(378,22,l,{
name = hr01;
})
);
},
{
closed = 1;
nodes = (
(144,395,o),
(178,398,o),
(202,398,cs),
(220,398,o),
(260,395,o),
(273,394,c),
(435,740,o),
(615,1062,o),
(696,1171,cs),
(726,1212,o),
(729,1220,o),
(729,1228,cs),
(729,1234,o),
(725,1241,o),
(716,1241,cs,{
name = hr04;
}),
(709,1241,o),
(700,1235,o),
(682,1210,c),
(580,1057,o),
(351,840,o),
(232,771,c),
(226,766,o),
(210,758,o),
(202,756,c),
(187,749,o),
(181,741,o),
(181,732,cs),
(181,725,o),
(188,714,o),
(202,714,cs),
(215,714,o),
(245,732,o),
(316,790,cs),
(384,845,o),
(458,914,o),
(534,993,c),
(132,391,l)
);
},
{
closed = 1;
nodes = (
(1416,6,o),
(1605,133,o),
(1605,292,cs),
(1605,375,o),
(1521,441,o),
(1442,454,c),
(1626,527,o),
(1721,625,o),
(1721,709,cs),
(1721,804,o),
(1645,865,o),
(1502,865,cs),
(1345,865,o),
(1181,723,o),
(1181,611,cs),
(1181,549,o),
(1223,517,o),
(1273,517,cs),
(1370,517,o),
(1448,612,o),
(1448,704,cs),
(1448,716,o),
(1442,719,o),
(1438,719,cs),
(1432,719,o),
(1429,716,o),
(1426,704,cs),
(1405,609,o),
(1344,543,o),
(1278,543,cs),
(1248,543,o),
(1234,557,o),
(1234,587,cs),
(1234,703,o),
(1380,838,o),
(1492,838,cs),
(1571,838,o),
(1613,787,o),
(1613,717,cs),
(1613,630,o),
(1549,548,o),
(1372,467,c),
(1288,427,o),
(1250,410,o),
(1221,368,cs),
(1216,362,o),
(1216,354,o),
(1223,349,cs),
(1232,344,o),
(1242,345,o),
(1248,352,c),
(1298,395,o),
(1336,427,o),
(1397,427,cs),
(1454,427,o),
(1491,372,o),
(1491,321,cs),
(1491,171,o),
(1366,32,o),
(1165,32,cs),
(1111,32,o),
(1044,52,o),
(1010,86,c),
(1012,95,o),
(1014,109,o),
(1014,115,cs),
(1014,147,o),
(1000,164,o),
(976,164,cs),
(951,164,o),
(936,144,o),
(936,124,cs),
(936,75,o),
(1031,6,o),
(1165,6,cs)
);
}
);
width = 1711;
}
);
unicode = 8531;
},
